<svg width="393" height="852" viewBox="0 0 393 852" fill="none" xmlns="http://www.w3.org/2000/svg">
<rect width="393" height="852" fill="#191919"/>
<path d="M43.6 159L40.198 146.652H42.34L44.446 154.788C44.482 154.92 44.524 155.1 44.572 155.328C44.62 155.556 44.662 155.796 44.698 156.048C44.746 156.288 44.788 156.51 44.824 156.714H44.932C44.968 156.558 44.998 156.39 45.022 156.21C45.046 156.03 45.076 155.85 45.112 155.67C45.148 155.49 45.178 155.322 45.202 155.166C45.238 155.01 45.262 154.884 45.274 154.788L47.218 146.652H49.81L51.772 154.788C51.808 154.92 51.85 155.1 51.898 155.328C51.946 155.556 51.988 155.796 52.024 156.048C52.072 156.288 52.114 156.51 52.15 156.714H52.258C52.282 156.57 52.312 156.408 52.348 156.228C52.384 156.048 52.42 155.874 52.456 155.706C52.492 155.526 52.528 155.358 52.564 155.202C52.612 155.046 52.648 154.908 52.672 154.788L54.778 146.652H56.686L53.284 159H50.926L48.856 150.756C48.82 150.576 48.778 150.372 48.73 150.144C48.682 149.904 48.634 149.664 48.586 149.424C48.55 149.172 48.52 148.956 48.496 148.776H48.406C48.382 148.968 48.352 149.19 48.316 149.442C48.28 149.694 48.238 149.94 48.19 150.18C48.142 150.408 48.1 150.6 48.064 150.756L46.03 159H43.6ZM58.0986 159V145.986H59.9706V150.666H60.0966C60.3246 150.378 60.5826 150.138 60.8706 149.946C61.1586 149.742 61.4826 149.586 61.8426 149.478C62.2026 149.37 62.5986 149.316 63.0306 149.316C63.6306 149.316 64.1586 149.424 64.6146 149.64C65.0706 149.844 65.4246 150.18 65.6766 150.648C65.9406 151.116 66.0726 151.746 66.0726 152.538V159H64.2006V152.826C64.2006 152.466 64.1526 152.166 64.0566 151.926C63.9726 151.686 63.8466 151.494 63.6786 151.35C63.5106 151.206 63.3126 151.104 63.0846 151.044C62.8566 150.984 62.6046 150.954 62.3286 150.954C61.8966 150.954 61.5006 151.056 61.1406 151.26C60.7926 151.464 60.5106 151.752 60.2946 152.124C60.0786 152.496 59.9706 152.94 59.9706 153.456V159H58.0986ZM72.3409 159.216C71.3689 159.216 70.5529 159.042 69.8929 158.694C69.2449 158.334 68.7529 157.788 68.4169 157.056C68.0809 156.324 67.9129 155.394 67.9129 154.266C67.9129 153.126 68.0809 152.196 68.4169 151.476C68.7529 150.744 69.2509 150.204 69.9109 149.856C70.5709 149.496 71.3929 149.316 72.3769 149.316C73.2769 149.316 74.0269 149.49 74.6269 149.838C75.2389 150.174 75.7009 150.69 76.0129 151.386C76.3249 152.082 76.4809 152.958 76.4809 154.014V154.734H69.8389C69.8629 155.406 69.9649 155.97 70.1449 156.426C70.3249 156.87 70.5949 157.2 70.9549 157.416C71.3269 157.62 71.7949 157.722 72.3589 157.722C72.7069 157.722 73.0189 157.68 73.2949 157.596C73.5709 157.5 73.8049 157.368 73.9969 157.2C74.1889 157.02 74.3389 156.81 74.4469 156.57C74.5549 156.318 74.6089 156.036 74.6089 155.724H76.4449C76.4449 156.288 76.3489 156.786 76.1569 157.218C75.9649 157.65 75.6829 158.016 75.3109 158.316C74.9509 158.604 74.5189 158.826 74.0149 158.982C73.5109 159.138 72.9529 159.216 72.3409 159.216ZM69.8749 153.366H74.5189C74.5189 152.898 74.4649 152.508 74.3569 152.196C74.2609 151.872 74.1169 151.608 73.9249 151.404C73.7329 151.2 73.5049 151.056 73.2409 150.972C72.9769 150.876 72.6769 150.828 72.3409 150.828C71.8369 150.828 71.4049 150.918 71.0449 151.098C70.6969 151.278 70.4269 151.56 70.2349 151.944C70.0429 152.316 69.9229 152.79 69.8749 153.366ZM78.3837 159V149.532H79.9317L80.0937 151.062H80.2017C80.3097 150.762 80.4477 150.48 80.6157 150.216C80.7957 149.952 81.0237 149.736 81.2997 149.568C81.5877 149.4 81.9357 149.316 82.3437 149.316C82.5357 149.316 82.7037 149.334 82.8477 149.37C83.0037 149.406 83.1237 149.436 83.2077 149.46V151.224H82.5777C82.1937 151.224 81.8517 151.284 81.5517 151.404C81.2637 151.524 81.0177 151.704 80.8137 151.944C80.6217 152.172 80.4777 152.454 80.3817 152.79C80.2977 153.126 80.2557 153.504 80.2557 153.924V159H78.3837ZM88.3546 159.216C87.3826 159.216 86.5666 159.042 85.9066 158.694C85.2586 158.334 84.7666 157.788 84.4306 157.056C84.0946 156.324 83.9266 155.394 83.9266 154.266C83.9266 153.126 84.0946 152.196 84.4306 151.476C84.7666 150.744 85.2646 150.204 85.9246 149.856C86.5846 149.496 87.4066 149.316 88.3906 149.316C89.2906 149.316 90.0406 149.49 90.6406 149.838C91.2526 150.174 91.7146 150.69 92.0266 151.386C92.3386 152.082 92.4946 152.958 92.4946 154.014V154.734H85.8526C85.8766 155.406 85.9786 155.97 86.1586 156.426C86.3386 156.87 86.6086 157.2 86.9686 157.416C87.3406 157.62 87.8086 157.722 88.3726 157.722C88.7206 157.722 89.0326 157.68 89.3086 157.596C89.5846 157.5 89.8186 157.368 90.0106 157.2C90.2026 157.02 90.3526 156.81 90.4606 156.57C90.5686 156.318 90.6226 156.036 90.6226 155.724H92.4586C92.4586 156.288 92.3626 156.786 92.1706 157.218C91.9786 157.65 91.6966 158.016 91.3246 158.316C90.9646 158.604 90.5326 158.826 90.0286 158.982C89.5246 159.138 88.9666 159.216 88.3546 159.216ZM85.8886 153.366H90.5326C90.5326 152.898 90.4786 152.508 90.3706 152.196C90.2746 151.872 90.1306 151.608 89.9386 151.404C89.7466 151.2 89.5186 151.056 89.2546 150.972C88.9906 150.876 88.6906 150.828 88.3546 150.828C87.8506 150.828 87.4186 150.918 87.0586 151.098C86.7106 151.278 86.4406 151.56 86.2486 151.944C86.0566 152.316 85.9366 152.79 85.8886 153.366ZM101.581 159.216C100.921 159.216 100.339 159.144 99.8348 159C99.3308 158.856 98.9108 158.658 98.5748 158.406C98.2388 158.154 97.9808 157.854 97.8008 157.506C97.6328 157.146 97.5488 156.75 97.5488 156.318C97.5488 156.258 97.5488 156.204 97.5488 156.156C97.5608 156.108 97.5668 156.066 97.5668 156.03H99.4208C99.4208 156.066 99.4208 156.102 99.4208 156.138C99.4208 156.162 99.4208 156.192 99.4208 156.228C99.4208 156.6 99.5228 156.9 99.7268 157.128C99.9308 157.344 100.201 157.5 100.537 157.596C100.885 157.68 101.263 157.722 101.671 157.722C102.031 157.722 102.361 157.68 102.661 157.596C102.973 157.5 103.225 157.362 103.417 157.182C103.621 157.002 103.723 156.774 103.723 156.498C103.723 156.138 103.597 155.862 103.345 155.67C103.093 155.478 102.763 155.328 102.355 155.22C101.947 155.1 101.521 154.974 101.077 154.842C100.681 154.734 100.285 154.62 99.8888 154.5C99.5048 154.368 99.1568 154.2 98.8448 153.996C98.5328 153.792 98.2808 153.534 98.0888 153.222C97.8968 152.91 97.8008 152.52 97.8008 152.052C97.8008 151.608 97.8968 151.218 98.0888 150.882C98.2808 150.546 98.5448 150.264 98.8808 150.036C99.2288 149.808 99.6368 149.634 100.105 149.514C100.585 149.394 101.107 149.334 101.671 149.334C102.259 149.334 102.781 149.4 103.237 149.532C103.693 149.652 104.077 149.826 104.389 150.054C104.713 150.282 104.959 150.558 105.127 150.882C105.295 151.194 105.379 151.53 105.379 151.89C105.379 151.962 105.373 152.04 105.361 152.124C105.361 152.196 105.361 152.244 105.361 152.268H103.525V152.106C103.525 151.866 103.459 151.65 103.327 151.458C103.195 151.266 102.985 151.11 102.697 150.99C102.421 150.87 102.049 150.81 101.581 150.81C101.269 150.81 100.993 150.84 100.753 150.9C100.513 150.948 100.315 151.02 100.159 151.116C100.003 151.212 99.8828 151.326 99.7988 151.458C99.7268 151.59 99.6908 151.74 99.6908 151.908C99.6908 152.184 99.7868 152.4 99.9788 152.556C100.183 152.7 100.447 152.826 100.771 152.934C101.095 153.03 101.443 153.138 101.815 153.258C102.247 153.378 102.685 153.504 103.129 153.636C103.573 153.756 103.981 153.912 104.353 154.104C104.737 154.296 105.043 154.56 105.271 154.896C105.511 155.232 105.631 155.682 105.631 156.246C105.631 156.762 105.529 157.212 105.325 157.596C105.121 157.98 104.833 158.292 104.461 158.532C104.101 158.76 103.675 158.928 103.183 159.036C102.691 159.156 102.157 159.216 101.581 159.216ZM107.528 159V145.986H109.4V150.666H109.526C109.754 150.378 110.012 150.138 110.3 149.946C110.588 149.742 110.912 149.586 111.272 149.478C111.632 149.37 112.028 149.316 112.46 149.316C113.06 149.316 113.588 149.424 114.044 149.64C114.5 149.844 114.854 150.18 115.106 150.648C115.37 151.116 115.502 151.746 115.502 152.538V159H113.63V152.826C113.63 152.466 113.582 152.166 113.486 151.926C113.402 151.686 113.276 151.494 113.108 151.35C112.94 151.206 112.742 151.104 112.514 151.044C112.286 150.984 112.034 150.954 111.758 150.954C111.326 150.954 110.93 151.056 110.57 151.26C110.222 151.464 109.94 151.752 109.724 152.124C109.508 152.496 109.4 152.94 109.4 153.456V159H107.528ZM121.879 159.216C120.895 159.216 120.061 159.042 119.377 158.694C118.705 158.334 118.195 157.788 117.847 157.056C117.511 156.324 117.343 155.394 117.343 154.266C117.343 153.126 117.511 152.196 117.847 151.476C118.195 150.744 118.705 150.204 119.377 149.856C120.061 149.496 120.895 149.316 121.879 149.316C122.887 149.316 123.727 149.496 124.399 149.856C125.071 150.204 125.575 150.744 125.911 151.476C126.259 152.196 126.433 153.126 126.433 154.266C126.433 155.394 126.259 156.324 125.911 157.056C125.575 157.788 125.071 158.334 124.399 158.694C123.727 159.042 122.887 159.216 121.879 159.216ZM121.879 157.668C122.479 157.668 122.971 157.554 123.355 157.326C123.739 157.086 124.021 156.726 124.201 156.246C124.393 155.766 124.489 155.16 124.489 154.428V154.104C124.489 153.372 124.393 152.766 124.201 152.286C124.021 151.806 123.739 151.452 123.355 151.224C122.971 150.984 122.479 150.864 121.879 150.864C121.291 150.864 120.805 150.984 120.421 151.224C120.037 151.452 119.749 151.806 119.557 152.286C119.377 152.766 119.287 153.372 119.287 154.104V154.428C119.287 155.16 119.377 155.766 119.557 156.246C119.749 156.726 120.037 157.086 120.421 157.326C120.805 157.554 121.291 157.668 121.879 157.668ZM131.311 159.216C130.399 159.216 129.661 158.976 129.097 158.496C128.533 158.004 128.251 157.17 128.251 155.994V149.532H130.123V155.706C130.123 156.066 130.165 156.366 130.249 156.606C130.345 156.846 130.477 157.038 130.645 157.182C130.813 157.326 131.011 157.428 131.239 157.488C131.467 157.548 131.719 157.578 131.995 157.578C132.427 157.578 132.817 157.476 133.165 157.272C133.525 157.056 133.813 156.762 134.029 156.39C134.245 156.006 134.353 155.568 134.353 155.076V149.532H136.225V159H134.695L134.533 157.65H134.407C134.179 157.998 133.909 158.286 133.597 158.514C133.285 158.742 132.937 158.916 132.553 159.036C132.181 159.156 131.767 159.216 131.311 159.216ZM138.642 159V145.986H140.514V159H138.642ZM146.189 159.216C145.421 159.216 144.755 159.042 144.191 158.694C143.627 158.346 143.189 157.806 142.877 157.074C142.577 156.342 142.427 155.394 142.427 154.23C142.427 153.09 142.583 152.16 142.895 151.44C143.207 150.72 143.639 150.186 144.191 149.838C144.743 149.49 145.379 149.316 146.099 149.316C146.519 149.316 146.909 149.364 147.269 149.46C147.629 149.556 147.947 149.706 148.223 149.91C148.511 150.114 148.751 150.372 148.943 150.684H149.069V145.986H150.941V159H149.411L149.231 157.704H149.105C148.793 158.208 148.379 158.586 147.863 158.838C147.359 159.09 146.801 159.216 146.189 159.216ZM146.711 157.596C147.263 157.596 147.707 157.476 148.043 157.236C148.391 156.984 148.649 156.624 148.817 156.156C148.985 155.676 149.069 155.094 149.069 154.41V154.158C149.069 153.582 149.015 153.09 148.907 152.682C148.799 152.274 148.643 151.944 148.439 151.692C148.235 151.428 147.989 151.236 147.701 151.116C147.413 150.996 147.089 150.936 146.729 150.936C146.177 150.936 145.727 151.05 145.379 151.278C145.031 151.494 144.773 151.836 144.605 152.304C144.449 152.772 144.371 153.378 144.371 154.122V154.446C144.371 155.19 144.455 155.796 144.623 156.264C144.791 156.72 145.043 157.056 145.379 157.272C145.727 157.488 146.171 157.596 146.711 157.596ZM156.398 159V158.01L163.454 148.38H156.866V146.652H166.442V147.642L159.35 157.272H166.604V159H156.398ZM171.442 159.216C170.53 159.216 169.792 158.976 169.228 158.496C168.664 158.004 168.382 157.17 168.382 155.994V149.532H170.254V155.706C170.254 156.066 170.296 156.366 170.38 156.606C170.476 156.846 170.608 157.038 170.776 157.182C170.944 157.326 171.142 157.428 171.37 157.488C171.598 157.548 171.85 157.578 172.126 157.578C172.558 157.578 172.948 157.476 173.296 157.272C173.656 157.056 173.944 156.762 174.16 156.39C174.376 156.006 174.484 155.568 174.484 155.076V149.532H176.356V159H174.826L174.664 157.65H174.538C174.31 157.998 174.04 158.286 173.728 158.514C173.416 158.742 173.068 158.916 172.684 159.036C172.312 159.156 171.898 159.216 171.442 159.216ZM169.75 147.822V146.004H171.514V147.822H169.75ZM173.296 147.822V146.004H175.078V147.822H173.296ZM180.356 162.276C179.924 162.276 179.516 162.186 179.132 162.006C178.76 161.826 178.46 161.568 178.232 161.232C178.004 160.896 177.89 160.488 177.89 160.008C177.89 159.48 178.034 159.054 178.322 158.73C178.622 158.394 178.97 158.142 179.366 157.974C179.078 157.842 178.844 157.65 178.664 157.398C178.496 157.146 178.412 156.858 178.412 156.534C178.412 156.09 178.574 155.73 178.898 155.454C179.222 155.178 179.6 154.998 180.032 154.914C179.612 154.638 179.282 154.29 179.042 153.87C178.814 153.45 178.7 152.976 178.7 152.448C178.7 151.812 178.85 151.266 179.15 150.81C179.45 150.342 179.894 149.976 180.482 149.712C181.082 149.448 181.808 149.316 182.66 149.316C183.032 149.316 183.38 149.346 183.704 149.406C184.04 149.454 184.34 149.526 184.604 149.622C185.024 149.406 185.324 149.148 185.504 148.848C185.684 148.536 185.792 148.248 185.828 147.984H187.664C187.664 148.38 187.58 148.74 187.412 149.064C187.256 149.376 187.034 149.64 186.746 149.856C186.47 150.06 186.134 150.204 185.738 150.288C186.038 150.564 186.26 150.888 186.404 151.26C186.56 151.62 186.638 152.016 186.638 152.448C186.638 153.072 186.494 153.618 186.206 154.086C185.918 154.554 185.48 154.92 184.892 155.184C184.316 155.448 183.602 155.58 182.75 155.58H181.274C180.986 155.58 180.752 155.64 180.572 155.76C180.404 155.88 180.32 156.06 180.32 156.3C180.32 156.504 180.404 156.672 180.572 156.804C180.74 156.936 180.962 157.002 181.238 157.002H185.234C185.93 157.002 186.506 157.236 186.962 157.704C187.418 158.16 187.646 158.748 187.646 159.468C187.646 159.996 187.508 160.47 187.232 160.89C186.968 161.322 186.59 161.658 186.098 161.898C185.618 162.15 185.06 162.276 184.424 162.276H180.356ZM180.968 160.89H184.406C184.658 160.89 184.886 160.842 185.09 160.746C185.294 160.65 185.456 160.512 185.576 160.332C185.696 160.164 185.756 159.972 185.756 159.756C185.756 159.396 185.642 159.114 185.414 158.91C185.198 158.706 184.928 158.604 184.604 158.604H180.968C180.632 158.604 180.35 158.718 180.122 158.946C179.894 159.162 179.78 159.432 179.78 159.756C179.78 160.092 179.888 160.362 180.104 160.566C180.332 160.782 180.62 160.89 180.968 160.89ZM182.678 154.23C183.386 154.23 183.914 154.074 184.262 153.762C184.61 153.438 184.784 153 184.784 152.448C184.784 151.884 184.61 151.452 184.262 151.152C183.914 150.84 183.386 150.684 182.678 150.684C181.97 150.684 181.442 150.84 181.094 151.152C180.746 151.452 180.572 151.884 180.572 152.448C180.572 152.808 180.644 153.126 180.788 153.402C180.944 153.666 181.178 153.87 181.49 154.014C181.814 154.158 182.21 154.23 182.678 154.23ZM189.091 159V145.986H190.963V159H189.091ZM194.406 162.276C194.046 162.276 193.746 162.246 193.506 162.186C193.266 162.138 193.116 162.108 193.056 162.096V160.746H193.956C194.22 160.746 194.484 160.686 194.748 160.566C195.024 160.446 195.27 160.254 195.486 159.99C195.702 159.726 195.882 159.396 196.026 159L192.336 149.532H194.298L196.134 154.248C196.218 154.464 196.308 154.734 196.404 155.058C196.512 155.382 196.614 155.712 196.71 156.048C196.818 156.384 196.908 156.684 196.98 156.948H197.07C197.13 156.768 197.19 156.564 197.25 156.336C197.322 156.096 197.394 155.85 197.466 155.598C197.538 155.346 197.61 155.106 197.682 154.878C197.754 154.638 197.814 154.434 197.862 154.266L199.392 149.532H201.3L198.096 158.64C197.916 159.144 197.718 159.618 197.502 160.062C197.286 160.506 197.034 160.89 196.746 161.214C196.47 161.55 196.14 161.808 195.756 161.988C195.372 162.18 194.922 162.276 194.406 162.276ZM206.352 159V145.986H208.224V159H206.352ZM214.674 159.216C213.69 159.216 212.856 159.042 212.172 158.694C211.5 158.334 210.99 157.788 210.642 157.056C210.306 156.324 210.138 155.394 210.138 154.266C210.138 153.126 210.306 152.196 210.642 151.476C210.99 150.744 211.5 150.204 212.172 149.856C212.856 149.496 213.69 149.316 214.674 149.316C215.682 149.316 216.522 149.496 217.194 149.856C217.866 150.204 218.37 150.744 218.706 151.476C219.054 152.196 219.228 153.126 219.228 154.266C219.228 155.394 219.054 156.324 218.706 157.056C218.37 157.788 217.866 158.334 217.194 158.694C216.522 159.042 215.682 159.216 214.674 159.216ZM214.674 157.668C215.274 157.668 215.766 157.554 216.15 157.326C216.534 157.086 216.816 156.726 216.996 156.246C217.188 155.766 217.284 155.16 217.284 154.428V154.104C217.284 153.372 217.188 152.766 216.996 152.286C216.816 151.806 216.534 151.452 216.15 151.224C215.766 150.984 215.274 150.864 214.674 150.864C214.086 150.864 213.6 150.984 213.216 151.224C212.832 151.452 212.544 151.806 212.352 152.286C212.172 152.766 212.082 153.372 212.082 154.104V154.428C212.082 155.16 212.172 155.766 212.352 156.246C212.544 156.726 212.832 157.086 213.216 157.326C213.6 157.554 214.086 157.668 214.674 157.668ZM225.168 159.216C224.184 159.216 223.35 159.042 222.666 158.694C221.994 158.334 221.484 157.788 221.136 157.056C220.8 156.324 220.632 155.394 220.632 154.266C220.632 153.126 220.8 152.196 221.136 151.476C221.484 150.744 221.994 150.204 222.666 149.856C223.35 149.496 224.184 149.316 225.168 149.316C226.176 149.316 227.016 149.496 227.688 149.856C228.36 150.204 228.864 150.744 229.2 151.476C229.548 152.196 229.722 153.126 229.722 154.266C229.722 155.394 229.548 156.324 229.2 157.056C228.864 157.788 228.36 158.334 227.688 158.694C227.016 159.042 226.176 159.216 225.168 159.216ZM225.168 157.668C225.768 157.668 226.26 157.554 226.644 157.326C227.028 157.086 227.31 156.726 227.49 156.246C227.682 155.766 227.778 155.16 227.778 154.428V154.104C227.778 153.372 227.682 152.766 227.49 152.286C227.31 151.806 227.028 151.452 226.644 151.224C226.26 150.984 225.768 150.864 225.168 150.864C224.58 150.864 224.094 150.984 223.71 151.224C223.326 151.452 223.038 151.806 222.846 152.286C222.666 152.766 222.576 153.372 222.576 154.104V154.428C222.576 155.16 222.666 155.766 222.846 156.246C223.038 156.726 223.326 157.086 223.71 157.326C224.094 157.554 224.58 157.668 225.168 157.668ZM231.63 159V145.986H233.502V153.852L237.228 149.532H239.442L236.238 153.204L239.622 159H237.462L235.032 154.572L233.502 156.084V159H231.63ZM244.29 155.688V154.752C244.29 154.272 244.362 153.876 244.506 153.564C244.65 153.24 244.836 152.958 245.064 152.718C245.292 152.478 245.532 152.262 245.784 152.07C246.048 151.878 246.288 151.68 246.504 151.476C246.732 151.272 246.918 151.044 247.062 150.792C247.218 150.528 247.296 150.222 247.296 149.874C247.296 149.73 247.272 149.562 247.224 149.37C247.188 149.166 247.098 148.968 246.954 148.776C246.822 148.584 246.618 148.428 246.342 148.308C246.066 148.176 245.694 148.11 245.226 148.11C244.734 148.11 244.338 148.188 244.038 148.344C243.738 148.5 243.51 148.692 243.354 148.92C243.21 149.148 243.114 149.382 243.066 149.622C243.018 149.85 242.994 150.048 242.994 150.216C242.994 150.3 242.994 150.384 242.994 150.468C242.994 150.54 243 150.618 243.012 150.702H241.104C241.092 150.654 241.08 150.582 241.068 150.486C241.056 150.378 241.05 150.246 241.05 150.09C241.05 149.754 241.098 149.418 241.194 149.082C241.302 148.734 241.458 148.404 241.662 148.092C241.878 147.768 242.154 147.486 242.49 147.246C242.838 146.994 243.246 146.796 243.714 146.652C244.194 146.508 244.746 146.436 245.37 146.436C245.91 146.436 246.396 146.496 246.828 146.616C247.26 146.724 247.626 146.88 247.926 147.084C248.238 147.288 248.496 147.528 248.7 147.804C248.904 148.068 249.054 148.356 249.15 148.668C249.258 148.98 249.312 149.304 249.312 149.64C249.312 150.204 249.234 150.684 249.078 151.08C248.922 151.464 248.718 151.794 248.466 152.07C248.226 152.334 247.968 152.574 247.692 152.79C247.416 152.994 247.152 153.198 246.9 153.402C246.648 153.594 246.444 153.816 246.288 154.068C246.132 154.308 246.054 154.608 246.054 154.968V155.688H244.29ZM244.182 159V156.912H246.162V159H244.182Z" fill="#F5EFE6"/>
<rect x="40" y="173" width="313" height="40" rx="8" fill="#F5EFE6"/>
<path d="M55.408 199.192C54.8107 199.192 54.2347 199.133 53.68 199.016C53.136 198.899 52.6507 198.712 52.224 198.456C51.7973 198.189 51.456 197.848 51.2 197.432C50.9547 197.016 50.832 196.504 50.832 195.896C50.832 195.843 50.832 195.789 50.832 195.736C50.8427 195.683 50.848 195.629 50.848 195.576H52.384C52.384 195.608 52.3787 195.661 52.368 195.736C52.368 195.8 52.368 195.859 52.368 195.912C52.368 196.339 52.496 196.701 52.752 197C53.008 197.299 53.36 197.523 53.808 197.672C54.2667 197.811 54.784 197.88 55.36 197.88C55.616 197.88 55.8827 197.864 56.16 197.832C56.448 197.8 56.72 197.747 56.976 197.672C57.2427 197.587 57.4773 197.48 57.68 197.352C57.8933 197.213 58.0587 197.048 58.176 196.856C58.304 196.653 58.368 196.408 58.368 196.12C58.368 195.757 58.2613 195.459 58.048 195.224C57.8453 194.979 57.5733 194.781 57.232 194.632C56.8907 194.472 56.5013 194.333 56.064 194.216C55.6373 194.088 55.1947 193.965 54.736 193.848C54.2773 193.731 53.8293 193.597 53.392 193.448C52.9653 193.288 52.5813 193.096 52.24 192.872C51.8987 192.637 51.6213 192.349 51.408 192.008C51.2053 191.667 51.104 191.251 51.104 190.76C51.104 190.301 51.1947 189.891 51.376 189.528C51.568 189.165 51.8453 188.861 52.208 188.616C52.5813 188.36 53.04 188.168 53.584 188.04C54.128 187.901 54.752 187.832 55.456 187.832C56.032 187.832 56.5653 187.896 57.056 188.024C57.5573 188.141 57.9947 188.328 58.368 188.584C58.752 188.829 59.0507 189.144 59.264 189.528C59.4773 189.912 59.584 190.376 59.584 190.92V191.112H58.08V190.872C58.08 190.509 57.968 190.2 57.744 189.944C57.52 189.688 57.2107 189.491 56.816 189.352C56.432 189.213 55.9947 189.144 55.504 189.144C54.864 189.144 54.3307 189.208 53.904 189.336C53.4773 189.453 53.1573 189.629 52.944 189.864C52.7413 190.088 52.64 190.344 52.64 190.632C52.64 190.963 52.7413 191.24 52.944 191.464C53.1573 191.688 53.4347 191.875 53.776 192.024C54.1173 192.163 54.5067 192.291 54.944 192.408C55.3813 192.525 55.824 192.648 56.272 192.776C56.7307 192.893 57.1733 193.032 57.6 193.192C58.0373 193.341 58.4267 193.533 58.768 193.768C59.12 193.992 59.3973 194.28 59.6 194.632C59.8027 194.973 59.904 195.395 59.904 195.896C59.904 196.675 59.712 197.309 59.328 197.8C58.944 198.28 58.416 198.632 57.744 198.856C57.072 199.08 56.2933 199.192 55.408 199.192ZM65.2296 199.192C64.3976 199.192 63.6936 199.037 63.1176 198.728C62.5523 198.408 62.1203 197.923 61.8216 197.272C61.5336 196.621 61.3896 195.795 61.3896 194.792C61.3896 193.779 61.5336 192.952 61.8216 192.312C62.1203 191.661 62.5576 191.181 63.1336 190.872C63.7096 190.552 64.4296 190.392 65.2936 190.392C66.083 190.392 66.7443 190.547 67.2776 190.856C67.811 191.155 68.211 191.608 68.4776 192.216C68.755 192.813 68.8936 193.565 68.8936 194.472V195.144H62.8456C62.867 195.816 62.963 196.371 63.1336 196.808C63.315 197.235 63.5816 197.549 63.9336 197.752C64.2856 197.944 64.7283 198.04 65.2616 198.04C65.6243 198.04 65.939 197.997 66.2056 197.912C66.483 197.816 66.7123 197.683 66.8936 197.512C67.0856 197.341 67.2296 197.139 67.3256 196.904C67.4216 196.669 67.475 196.413 67.4856 196.136H68.8616C68.851 196.584 68.7656 197 68.6056 197.384C68.4456 197.757 68.211 198.077 67.9016 198.344C67.5923 198.611 67.2136 198.819 66.7656 198.968C66.3176 199.117 65.8056 199.192 65.2296 199.192ZM62.8776 194.088H67.4376C67.4376 193.619 67.3843 193.224 67.2776 192.904C67.171 192.584 67.0163 192.323 66.8136 192.12C66.6216 191.917 66.3923 191.773 66.1256 191.688C65.8696 191.592 65.5763 191.544 65.2456 191.544C64.755 191.544 64.339 191.635 63.9976 191.816C63.6563 191.997 63.395 192.275 63.2136 192.648C63.0323 193.021 62.9203 193.501 62.8776 194.088ZM72.7473 199.192C72.4379 199.192 72.1286 199.155 71.8193 199.08C71.5099 199.005 71.2219 198.883 70.9553 198.712C70.6886 198.541 70.4753 198.307 70.3153 198.008C70.1553 197.699 70.0753 197.315 70.0753 196.856C70.0753 196.28 70.2139 195.805 70.4913 195.432C70.7686 195.059 71.1526 194.771 71.6432 194.568C72.1446 194.355 72.7366 194.211 73.4193 194.136C74.1019 194.051 74.8433 194.008 75.6433 194.008V193.048C75.6433 192.739 75.5899 192.472 75.4833 192.248C75.3766 192.024 75.1846 191.853 74.9073 191.736C74.6406 191.608 74.2566 191.544 73.7552 191.544C73.2753 191.544 72.8913 191.608 72.6033 191.736C72.3259 191.853 72.1286 192.008 72.0113 192.2C71.9046 192.392 71.8513 192.605 71.8513 192.84V193.08H70.4913C70.4806 193.027 70.4753 192.973 70.4753 192.92C70.4753 192.867 70.4753 192.803 70.4753 192.728C70.4753 192.216 70.6139 191.789 70.8913 191.448C71.1793 191.096 71.5793 190.835 72.0913 190.664C72.6033 190.483 73.1899 190.392 73.8513 190.392C74.5553 190.392 75.1419 190.493 75.6113 190.696C76.0913 190.899 76.4486 191.187 76.6833 191.56C76.9286 191.933 77.0513 192.381 77.0513 192.904V197.464C77.0513 197.667 77.0993 197.811 77.1953 197.896C77.2913 197.971 77.4086 198.008 77.5473 198.008H78.1713V198.936C78.0219 199 77.8566 199.053 77.6753 199.096C77.4939 199.149 77.2859 199.176 77.0513 199.176C76.7739 199.176 76.5446 199.117 76.3633 199C76.1819 198.893 76.0433 198.744 75.9473 198.552C75.8513 198.349 75.7873 198.125 75.7553 197.88H75.6433C75.4513 198.147 75.2059 198.381 74.9073 198.584C74.6193 198.776 74.2939 198.925 73.9313 199.032C73.5686 199.139 73.1739 199.192 72.7473 199.192ZM73.0993 198.008C73.4406 198.008 73.7606 197.955 74.0593 197.848C74.3686 197.741 74.6406 197.592 74.8753 197.4C75.1099 197.197 75.2966 196.957 75.4353 196.68C75.5739 196.403 75.6433 196.099 75.6433 195.768V195.064C74.7793 195.064 74.0433 195.112 73.4353 195.208C72.8273 195.304 72.3579 195.475 72.0273 195.72C71.7073 195.965 71.5473 196.312 71.5473 196.76C71.5473 197.048 71.6113 197.283 71.7393 197.464C71.8673 197.645 72.0486 197.784 72.2833 197.88C72.5179 197.965 72.7899 198.008 73.0993 198.008ZM79.354 199V190.584H80.49L80.618 191.976H80.73C80.8153 191.709 80.9327 191.459 81.082 191.224C81.2313 190.979 81.434 190.781 81.69 190.632C81.946 190.472 82.2607 190.392 82.634 190.392C82.794 190.392 82.938 190.408 83.066 190.44C83.2047 190.461 83.306 190.488 83.37 190.52V191.816H82.842C82.4793 191.816 82.1647 191.88 81.898 192.008C81.642 192.125 81.4287 192.296 81.258 192.52C81.0873 192.744 80.9593 193.011 80.874 193.32C80.7993 193.629 80.762 193.96 80.762 194.312V199H79.354ZM87.7103 199.192C86.8996 199.192 86.2169 199.037 85.6623 198.728C85.1183 198.408 84.7023 197.923 84.4143 197.272C84.1369 196.611 83.9983 195.784 83.9983 194.792C83.9983 193.8 84.1369 192.979 84.4143 192.328C84.7023 191.677 85.1236 191.192 85.6783 190.872C86.2436 190.552 86.9369 190.392 87.7583 190.392C88.3343 190.392 88.8303 190.467 89.2463 190.616C89.6729 190.765 90.0249 190.984 90.3023 191.272C90.5796 191.56 90.7823 191.907 90.9103 192.312C91.0489 192.717 91.1183 193.181 91.1183 193.704H89.6943C89.6943 193.213 89.6249 192.813 89.4863 192.504C89.3583 192.184 89.1503 191.949 88.8623 191.8C88.5743 191.64 88.1956 191.56 87.7263 191.56C87.2569 191.56 86.8516 191.667 86.5103 191.88C86.1689 192.083 85.9076 192.408 85.7263 192.856C85.5449 193.304 85.4543 193.896 85.4543 194.632V194.968C85.4543 195.661 85.5396 196.237 85.7103 196.696C85.8916 197.155 86.1529 197.491 86.4943 197.704C86.8356 197.917 87.2516 198.024 87.7423 198.024C88.2223 198.024 88.6063 197.939 88.8943 197.768C89.1929 197.597 89.4063 197.352 89.5343 197.032C89.6729 196.712 89.7423 196.328 89.7423 195.88H91.1183C91.1183 196.349 91.0489 196.787 90.9103 197.192C90.7823 197.597 90.5796 197.949 90.3023 198.248C90.0249 198.547 89.6729 198.781 89.2463 198.952C88.8196 199.112 88.3076 199.192 87.7103 199.192ZM92.8071 199V187.432H94.2151V191.64H94.3271C94.5405 191.352 94.7805 191.117 95.0471 190.936C95.3138 190.755 95.6071 190.621 95.9271 190.536C96.2578 190.44 96.6151 190.392 96.9991 190.392C97.5325 190.392 97.9965 190.483 98.3911 190.664C98.7965 190.845 99.1111 191.139 99.3351 191.544C99.5698 191.949 99.6871 192.499 99.6871 193.192V199H98.2791V193.384C98.2791 193.032 98.2311 192.744 98.1351 192.52C98.0498 192.296 97.9271 192.12 97.7671 191.992C97.6178 191.864 97.4311 191.773 97.2071 191.72C96.9938 191.667 96.7538 191.64 96.4871 191.64C96.0925 191.64 95.7191 191.736 95.3671 191.928C95.0151 192.109 94.7325 192.381 94.5191 192.744C94.3165 193.096 94.2151 193.533 94.2151 194.056V199H92.8071ZM107.279 199.192C106.969 199.192 106.66 199.155 106.351 199.08C106.041 199.005 105.753 198.883 105.487 198.712C105.22 198.541 105.007 198.307 104.847 198.008C104.687 197.699 104.607 197.315 104.607 196.856C104.607 196.28 104.745 195.805 105.023 195.432C105.3 195.059 105.684 194.771 106.174 194.568C106.676 194.355 107.268 194.211 107.951 194.136C108.633 194.051 109.375 194.008 110.175 194.008V193.048C110.175 192.739 110.121 192.472 110.015 192.248C109.908 192.024 109.716 191.853 109.439 191.736C109.172 191.608 108.788 191.544 108.286 191.544C107.807 191.544 107.423 191.608 107.135 191.736C106.857 191.853 106.66 192.008 106.543 192.2C106.436 192.392 106.383 192.605 106.383 192.84V193.08H105.023C105.012 193.027 105.007 192.973 105.007 192.92C105.007 192.867 105.007 192.803 105.007 192.728C105.007 192.216 105.145 191.789 105.423 191.448C105.711 191.096 106.111 190.835 106.623 190.664C107.135 190.483 107.721 190.392 108.383 190.392C109.087 190.392 109.673 190.493 110.143 190.696C110.623 190.899 110.98 191.187 111.215 191.56C111.46 191.933 111.583 192.381 111.583 192.904V197.464C111.583 197.667 111.631 197.811 111.727 197.896C111.823 197.971 111.94 198.008 112.079 198.008H112.703V198.936C112.553 199 112.388 199.053 112.207 199.096C112.025 199.149 111.817 199.176 111.583 199.176C111.305 199.176 111.076 199.117 110.895 199C110.713 198.893 110.575 198.744 110.479 198.552C110.383 198.349 110.319 198.125 110.287 197.88H110.175C109.983 198.147 109.737 198.381 109.439 198.584C109.151 198.776 108.825 198.925 108.463 199.032C108.1 199.139 107.705 199.192 107.279 199.192ZM107.631 198.008C107.972 198.008 108.292 197.955 108.591 197.848C108.9 197.741 109.172 197.592 109.407 197.4C109.641 197.197 109.828 196.957 109.967 196.68C110.105 196.403 110.175 196.099 110.175 195.768V195.064C109.311 195.064 108.575 195.112 107.967 195.208C107.359 195.304 106.889 195.475 106.559 195.72C106.239 195.965 106.079 196.312 106.079 196.76C106.079 197.048 106.143 197.283 106.271 197.464C106.399 197.645 106.58 197.784 106.815 197.88C107.049 197.965 107.321 198.008 107.631 198.008ZM120.173 199.192C119.597 199.192 119.09 199.133 118.653 199.016C118.216 198.899 117.853 198.728 117.565 198.504C117.277 198.28 117.058 198.013 116.909 197.704C116.76 197.395 116.685 197.043 116.685 196.648C116.685 196.595 116.685 196.547 116.685 196.504C116.685 196.451 116.69 196.408 116.701 196.376H118.093C118.082 196.419 118.077 196.456 118.077 196.488C118.077 196.52 118.077 196.552 118.077 196.584C118.088 196.957 118.184 197.251 118.365 197.464C118.557 197.677 118.818 197.827 119.149 197.912C119.48 197.997 119.848 198.04 120.253 198.04C120.605 198.04 120.93 197.997 121.229 197.912C121.528 197.816 121.762 197.677 121.933 197.496C122.114 197.304 122.205 197.064 122.205 196.776C122.205 196.424 122.088 196.157 121.853 195.976C121.629 195.784 121.33 195.635 120.957 195.528C120.584 195.421 120.194 195.309 119.789 195.192C119.448 195.096 119.106 194.989 118.765 194.872C118.424 194.755 118.114 194.611 117.837 194.44C117.57 194.269 117.352 194.051 117.181 193.784C117.021 193.507 116.941 193.16 116.941 192.744C116.941 192.371 117.016 192.04 117.165 191.752C117.325 191.464 117.549 191.219 117.837 191.016C118.125 190.813 118.472 190.664 118.877 190.568C119.293 190.461 119.752 190.408 120.253 190.408C120.786 190.408 121.25 190.467 121.645 190.584C122.05 190.701 122.386 190.867 122.653 191.08C122.92 191.293 123.117 191.539 123.245 191.816C123.373 192.083 123.437 192.371 123.437 192.68C123.437 192.744 123.437 192.808 123.437 192.872C123.437 192.925 123.432 192.968 123.421 193H122.045V192.824C122.045 192.611 121.986 192.408 121.869 192.216C121.762 192.013 121.57 191.853 121.293 191.736C121.026 191.608 120.653 191.544 120.173 191.544C119.864 191.544 119.597 191.571 119.373 191.624C119.149 191.667 118.962 191.741 118.813 191.848C118.664 191.944 118.552 192.061 118.477 192.2C118.402 192.328 118.365 192.477 118.365 192.648C118.365 192.925 118.456 193.139 118.637 193.288C118.818 193.437 119.058 193.56 119.357 193.656C119.666 193.752 119.997 193.859 120.349 193.976C120.722 194.083 121.101 194.195 121.485 194.312C121.88 194.419 122.237 194.557 122.557 194.728C122.888 194.899 123.149 195.133 123.341 195.432C123.544 195.72 123.645 196.104 123.645 196.584C123.645 197.032 123.56 197.421 123.389 197.752C123.218 198.083 122.973 198.355 122.653 198.568C122.344 198.781 121.976 198.936 121.549 199.032C121.133 199.139 120.674 199.192 120.173 199.192ZM127.353 199.192C126.916 199.192 126.575 199.112 126.329 198.952C126.084 198.781 125.908 198.563 125.801 198.296C125.695 198.019 125.641 197.725 125.641 197.416V191.768H124.553V190.584H125.673L125.929 188.232H127.049V190.584H128.633V191.768H127.049V197.208C127.049 197.475 127.097 197.677 127.193 197.816C127.289 197.944 127.471 198.008 127.737 198.008H128.633V198.936C128.527 198.989 128.399 199.032 128.249 199.064C128.1 199.096 127.945 199.123 127.785 199.144C127.636 199.176 127.492 199.192 127.353 199.192ZM133.591 199.192C132.738 199.192 132.018 199.037 131.431 198.728C130.855 198.408 130.413 197.923 130.103 197.272C129.805 196.621 129.655 195.795 129.655 194.792C129.655 193.779 129.805 192.952 130.103 192.312C130.413 191.661 130.855 191.181 131.431 190.872C132.018 190.552 132.738 190.392 133.591 190.392C134.445 190.392 135.159 190.552 135.735 190.872C136.322 191.181 136.765 191.661 137.063 192.312C137.362 192.952 137.511 193.779 137.511 194.792C137.511 195.795 137.362 196.621 137.063 197.272C136.765 197.923 136.322 198.408 135.735 198.728C135.159 199.037 134.445 199.192 133.591 199.192ZM133.591 198.008C134.135 198.008 134.589 197.901 134.951 197.688C135.314 197.475 135.586 197.144 135.767 196.696C135.959 196.237 136.055 195.661 136.055 194.968V194.616C136.055 193.912 135.959 193.336 135.767 192.888C135.586 192.44 135.314 192.109 134.951 191.896C134.589 191.683 134.135 191.576 133.591 191.576C133.047 191.576 132.589 191.683 132.215 191.896C131.853 192.109 131.581 192.44 131.399 192.888C131.218 193.336 131.127 193.912 131.127 194.616V194.968C131.127 195.661 131.218 196.237 131.399 196.696C131.581 197.144 131.853 197.475 132.215 197.688C132.589 197.901 133.047 198.008 133.591 198.008ZM139.26 201.768V190.584H140.38L140.524 191.784H140.636C140.924 191.315 141.292 190.968 141.74 190.744C142.188 190.509 142.695 190.392 143.26 190.392C143.964 190.392 144.562 190.547 145.052 190.856C145.543 191.165 145.922 191.651 146.188 192.312C146.455 192.963 146.588 193.811 146.588 194.856C146.588 195.837 146.45 196.653 146.172 197.304C145.906 197.944 145.527 198.419 145.036 198.728C144.546 199.037 143.975 199.192 143.324 199.192C142.962 199.192 142.62 199.149 142.3 199.064C141.98 198.979 141.692 198.845 141.436 198.664C141.18 198.472 140.956 198.232 140.764 197.944H140.668V201.768H139.26ZM142.876 197.96C143.399 197.96 143.826 197.859 144.156 197.656C144.487 197.443 144.732 197.117 144.892 196.68C145.052 196.232 145.132 195.661 145.132 194.968V194.632C145.132 193.896 145.047 193.309 144.876 192.872C144.706 192.424 144.455 192.104 144.124 191.912C143.804 191.72 143.404 191.624 142.924 191.624C142.402 191.624 141.97 191.741 141.628 191.976C141.298 192.2 141.052 192.541 140.892 193C140.743 193.459 140.668 194.019 140.668 194.68V194.92C140.668 195.507 140.722 195.997 140.828 196.392C140.946 196.776 141.106 197.085 141.308 197.32C141.522 197.555 141.762 197.72 142.028 197.816C142.295 197.912 142.578 197.96 142.876 197.96ZM148.658 199V197.32H150.226V199H148.658ZM153.096 199V197.32H154.664V199H153.096ZM157.533 199V197.32H159.101V199H157.533Z" fill="#5C554C"/>
<path d="M40.84 97V95.08L51.52 80.08H41.59V76.42H58.27V78.34L47.59 93.31H58.51V97H40.84ZM66.6196 97.36C65.0196 97.36 63.7496 96.92 62.8096 96.04C61.8696 95.16 61.3996 93.74 61.3996 91.78V81.22H65.5696V91.09C65.5696 91.61 65.6296 92.05 65.7496 92.41C65.8696 92.75 66.0396 93.03 66.2596 93.25C66.4996 93.47 66.7896 93.63 67.1296 93.73C67.4696 93.83 67.8496 93.88 68.2696 93.88C68.8896 93.88 69.4496 93.73 69.9496 93.43C70.4496 93.13 70.8396 92.72 71.1196 92.2C71.3996 91.66 71.5396 91.06 71.5396 90.4V81.22H75.7096V97H72.2896L71.9896 94.84H71.7796C71.3996 95.34 70.9496 95.78 70.4296 96.16C69.9296 96.54 69.3596 96.83 68.7196 97.03C68.0796 97.25 67.3796 97.36 66.6196 97.36ZM63.7396 78.82V75.31H67.2796V78.82H63.7396ZM69.9496 78.82V75.31H73.5196V78.82H69.9496ZM82.1172 102.64C81.4172 102.64 80.7572 102.49 80.1372 102.19C79.5172 101.91 79.0172 101.49 78.6372 100.93C78.2572 100.37 78.0672 99.7 78.0672 98.92C78.0672 98.04 78.3172 97.34 78.8172 96.82C79.3372 96.28 79.9172 95.88 80.5572 95.62C80.0972 95.36 79.7172 95.02 79.4172 94.6C79.1372 94.18 78.9972 93.69 78.9972 93.13C78.9972 92.35 79.2772 91.72 79.8372 91.24C80.4172 90.74 81.0772 90.42 81.8172 90.28C81.0772 89.82 80.4972 89.24 80.0772 88.54C79.6772 87.82 79.4772 87.02 79.4772 86.14C79.4772 85 79.7572 84.04 80.3172 83.26C80.8972 82.48 81.7172 81.89 82.7772 81.49C83.8572 81.07 85.1272 80.86 86.5872 80.86C87.1672 80.86 87.7072 80.89 88.2072 80.95C88.7272 81.01 89.1972 81.11 89.6172 81.25C90.3572 80.81 90.8572 80.33 91.1172 79.81C91.3972 79.27 91.5472 78.84 91.5672 78.52H95.4372C95.4372 79.26 95.2972 79.9 95.0172 80.44C94.7572 80.98 94.3772 81.43 93.8772 81.79C93.3772 82.13 92.7772 82.38 92.0772 82.54C92.5972 82.98 92.9972 83.51 93.2772 84.13C93.5572 84.75 93.6972 85.42 93.6972 86.14C93.6972 87.26 93.4272 88.22 92.8872 89.02C92.3472 89.8 91.5772 90.4 90.5772 90.82C89.5972 91.24 88.4172 91.45 87.0372 91.45H84.6372C84.1572 91.45 83.7972 91.54 83.5572 91.72C83.3172 91.88 83.1972 92.12 83.1972 92.44C83.1972 92.7 83.2972 92.93 83.4972 93.13C83.7172 93.31 84.0672 93.4 84.5472 93.4H91.1172C92.4372 93.4 93.4872 93.81 94.2672 94.63C95.0672 95.43 95.4672 96.46 95.4672 97.72C95.4672 98.68 95.2172 99.53 94.7172 100.27C94.2172 101.01 93.5272 101.59 92.6472 102.01C91.7672 102.43 90.7572 102.64 89.6172 102.64H82.1172ZM83.8572 99.85H89.4072C89.7672 99.85 90.0872 99.78 90.3672 99.64C90.6472 99.52 90.8672 99.34 91.0272 99.1C91.1872 98.88 91.2672 98.62 91.2672 98.32C91.2672 97.8 91.1072 97.41 90.7872 97.15C90.4672 96.89 90.0672 96.76 89.5872 96.76H83.8572C83.3772 96.76 82.9772 96.9 82.6572 97.18C82.3572 97.46 82.2072 97.83 82.2072 98.29C82.2072 98.75 82.3572 99.12 82.6572 99.4C82.9772 99.7 83.3772 99.85 83.8572 99.85ZM86.5872 88.75C87.5672 88.75 88.3072 88.53 88.8072 88.09C89.3272 87.63 89.5872 86.98 89.5872 86.14C89.5872 85.3 89.3272 84.66 88.8072 84.22C88.3072 83.76 87.5672 83.53 86.5872 83.53C85.6272 83.53 84.8872 83.76 84.3672 84.22C83.8672 84.66 83.6172 85.3 83.6172 86.14C83.6172 86.68 83.7272 87.15 83.9472 87.55C84.1672 87.95 84.4972 88.25 84.9372 88.45C85.3772 88.65 85.9272 88.75 86.5872 88.75ZM97.7598 97V75.31H101.93V97H97.7598ZM108.038 102.64C107.298 102.64 106.678 102.58 106.178 102.46C105.698 102.36 105.388 102.29 105.248 102.25V99.43H107.078C107.578 99.43 108.028 99.31 108.428 99.07C108.828 98.85 109.178 98.55 109.478 98.17C109.778 97.81 109.998 97.42 110.138 97L103.958 81.22H108.368L111.068 88.51C111.188 88.85 111.318 89.28 111.458 89.8C111.618 90.3 111.778 90.83 111.938 91.39C112.098 91.93 112.228 92.41 112.328 92.83H112.478C112.558 92.55 112.648 92.22 112.748 91.84C112.848 91.46 112.948 91.07 113.048 90.67C113.168 90.27 113.278 89.89 113.378 89.53C113.498 89.15 113.598 88.82 113.678 88.54L115.928 81.22H120.128L114.758 96.25C114.458 97.13 114.108 97.95 113.708 98.71C113.328 99.49 112.878 100.17 112.358 100.75C111.838 101.35 111.218 101.81 110.498 102.13C109.798 102.47 108.978 102.64 108.038 102.64Z" fill="#B87648"/>
</svg>
