<svg width="393" height="852" viewBox="0 0 393 852" fill="none" xmlns="http://www.w3.org/2000/svg">
<rect width="393" height="852" fill="#191919"/>
<path d="M43.6 159L40.198 146.652H42.34L44.446 154.788C44.482 154.92 44.524 155.1 44.572 155.328C44.62 155.556 44.662 155.796 44.698 156.048C44.746 156.288 44.788 156.51 44.824 156.714H44.932C44.968 156.558 44.998 156.39 45.022 156.21C45.046 156.03 45.076 155.85 45.112 155.67C45.148 155.49 45.178 155.322 45.202 155.166C45.238 155.01 45.262 154.884 45.274 154.788L47.218 146.652H49.81L51.772 154.788C51.808 154.92 51.85 155.1 51.898 155.328C51.946 155.556 51.988 155.796 52.024 156.048C52.072 156.288 52.114 156.51 52.15 156.714H52.258C52.282 156.57 52.312 156.408 52.348 156.228C52.384 156.048 52.42 155.874 52.456 155.706C52.492 155.526 52.528 155.358 52.564 155.202C52.612 155.046 52.648 154.908 52.672 154.788L54.778 146.652H56.686L53.284 159H50.926L48.856 150.756C48.82 150.576 48.778 150.372 48.73 150.144C48.682 149.904 48.634 149.664 48.586 149.424C48.55 149.172 48.52 148.956 48.496 148.776H48.406C48.382 148.968 48.352 149.19 48.316 149.442C48.28 149.694 48.238 149.94 48.19 150.18C48.142 150.408 48.1 150.6 48.064 150.756L46.03 159H43.6ZM58.0986 159V145.986H59.9706V150.666H60.0966C60.3246 150.378 60.5826 150.138 60.8706 149.946C61.1586 149.742 61.4826 149.586 61.8426 149.478C62.2026 149.37 62.5986 149.316 63.0306 149.316C63.6306 149.316 64.1586 149.424 64.6146 149.64C65.0706 149.844 65.4246 150.18 65.6766 150.648C65.9406 151.116 66.0726 151.746 66.0726 152.538V159H64.2006V152.826C64.2006 152.466 64.1526 152.166 64.0566 151.926C63.9726 151.686 63.8466 151.494 63.6786 151.35C63.5106 151.206 63.3126 151.104 63.0846 151.044C62.8566 150.984 62.6046 150.954 62.3286 150.954C61.8966 150.954 61.5006 151.056 61.1406 151.26C60.7926 151.464 60.5106 151.752 60.2946 152.124C60.0786 152.496 59.9706 152.94 59.9706 153.456V159H58.0986ZM72.3409 159.216C71.3689 159.216 70.5529 159.042 69.8929 158.694C69.2449 158.334 68.7529 157.788 68.4169 157.056C68.0809 156.324 67.9129 155.394 67.9129 154.266C67.9129 153.126 68.0809 152.196 68.4169 151.476C68.7529 150.744 69.2509 150.204 69.9109 149.856C70.5709 149.496 71.3929 149.316 72.3769 149.316C73.2769 149.316 74.0269 149.49 74.6269 149.838C75.2389 150.174 75.7009 150.69 76.0129 151.386C76.3249 152.082 76.4809 152.958 76.4809 154.014V154.734H69.8389C69.8629 155.406 69.9649 155.97 70.1449 156.426C70.3249 156.87 70.5949 157.2 70.9549 157.416C71.3269 157.62 71.7949 157.722 72.3589 157.722C72.7069 157.722 73.0189 157.68 73.2949 157.596C73.5709 157.5 73.8049 157.368 73.9969 157.2C74.1889 157.02 74.3389 156.81 74.4469 156.57C74.5549 156.318 74.6089 156.036 74.6089 155.724H76.4449C76.4449 156.288 76.3489 156.786 76.1569 157.218C75.9649 157.65 75.6829 158.016 75.3109 158.316C74.9509 158.604 74.5189 158.826 74.0149 158.982C73.5109 159.138 72.9529 159.216 72.3409 159.216ZM69.8749 153.366H74.5189C74.5189 152.898 74.4649 152.508 74.3569 152.196C74.2609 151.872 74.1169 151.608 73.9249 151.404C73.7329 151.2 73.5049 151.056 73.2409 150.972C72.9769 150.876 72.6769 150.828 72.3409 150.828C71.8369 150.828 71.4049 150.918 71.0449 151.098C70.6969 151.278 70.4269 151.56 70.2349 151.944C70.0429 152.316 69.9229 152.79 69.8749 153.366ZM78.3837 159V149.532H79.9317L80.0937 151.062H80.2017C80.3097 150.762 80.4477 150.48 80.6157 150.216C80.7957 149.952 81.0237 149.736 81.2997 149.568C81.5877 149.4 81.9357 149.316 82.3437 149.316C82.5357 149.316 82.7037 149.334 82.8477 149.37C83.0037 149.406 83.1237 149.436 83.2077 149.46V151.224H82.5777C82.1937 151.224 81.8517 151.284 81.5517 151.404C81.2637 151.524 81.0177 151.704 80.8137 151.944C80.6217 152.172 80.4777 152.454 80.3817 152.79C80.2977 153.126 80.2557 153.504 80.2557 153.924V159H78.3837ZM88.3546 159.216C87.3826 159.216 86.5666 159.042 85.9066 158.694C85.2586 158.334 84.7666 157.788 84.4306 157.056C84.0946 156.324 83.9266 155.394 83.9266 154.266C83.9266 153.126 84.0946 152.196 84.4306 151.476C84.7666 150.744 85.2646 150.204 85.9246 149.856C86.5846 149.496 87.4066 149.316 88.3906 149.316C89.2906 149.316 90.0406 149.49 90.6406 149.838C91.2526 150.174 91.7146 150.69 92.0266 151.386C92.3386 152.082 92.4946 152.958 92.4946 154.014V154.734H85.8526C85.8766 155.406 85.9786 155.97 86.1586 156.426C86.3386 156.87 86.6086 157.2 86.9686 157.416C87.3406 157.62 87.8086 157.722 88.3726 157.722C88.7206 157.722 89.0326 157.68 89.3086 157.596C89.5846 157.5 89.8186 157.368 90.0106 157.2C90.2026 157.02 90.3526 156.81 90.4606 156.57C90.5686 156.318 90.6226 156.036 90.6226 155.724H92.4586C92.4586 156.288 92.3626 156.786 92.1706 157.218C91.9786 157.65 91.6966 158.016 91.3246 158.316C90.9646 158.604 90.5326 158.826 90.0286 158.982C89.5246 159.138 88.9666 159.216 88.3546 159.216ZM85.8886 153.366H90.5326C90.5326 152.898 90.4786 152.508 90.3706 152.196C90.2746 151.872 90.1306 151.608 89.9386 151.404C89.7466 151.2 89.5186 151.056 89.2546 150.972C88.9906 150.876 88.6906 150.828 88.3546 150.828C87.8506 150.828 87.4186 150.918 87.0586 151.098C86.7106 151.278 86.4406 151.56 86.2486 151.944C86.0566 152.316 85.9366 152.79 85.8886 153.366ZM101.581 159.216C100.921 159.216 100.339 159.144 99.8348 159C99.3308 158.856 98.9108 158.658 98.5748 158.406C98.2388 158.154 97.9808 157.854 97.8008 157.506C97.6328 157.146 97.5488 156.75 97.5488 156.318C97.5488 156.258 97.5488 156.204 97.5488 156.156C97.5608 156.108 97.5668 156.066 97.5668 156.03H99.4208C99.4208 156.066 99.4208 156.102 99.4208 156.138C99.4208 156.162 99.4208 156.192 99.4208 156.228C99.4208 156.6 99.5228 156.9 99.7268 157.128C99.9308 157.344 100.201 157.5 100.537 157.596C100.885 157.68 101.263 157.722 101.671 157.722C102.031 157.722 102.361 157.68 102.661 157.596C102.973 157.5 103.225 157.362 103.417 157.182C103.621 157.002 103.723 156.774 103.723 156.498C103.723 156.138 103.597 155.862 103.345 155.67C103.093 155.478 102.763 155.328 102.355 155.22C101.947 155.1 101.521 154.974 101.077 154.842C100.681 154.734 100.285 154.62 99.8888 154.5C99.5048 154.368 99.1568 154.2 98.8448 153.996C98.5328 153.792 98.2808 153.534 98.0888 153.222C97.8968 152.91 97.8008 152.52 97.8008 152.052C97.8008 151.608 97.8968 151.218 98.0888 150.882C98.2808 150.546 98.5448 150.264 98.8808 150.036C99.2288 149.808 99.6368 149.634 100.105 149.514C100.585 149.394 101.107 149.334 101.671 149.334C102.259 149.334 102.781 149.4 103.237 149.532C103.693 149.652 104.077 149.826 104.389 150.054C104.713 150.282 104.959 150.558 105.127 150.882C105.295 151.194 105.379 151.53 105.379 151.89C105.379 151.962 105.373 152.04 105.361 152.124C105.361 152.196 105.361 152.244 105.361 152.268H103.525V152.106C103.525 151.866 103.459 151.65 103.327 151.458C103.195 151.266 102.985 151.11 102.697 150.99C102.421 150.87 102.049 150.81 101.581 150.81C101.269 150.81 100.993 150.84 100.753 150.9C100.513 150.948 100.315 151.02 100.159 151.116C100.003 151.212 99.8828 151.326 99.7988 151.458C99.7268 151.59 99.6908 151.74 99.6908 151.908C99.6908 152.184 99.7868 152.4 99.9788 152.556C100.183 152.7 100.447 152.826 100.771 152.934C101.095 153.03 101.443 153.138 101.815 153.258C102.247 153.378 102.685 153.504 103.129 153.636C103.573 153.756 103.981 153.912 104.353 154.104C104.737 154.296 105.043 154.56 105.271 154.896C105.511 155.232 105.631 155.682 105.631 156.246C105.631 156.762 105.529 157.212 105.325 157.596C105.121 157.98 104.833 158.292 104.461 158.532C104.101 158.76 103.675 158.928 103.183 159.036C102.691 159.156 102.157 159.216 101.581 159.216ZM107.528 159V145.986H109.4V150.666H109.526C109.754 150.378 110.012 150.138 110.3 149.946C110.588 149.742 110.912 149.586 111.272 149.478C111.632 149.37 112.028 149.316 112.46 149.316C113.06 149.316 113.588 149.424 114.044 149.64C114.5 149.844 114.854 150.18 115.106 150.648C115.37 151.116 115.502 151.746 115.502 152.538V159H113.63V152.826C113.63 152.466 113.582 152.166 113.486 151.926C113.402 151.686 113.276 151.494 113.108 151.35C112.94 151.206 112.742 151.104 112.514 151.044C112.286 150.984 112.034 150.954 111.758 150.954C111.326 150.954 110.93 151.056 110.57 151.26C110.222 151.464 109.94 151.752 109.724 152.124C109.508 152.496 109.4 152.94 109.4 153.456V159H107.528ZM121.879 159.216C120.895 159.216 120.061 159.042 119.377 158.694C118.705 158.334 118.195 157.788 117.847 157.056C117.511 156.324 117.343 155.394 117.343 154.266C117.343 153.126 117.511 152.196 117.847 151.476C118.195 150.744 118.705 150.204 119.377 149.856C120.061 149.496 120.895 149.316 121.879 149.316C122.887 149.316 123.727 149.496 124.399 149.856C125.071 150.204 125.575 150.744 125.911 151.476C126.259 152.196 126.433 153.126 126.433 154.266C126.433 155.394 126.259 156.324 125.911 157.056C125.575 157.788 125.071 158.334 124.399 158.694C123.727 159.042 122.887 159.216 121.879 159.216ZM121.879 157.668C122.479 157.668 122.971 157.554 123.355 157.326C123.739 157.086 124.021 156.726 124.201 156.246C124.393 155.766 124.489 155.16 124.489 154.428V154.104C124.489 153.372 124.393 152.766 124.201 152.286C124.021 151.806 123.739 151.452 123.355 151.224C122.971 150.984 122.479 150.864 121.879 150.864C121.291 150.864 120.805 150.984 120.421 151.224C120.037 151.452 119.749 151.806 119.557 152.286C119.377 152.766 119.287 153.372 119.287 154.104V154.428C119.287 155.16 119.377 155.766 119.557 156.246C119.749 156.726 120.037 157.086 120.421 157.326C120.805 157.554 121.291 157.668 121.879 157.668ZM131.311 159.216C130.399 159.216 129.661 158.976 129.097 158.496C128.533 158.004 128.251 157.17 128.251 155.994V149.532H130.123V155.706C130.123 156.066 130.165 156.366 130.249 156.606C130.345 156.846 130.477 157.038 130.645 157.182C130.813 157.326 131.011 157.428 131.239 157.488C131.467 157.548 131.719 157.578 131.995 157.578C132.427 157.578 132.817 157.476 133.165 157.272C133.525 157.056 133.813 156.762 134.029 156.39C134.245 156.006 134.353 155.568 134.353 155.076V149.532H136.225V159H134.695L134.533 157.65H134.407C134.179 157.998 133.909 158.286 133.597 158.514C133.285 158.742 132.937 158.916 132.553 159.036C132.181 159.156 131.767 159.216 131.311 159.216ZM138.642 159V145.986H140.514V159H138.642ZM146.189 159.216C145.421 159.216 144.755 159.042 144.191 158.694C143.627 158.346 143.189 157.806 142.877 157.074C142.577 156.342 142.427 155.394 142.427 154.23C142.427 153.09 142.583 152.16 142.895 151.44C143.207 150.72 143.639 150.186 144.191 149.838C144.743 149.49 145.379 149.316 146.099 149.316C146.519 149.316 146.909 149.364 147.269 149.46C147.629 149.556 147.947 149.706 148.223 149.91C148.511 150.114 148.751 150.372 148.943 150.684H149.069V145.986H150.941V159H149.411L149.231 157.704H149.105C148.793 158.208 148.379 158.586 147.863 158.838C147.359 159.09 146.801 159.216 146.189 159.216ZM146.711 157.596C147.263 157.596 147.707 157.476 148.043 157.236C148.391 156.984 148.649 156.624 148.817 156.156C148.985 155.676 149.069 155.094 149.069 154.41V154.158C149.069 153.582 149.015 153.09 148.907 152.682C148.799 152.274 148.643 151.944 148.439 151.692C148.235 151.428 147.989 151.236 147.701 151.116C147.413 150.996 147.089 150.936 146.729 150.936C146.177 150.936 145.727 151.05 145.379 151.278C145.031 151.494 144.773 151.836 144.605 152.304C144.449 152.772 144.371 153.378 144.371 154.122V154.446C144.371 155.19 144.455 155.796 144.623 156.264C144.791 156.72 145.043 157.056 145.379 157.272C145.727 157.488 146.171 157.596 146.711 157.596ZM156.398 159V158.01L163.454 148.38H156.866V146.652H166.442V147.642L159.35 157.272H166.604V159H156.398ZM171.442 159.216C170.53 159.216 169.792 158.976 169.228 158.496C168.664 158.004 168.382 157.17 168.382 155.994V149.532H170.254V155.706C170.254 156.066 170.296 156.366 170.38 156.606C170.476 156.846 170.608 157.038 170.776 157.182C170.944 157.326 171.142 157.428 171.37 157.488C171.598 157.548 171.85 157.578 172.126 157.578C172.558 157.578 172.948 157.476 173.296 157.272C173.656 157.056 173.944 156.762 174.16 156.39C174.376 156.006 174.484 155.568 174.484 155.076V149.532H176.356V159H174.826L174.664 157.65H174.538C174.31 157.998 174.04 158.286 173.728 158.514C173.416 158.742 173.068 158.916 172.684 159.036C172.312 159.156 171.898 159.216 171.442 159.216ZM169.75 147.822V146.004H171.514V147.822H169.75ZM173.296 147.822V146.004H175.078V147.822H173.296ZM180.356 162.276C179.924 162.276 179.516 162.186 179.132 162.006C178.76 161.826 178.46 161.568 178.232 161.232C178.004 160.896 177.89 160.488 177.89 160.008C177.89 159.48 178.034 159.054 178.322 158.73C178.622 158.394 178.97 158.142 179.366 157.974C179.078 157.842 178.844 157.65 178.664 157.398C178.496 157.146 178.412 156.858 178.412 156.534C178.412 156.09 178.574 155.73 178.898 155.454C179.222 155.178 179.6 154.998 180.032 154.914C179.612 154.638 179.282 154.29 179.042 153.87C178.814 153.45 178.7 152.976 178.7 152.448C178.7 151.812 178.85 151.266 179.15 150.81C179.45 150.342 179.894 149.976 180.482 149.712C181.082 149.448 181.808 149.316 182.66 149.316C183.032 149.316 183.38 149.346 183.704 149.406C184.04 149.454 184.34 149.526 184.604 149.622C185.024 149.406 185.324 149.148 185.504 148.848C185.684 148.536 185.792 148.248 185.828 147.984H187.664C187.664 148.38 187.58 148.74 187.412 149.064C187.256 149.376 187.034 149.64 186.746 149.856C186.47 150.06 186.134 150.204 185.738 150.288C186.038 150.564 186.26 150.888 186.404 151.26C186.56 151.62 186.638 152.016 186.638 152.448C186.638 153.072 186.494 153.618 186.206 154.086C185.918 154.554 185.48 154.92 184.892 155.184C184.316 155.448 183.602 155.58 182.75 155.58H181.274C180.986 155.58 180.752 155.64 180.572 155.76C180.404 155.88 180.32 156.06 180.32 156.3C180.32 156.504 180.404 156.672 180.572 156.804C180.74 156.936 180.962 157.002 181.238 157.002H185.234C185.93 157.002 186.506 157.236 186.962 157.704C187.418 158.16 187.646 158.748 187.646 159.468C187.646 159.996 187.508 160.47 187.232 160.89C186.968 161.322 186.59 161.658 186.098 161.898C185.618 162.15 185.06 162.276 184.424 162.276H180.356ZM180.968 160.89H184.406C184.658 160.89 184.886 160.842 185.09 160.746C185.294 160.65 185.456 160.512 185.576 160.332C185.696 160.164 185.756 159.972 185.756 159.756C185.756 159.396 185.642 159.114 185.414 158.91C185.198 158.706 184.928 158.604 184.604 158.604H180.968C180.632 158.604 180.35 158.718 180.122 158.946C179.894 159.162 179.78 159.432 179.78 159.756C179.78 160.092 179.888 160.362 180.104 160.566C180.332 160.782 180.62 160.89 180.968 160.89ZM182.678 154.23C183.386 154.23 183.914 154.074 184.262 153.762C184.61 153.438 184.784 153 184.784 152.448C184.784 151.884 184.61 151.452 184.262 151.152C183.914 150.84 183.386 150.684 182.678 150.684C181.97 150.684 181.442 150.84 181.094 151.152C180.746 151.452 180.572 151.884 180.572 152.448C180.572 152.808 180.644 153.126 180.788 153.402C180.944 153.666 181.178 153.87 181.49 154.014C181.814 154.158 182.21 154.23 182.678 154.23ZM189.091 159V145.986H190.963V159H189.091ZM194.406 162.276C194.046 162.276 193.746 162.246 193.506 162.186C193.266 162.138 193.116 162.108 193.056 162.096V160.746H193.956C194.22 160.746 194.484 160.686 194.748 160.566C195.024 160.446 195.27 160.254 195.486 159.99C195.702 159.726 195.882 159.396 196.026 159L192.336 149.532H194.298L196.134 154.248C196.218 154.464 196.308 154.734 196.404 155.058C196.512 155.382 196.614 155.712 196.71 156.048C196.818 156.384 196.908 156.684 196.98 156.948H197.07C197.13 156.768 197.19 156.564 197.25 156.336C197.322 156.096 197.394 155.85 197.466 155.598C197.538 155.346 197.61 155.106 197.682 154.878C197.754 154.638 197.814 154.434 197.862 154.266L199.392 149.532H201.3L198.096 158.64C197.916 159.144 197.718 159.618 197.502 160.062C197.286 160.506 197.034 160.89 196.746 161.214C196.47 161.55 196.14 161.808 195.756 161.988C195.372 162.18 194.922 162.276 194.406 162.276ZM206.352 159V145.986H208.224V159H206.352ZM214.674 159.216C213.69 159.216 212.856 159.042 212.172 158.694C211.5 158.334 210.99 157.788 210.642 157.056C210.306 156.324 210.138 155.394 210.138 154.266C210.138 153.126 210.306 152.196 210.642 151.476C210.99 150.744 211.5 150.204 212.172 149.856C212.856 149.496 213.69 149.316 214.674 149.316C215.682 149.316 216.522 149.496 217.194 149.856C217.866 150.204 218.37 150.744 218.706 151.476C219.054 152.196 219.228 153.126 219.228 154.266C219.228 155.394 219.054 156.324 218.706 157.056C218.37 157.788 217.866 158.334 217.194 158.694C216.522 159.042 215.682 159.216 214.674 159.216ZM214.674 157.668C215.274 157.668 215.766 157.554 216.15 157.326C216.534 157.086 216.816 156.726 216.996 156.246C217.188 155.766 217.284 155.16 217.284 154.428V154.104C217.284 153.372 217.188 152.766 216.996 152.286C216.816 151.806 216.534 151.452 216.15 151.224C215.766 150.984 215.274 150.864 214.674 150.864C214.086 150.864 213.6 150.984 213.216 151.224C212.832 151.452 212.544 151.806 212.352 152.286C212.172 152.766 212.082 153.372 212.082 154.104V154.428C212.082 155.16 212.172 155.766 212.352 156.246C212.544 156.726 212.832 157.086 213.216 157.326C213.6 157.554 214.086 157.668 214.674 157.668ZM225.168 159.216C224.184 159.216 223.35 159.042 222.666 158.694C221.994 158.334 221.484 157.788 221.136 157.056C220.8 156.324 220.632 155.394 220.632 154.266C220.632 153.126 220.8 152.196 221.136 151.476C221.484 150.744 221.994 150.204 222.666 149.856C223.35 149.496 224.184 149.316 225.168 149.316C226.176 149.316 227.016 149.496 227.688 149.856C228.36 150.204 228.864 150.744 229.2 151.476C229.548 152.196 229.722 153.126 229.722 154.266C229.722 155.394 229.548 156.324 229.2 157.056C228.864 157.788 228.36 158.334 227.688 158.694C227.016 159.042 226.176 159.216 225.168 159.216ZM225.168 157.668C225.768 157.668 226.26 157.554 226.644 157.326C227.028 157.086 227.31 156.726 227.49 156.246C227.682 155.766 227.778 155.16 227.778 154.428V154.104C227.778 153.372 227.682 152.766 227.49 152.286C227.31 151.806 227.028 151.452 226.644 151.224C226.26 150.984 225.768 150.864 225.168 150.864C224.58 150.864 224.094 150.984 223.71 151.224C223.326 151.452 223.038 151.806 222.846 152.286C222.666 152.766 222.576 153.372 222.576 154.104V154.428C222.576 155.16 222.666 155.766 222.846 156.246C223.038 156.726 223.326 157.086 223.71 157.326C224.094 157.554 224.58 157.668 225.168 157.668ZM231.63 159V145.986H233.502V153.852L237.228 149.532H239.442L236.238 153.204L239.622 159H237.462L235.032 154.572L233.502 156.084V159H231.63ZM244.29 155.688V154.752C244.29 154.272 244.362 153.876 244.506 153.564C244.65 153.24 244.836 152.958 245.064 152.718C245.292 152.478 245.532 152.262 245.784 152.07C246.048 151.878 246.288 151.68 246.504 151.476C246.732 151.272 246.918 151.044 247.062 150.792C247.218 150.528 247.296 150.222 247.296 149.874C247.296 149.73 247.272 149.562 247.224 149.37C247.188 149.166 247.098 148.968 246.954 148.776C246.822 148.584 246.618 148.428 246.342 148.308C246.066 148.176 245.694 148.11 245.226 148.11C244.734 148.11 244.338 148.188 244.038 148.344C243.738 148.5 243.51 148.692 243.354 148.92C243.21 149.148 243.114 149.382 243.066 149.622C243.018 149.85 242.994 150.048 242.994 150.216C242.994 150.3 242.994 150.384 242.994 150.468C242.994 150.54 243 150.618 243.012 150.702H241.104C241.092 150.654 241.08 150.582 241.068 150.486C241.056 150.378 241.05 150.246 241.05 150.09C241.05 149.754 241.098 149.418 241.194 149.082C241.302 148.734 241.458 148.404 241.662 148.092C241.878 147.768 242.154 147.486 242.49 147.246C242.838 146.994 243.246 146.796 243.714 146.652C244.194 146.508 244.746 146.436 245.37 146.436C245.91 146.436 246.396 146.496 246.828 146.616C247.26 146.724 247.626 146.88 247.926 147.084C248.238 147.288 248.496 147.528 248.7 147.804C248.904 148.068 249.054 148.356 249.15 148.668C249.258 148.98 249.312 149.304 249.312 149.64C249.312 150.204 249.234 150.684 249.078 151.08C248.922 151.464 248.718 151.794 248.466 152.07C248.226 152.334 247.968 152.574 247.692 152.79C247.416 152.994 247.152 153.198 246.9 153.402C246.648 153.594 246.444 153.816 246.288 154.068C246.132 154.308 246.054 154.608 246.054 154.968V155.688H244.29ZM244.182 159V156.912H246.162V159H244.182Z" fill="#F5EFE6"/>
<path d="M43 202H350V348C350 352.418 346.418 356 342 356H51C46.5817 356 43 352.418 43 348V202Z" fill="#F5EFE6"/>
<path d="M56.4278 242V241.216L63.0838 232.336H56.8438V231.024H65.3398V231.808L58.6678 240.688H65.4838V242H56.4278ZM69.784 242.192C68.9734 242.192 68.3227 241.984 67.832 241.568C67.3414 241.152 67.096 240.427 67.096 239.392V233.584H68.504V239.2C68.504 239.552 68.5467 239.84 68.632 240.064C68.7174 240.288 68.84 240.464 69 240.592C69.16 240.72 69.3467 240.811 69.56 240.864C69.784 240.917 70.024 240.944 70.28 240.944C70.6854 240.944 71.0587 240.848 71.4 240.656C71.7414 240.464 72.0187 240.187 72.232 239.824C72.456 239.451 72.568 239.019 72.568 238.528V233.584H73.976V242H72.84L72.712 240.736H72.6C72.376 241.077 72.12 241.355 71.832 241.568C71.5547 241.781 71.24 241.936 70.888 242.032C70.5467 242.139 70.1787 242.192 69.784 242.192ZM68.328 231.936V230.464H69.752V231.936H68.328ZM71.384 231.936V230.464H72.808V231.936H71.384ZM76.1604 242V233.584H77.2964L77.4244 234.976H77.5364C77.6217 234.709 77.7391 234.459 77.8884 234.224C78.0377 233.979 78.2404 233.781 78.4964 233.632C78.7524 233.472 79.0671 233.392 79.4404 233.392C79.6004 233.392 79.7444 233.408 79.8724 233.44C80.0111 233.461 80.1124 233.488 80.1764 233.52V234.816H79.6484C79.2857 234.816 78.9711 234.88 78.7044 235.008C78.4484 235.125 78.2351 235.296 78.0644 235.52C77.8937 235.744 77.7657 236.011 77.6804 236.32C77.6057 236.629 77.5684 236.96 77.5684 237.312V242H76.1604ZM81.4729 232V230.432H82.8809V232H81.4729ZM81.4729 242V233.584H82.8809V242H81.4729ZM88.2666 242.192C87.456 242.192 86.7733 242.037 86.2186 241.728C85.6746 241.408 85.2586 240.923 84.9706 240.272C84.6933 239.611 84.5546 238.784 84.5546 237.792C84.5546 236.8 84.6933 235.979 84.9706 235.328C85.2586 234.677 85.68 234.192 86.2346 233.872C86.8 233.552 87.4933 233.392 88.3146 233.392C88.8906 233.392 89.3866 233.467 89.8026 233.616C90.2293 233.765 90.5813 233.984 90.8586 234.272C91.136 234.56 91.3386 234.907 91.4666 235.312C91.6053 235.717 91.6746 236.181 91.6746 236.704H90.2506C90.2506 236.213 90.1813 235.813 90.0426 235.504C89.9146 235.184 89.7066 234.949 89.4186 234.8C89.1306 234.64 88.752 234.56 88.2826 234.56C87.8133 234.56 87.408 234.667 87.0666 234.88C86.7253 235.083 86.464 235.408 86.2826 235.856C86.1013 236.304 86.0106 236.896 86.0106 237.632V237.968C86.0106 238.661 86.096 239.237 86.2666 239.696C86.448 240.155 86.7093 240.491 87.0506 240.704C87.392 240.917 87.808 241.024 88.2986 241.024C88.7786 241.024 89.1626 240.939 89.4506 240.768C89.7493 240.597 89.9626 240.352 90.0906 240.032C90.2293 239.712 90.2986 239.328 90.2986 238.88H91.6746C91.6746 239.349 91.6053 239.787 91.4666 240.192C91.3386 240.597 91.136 240.949 90.8586 241.248C90.5813 241.547 90.2293 241.781 89.8026 241.952C89.376 242.112 88.864 242.192 88.2666 242.192ZM93.3635 242V230.432H94.7715V234.64H94.8835C95.0969 234.352 95.3369 234.117 95.6035 233.936C95.8702 233.755 96.1635 233.621 96.4835 233.536C96.8142 233.44 97.1715 233.392 97.5555 233.392C98.0889 233.392 98.5529 233.483 98.9475 233.664C99.3529 233.845 99.6675 234.139 99.8915 234.544C100.126 234.949 100.244 235.499 100.244 236.192V242H98.8355V236.384C98.8355 236.032 98.7875 235.744 98.6915 235.52C98.6062 235.296 98.4835 235.12 98.3235 234.992C98.1742 234.864 97.9875 234.773 97.7635 234.72C97.5502 234.667 97.3102 234.64 97.0435 234.64C96.6489 234.64 96.2755 234.736 95.9235 234.928C95.5715 235.109 95.2889 235.381 95.0755 235.744C94.8729 236.096 94.7715 236.533 94.7715 237.056V242H93.3635ZM102.539 244.352V243.696C102.742 243.653 102.907 243.552 103.035 243.392C103.174 243.232 103.275 243.029 103.339 242.784C103.403 242.549 103.435 242.288 103.435 242H102.699V240.32H104.251V241.824C104.251 242.443 104.16 242.923 103.979 243.264C103.808 243.616 103.59 243.872 103.323 244.032C103.067 244.192 102.806 244.299 102.539 244.352ZM110.432 242V231.024H111.952V240.672H117.408V242H110.432ZM122.099 242.192C121.267 242.192 120.563 242.037 119.987 241.728C119.421 241.408 118.989 240.923 118.691 240.272C118.403 239.621 118.259 238.795 118.259 237.792C118.259 236.779 118.403 235.952 118.691 235.312C118.989 234.661 119.427 234.181 120.003 233.872C120.579 233.552 121.299 233.392 122.163 233.392C122.952 233.392 123.613 233.547 124.147 233.856C124.68 234.155 125.08 234.608 125.347 235.216C125.624 235.813 125.763 236.565 125.763 237.472V238.144H119.715C119.736 238.816 119.832 239.371 120.003 239.808C120.184 240.235 120.451 240.549 120.803 240.752C121.155 240.944 121.597 241.04 122.131 241.04C122.493 241.04 122.808 240.997 123.075 240.912C123.352 240.816 123.581 240.683 123.763 240.512C123.955 240.341 124.099 240.139 124.195 239.904C124.291 239.669 124.344 239.413 124.355 239.136H125.731C125.72 239.584 125.635 240 125.475 240.384C125.315 240.757 125.08 241.077 124.771 241.344C124.461 241.611 124.083 241.819 123.635 241.968C123.187 242.117 122.675 242.192 122.099 242.192ZM119.747 237.088H124.307C124.307 236.619 124.253 236.224 124.147 235.904C124.04 235.584 123.885 235.323 123.683 235.12C123.491 234.917 123.261 234.773 122.995 234.688C122.739 234.592 122.445 234.544 122.115 234.544C121.624 234.544 121.208 234.635 120.867 234.816C120.525 234.997 120.264 235.275 120.083 235.648C119.901 236.021 119.789 236.501 119.747 237.088ZM129.472 242.192C129.035 242.192 128.693 242.112 128.448 241.952C128.203 241.781 128.027 241.563 127.92 241.296C127.813 241.019 127.76 240.725 127.76 240.416V234.768H126.672V233.584H127.792L128.048 231.232H129.168V233.584H130.752V234.768H129.168V240.208C129.168 240.475 129.216 240.677 129.312 240.816C129.408 240.944 129.589 241.008 129.856 241.008H130.752V241.936C130.645 241.989 130.517 242.032 130.368 242.064C130.219 242.096 130.064 242.123 129.904 242.144C129.755 242.176 129.611 242.192 129.472 242.192ZM131.646 242V241.248L136.334 234.768H131.982V233.584H138.35V234.32L133.646 240.816H138.606V242H131.646ZM140.223 232V230.432H141.631V232H140.223ZM140.223 242V233.584H141.631V242H140.223ZM147.817 242.192C147.251 242.192 146.745 242.08 146.297 241.856C145.849 241.621 145.481 241.269 145.193 240.8H145.081L144.937 242H143.817V230.432H145.225V234.64H145.321C145.513 234.341 145.737 234.101 145.993 233.92C146.249 233.739 146.537 233.605 146.857 233.52C147.177 233.435 147.518 233.392 147.881 233.392C148.531 233.392 149.102 233.547 149.593 233.856C150.083 234.165 150.462 234.64 150.729 235.28C151.006 235.92 151.145 236.736 151.145 237.728C151.145 238.773 151.011 239.627 150.745 240.288C150.478 240.939 150.099 241.419 149.609 241.728C149.118 242.037 148.521 242.192 147.817 242.192ZM147.481 240.96C147.961 240.96 148.361 240.864 148.681 240.672C149.011 240.48 149.262 240.165 149.433 239.728C149.603 239.28 149.689 238.693 149.689 237.968V237.632C149.689 236.928 149.609 236.357 149.449 235.92C149.289 235.472 149.043 235.147 148.713 234.944C148.382 234.731 147.955 234.624 147.433 234.624C147.134 234.624 146.851 234.672 146.585 234.768C146.318 234.864 146.078 235.029 145.865 235.264C145.662 235.499 145.502 235.813 145.385 236.208C145.278 236.603 145.225 237.088 145.225 237.664V237.92C145.225 238.581 145.299 239.136 145.449 239.584C145.609 240.032 145.854 240.373 146.185 240.608C146.526 240.843 146.958 240.96 147.481 240.96ZM155.007 242.192C154.697 242.192 154.388 242.155 154.079 242.08C153.769 242.005 153.481 241.883 153.215 241.712C152.948 241.541 152.735 241.307 152.575 241.008C152.415 240.699 152.335 240.315 152.335 239.856C152.335 239.28 152.473 238.805 152.751 238.432C153.028 238.059 153.412 237.771 153.903 237.568C154.404 237.355 154.996 237.211 155.679 237.136C156.361 237.051 157.103 237.008 157.903 237.008V236.048C157.903 235.739 157.849 235.472 157.743 235.248C157.636 235.024 157.444 234.853 157.167 234.736C156.9 234.608 156.516 234.544 156.015 234.544C155.535 234.544 155.151 234.608 154.863 234.736C154.585 234.853 154.388 235.008 154.271 235.2C154.164 235.392 154.111 235.605 154.111 235.84V236.08H152.751C152.74 236.027 152.735 235.973 152.735 235.92C152.735 235.867 152.735 235.803 152.735 235.728C152.735 235.216 152.873 234.789 153.151 234.448C153.439 234.096 153.839 233.835 154.351 233.664C154.863 233.483 155.449 233.392 156.111 233.392C156.815 233.392 157.401 233.493 157.871 233.696C158.351 233.899 158.708 234.187 158.943 234.56C159.188 234.933 159.311 235.381 159.311 235.904V240.464C159.311 240.667 159.359 240.811 159.455 240.896C159.551 240.971 159.668 241.008 159.807 241.008H160.431V241.936C160.281 242 160.116 242.053 159.935 242.096C159.753 242.149 159.545 242.176 159.311 242.176C159.033 242.176 158.804 242.117 158.623 242C158.441 241.893 158.303 241.744 158.207 241.552C158.111 241.349 158.047 241.125 158.015 240.88H157.903C157.711 241.147 157.465 241.381 157.167 241.584C156.879 241.776 156.553 241.925 156.191 242.032C155.828 242.139 155.433 242.192 155.007 242.192ZM155.359 241.008C155.7 241.008 156.02 240.955 156.319 240.848C156.628 240.741 156.9 240.592 157.135 240.4C157.369 240.197 157.556 239.957 157.695 239.68C157.833 239.403 157.903 239.099 157.903 238.768V238.064C157.039 238.064 156.303 238.112 155.695 238.208C155.087 238.304 154.617 238.475 154.287 238.72C153.967 238.965 153.807 239.312 153.807 239.76C153.807 240.048 153.871 240.283 153.999 240.464C154.127 240.645 154.308 240.784 154.543 240.88C154.777 240.965 155.049 241.008 155.359 241.008ZM164.814 242.192C164.003 242.192 163.32 242.037 162.766 241.728C162.222 241.408 161.806 240.923 161.518 240.272C161.24 239.611 161.102 238.784 161.102 237.792C161.102 236.8 161.24 235.979 161.518 235.328C161.806 234.677 162.227 234.192 162.782 233.872C163.347 233.552 164.04 233.392 164.862 233.392C165.438 233.392 165.934 233.467 166.35 233.616C166.776 233.765 167.128 233.984 167.406 234.272C167.683 234.56 167.886 234.907 168.014 235.312C168.152 235.717 168.222 236.181 168.222 236.704H166.798C166.798 236.213 166.728 235.813 166.59 235.504C166.462 235.184 166.254 234.949 165.966 234.8C165.678 234.64 165.299 234.56 164.83 234.56C164.36 234.56 163.955 234.667 163.614 234.88C163.272 235.083 163.011 235.408 162.83 235.856C162.648 236.304 162.558 236.896 162.558 237.632V237.968C162.558 238.661 162.643 239.237 162.814 239.696C162.995 240.155 163.256 240.491 163.598 240.704C163.939 240.917 164.355 241.024 164.846 241.024C165.326 241.024 165.71 240.939 165.998 240.768C166.296 240.597 166.51 240.352 166.638 240.032C166.776 239.712 166.846 239.328 166.846 238.88H168.222C168.222 239.349 168.152 239.787 168.014 240.192C167.886 240.597 167.683 240.949 167.406 241.248C167.128 241.547 166.776 241.781 166.35 241.952C165.923 242.112 165.411 242.192 164.814 242.192ZM169.91 242V230.432H171.318V234.64H171.43C171.644 234.352 171.884 234.117 172.15 233.936C172.417 233.755 172.71 233.621 173.03 233.536C173.361 233.44 173.718 233.392 174.102 233.392C174.636 233.392 175.1 233.483 175.494 233.664C175.9 233.845 176.214 234.139 176.438 234.544C176.673 234.949 176.79 235.499 176.79 236.192V242H175.382V236.384C175.382 236.032 175.334 235.744 175.238 235.52C175.153 235.296 175.03 235.12 174.87 234.992C174.721 234.864 174.534 234.773 174.31 234.72C174.097 234.667 173.857 234.64 173.59 234.64C173.196 234.64 172.822 234.736 172.47 234.928C172.118 235.109 171.836 235.381 171.622 235.744C171.42 236.096 171.318 236.533 171.318 237.056V242H169.91Z" fill="#191919"/>
<path d="M56.4278 274V273.216L63.0838 264.336H56.8438V263.024H65.3398V263.808L58.6678 272.688H65.4838V274H56.4278ZM69.784 274.192C68.9734 274.192 68.3227 273.984 67.832 273.568C67.3414 273.152 67.096 272.427 67.096 271.392V265.584H68.504V271.2C68.504 271.552 68.5467 271.84 68.632 272.064C68.7174 272.288 68.84 272.464 69 272.592C69.16 272.72 69.3467 272.811 69.56 272.864C69.784 272.917 70.024 272.944 70.28 272.944C70.6854 272.944 71.0587 272.848 71.4 272.656C71.7414 272.464 72.0187 272.187 72.232 271.824C72.456 271.451 72.568 271.019 72.568 270.528V265.584H73.976V274H72.84L72.712 272.736H72.6C72.376 273.077 72.12 273.355 71.832 273.568C71.5547 273.781 71.24 273.936 70.888 274.032C70.5467 274.139 70.1787 274.192 69.784 274.192ZM68.328 263.936V262.464H69.752V263.936H68.328ZM71.384 263.936V262.464H72.808V263.936H71.384ZM76.1604 274V265.584H77.2964L77.4244 266.976H77.5364C77.6217 266.709 77.7391 266.459 77.8884 266.224C78.0377 265.979 78.2404 265.781 78.4964 265.632C78.7524 265.472 79.0671 265.392 79.4404 265.392C79.6004 265.392 79.7444 265.408 79.8724 265.44C80.0111 265.461 80.1124 265.488 80.1764 265.52V266.816H79.6484C79.2857 266.816 78.9711 266.88 78.7044 267.008C78.4484 267.125 78.2351 267.296 78.0644 267.52C77.8937 267.744 77.7657 268.011 77.6804 268.32C77.6057 268.629 77.5684 268.96 77.5684 269.312V274H76.1604ZM81.4729 264V262.432H82.8809V264H81.4729ZM81.4729 274V265.584H82.8809V274H81.4729ZM88.2666 274.192C87.456 274.192 86.7733 274.037 86.2186 273.728C85.6746 273.408 85.2586 272.923 84.9706 272.272C84.6933 271.611 84.5546 270.784 84.5546 269.792C84.5546 268.8 84.6933 267.979 84.9706 267.328C85.2586 266.677 85.68 266.192 86.2346 265.872C86.8 265.552 87.4933 265.392 88.3146 265.392C88.8906 265.392 89.3866 265.467 89.8026 265.616C90.2293 265.765 90.5813 265.984 90.8586 266.272C91.136 266.56 91.3386 266.907 91.4666 267.312C91.6053 267.717 91.6746 268.181 91.6746 268.704H90.2506C90.2506 268.213 90.1813 267.813 90.0426 267.504C89.9146 267.184 89.7066 266.949 89.4186 266.8C89.1306 266.64 88.752 266.56 88.2826 266.56C87.8133 266.56 87.408 266.667 87.0666 266.88C86.7253 267.083 86.464 267.408 86.2826 267.856C86.1013 268.304 86.0106 268.896 86.0106 269.632V269.968C86.0106 270.661 86.096 271.237 86.2666 271.696C86.448 272.155 86.7093 272.491 87.0506 272.704C87.392 272.917 87.808 273.024 88.2986 273.024C88.7786 273.024 89.1626 272.939 89.4506 272.768C89.7493 272.597 89.9626 272.352 90.0906 272.032C90.2293 271.712 90.2986 271.328 90.2986 270.88H91.6746C91.6746 271.349 91.6053 271.787 91.4666 272.192C91.3386 272.597 91.136 272.949 90.8586 273.248C90.5813 273.547 90.2293 273.781 89.8026 273.952C89.376 274.112 88.864 274.192 88.2666 274.192ZM93.3635 274V262.432H94.7715V266.64H94.8835C95.0969 266.352 95.3369 266.117 95.6035 265.936C95.8702 265.755 96.1635 265.621 96.4835 265.536C96.8142 265.44 97.1715 265.392 97.5555 265.392C98.0889 265.392 98.5529 265.483 98.9475 265.664C99.3529 265.845 99.6675 266.139 99.8915 266.544C100.126 266.949 100.244 267.499 100.244 268.192V274H98.8355V268.384C98.8355 268.032 98.7875 267.744 98.6915 267.52C98.6062 267.296 98.4835 267.12 98.3235 266.992C98.1742 266.864 97.9875 266.773 97.7635 266.72C97.5502 266.667 97.3102 266.64 97.0435 266.64C96.6489 266.64 96.2755 266.736 95.9235 266.928C95.5715 267.109 95.2889 267.381 95.0755 267.744C94.8729 268.096 94.7715 268.533 94.7715 269.056V274H93.3635ZM102.539 276.352V275.696C102.742 275.653 102.907 275.552 103.035 275.392C103.174 275.232 103.275 275.029 103.339 274.784C103.403 274.549 103.435 274.288 103.435 274H102.699V272.32H104.251V273.824C104.251 274.443 104.16 274.923 103.979 275.264C103.808 275.616 103.59 275.872 103.323 276.032C103.067 276.192 102.806 276.299 102.539 276.352ZM110.432 274V263.024H111.952V272.672H117.408V274H110.432ZM122.099 274.192C121.267 274.192 120.563 274.037 119.987 273.728C119.421 273.408 118.989 272.923 118.691 272.272C118.403 271.621 118.259 270.795 118.259 269.792C118.259 268.779 118.403 267.952 118.691 267.312C118.989 266.661 119.427 266.181 120.003 265.872C120.579 265.552 121.299 265.392 122.163 265.392C122.952 265.392 123.613 265.547 124.147 265.856C124.68 266.155 125.08 266.608 125.347 267.216C125.624 267.813 125.763 268.565 125.763 269.472V270.144H119.715C119.736 270.816 119.832 271.371 120.003 271.808C120.184 272.235 120.451 272.549 120.803 272.752C121.155 272.944 121.597 273.04 122.131 273.04C122.493 273.04 122.808 272.997 123.075 272.912C123.352 272.816 123.581 272.683 123.763 272.512C123.955 272.341 124.099 272.139 124.195 271.904C124.291 271.669 124.344 271.413 124.355 271.136H125.731C125.72 271.584 125.635 272 125.475 272.384C125.315 272.757 125.08 273.077 124.771 273.344C124.461 273.611 124.083 273.819 123.635 273.968C123.187 274.117 122.675 274.192 122.099 274.192ZM119.747 269.088H124.307C124.307 268.619 124.253 268.224 124.147 267.904C124.04 267.584 123.885 267.323 123.683 267.12C123.491 266.917 123.261 266.773 122.995 266.688C122.739 266.592 122.445 266.544 122.115 266.544C121.624 266.544 121.208 266.635 120.867 266.816C120.525 266.997 120.264 267.275 120.083 267.648C119.901 268.021 119.789 268.501 119.747 269.088ZM129.472 274.192C129.035 274.192 128.693 274.112 128.448 273.952C128.203 273.781 128.027 273.563 127.92 273.296C127.813 273.019 127.76 272.725 127.76 272.416V266.768H126.672V265.584H127.792L128.048 263.232H129.168V265.584H130.752V266.768H129.168V272.208C129.168 272.475 129.216 272.677 129.312 272.816C129.408 272.944 129.589 273.008 129.856 273.008H130.752V273.936C130.645 273.989 130.517 274.032 130.368 274.064C130.219 274.096 130.064 274.123 129.904 274.144C129.755 274.176 129.611 274.192 129.472 274.192ZM131.646 274V273.248L136.334 266.768H131.982V265.584H138.35V266.32L133.646 272.816H138.606V274H131.646ZM140.223 264V262.432H141.631V264H140.223ZM140.223 274V265.584H141.631V274H140.223ZM146.761 274.192C146.185 274.192 145.678 274.133 145.241 274.016C144.803 273.899 144.441 273.728 144.153 273.504C143.865 273.28 143.646 273.013 143.497 272.704C143.347 272.395 143.273 272.043 143.273 271.648C143.273 271.595 143.273 271.547 143.273 271.504C143.273 271.451 143.278 271.408 143.289 271.376H144.681C144.67 271.419 144.665 271.456 144.665 271.488C144.665 271.52 144.665 271.552 144.665 271.584C144.675 271.957 144.771 272.251 144.953 272.464C145.145 272.677 145.406 272.827 145.737 272.912C146.067 272.997 146.435 273.04 146.841 273.04C147.193 273.04 147.518 272.997 147.817 272.912C148.115 272.816 148.35 272.677 148.521 272.496C148.702 272.304 148.793 272.064 148.793 271.776C148.793 271.424 148.675 271.157 148.441 270.976C148.217 270.784 147.918 270.635 147.545 270.528C147.171 270.421 146.782 270.309 146.377 270.192C146.035 270.096 145.694 269.989 145.353 269.872C145.011 269.755 144.702 269.611 144.425 269.44C144.158 269.269 143.939 269.051 143.769 268.784C143.609 268.507 143.529 268.16 143.529 267.744C143.529 267.371 143.603 267.04 143.753 266.752C143.913 266.464 144.137 266.219 144.425 266.016C144.713 265.813 145.059 265.664 145.465 265.568C145.881 265.461 146.339 265.408 146.841 265.408C147.374 265.408 147.838 265.467 148.233 265.584C148.638 265.701 148.974 265.867 149.241 266.08C149.507 266.293 149.705 266.539 149.833 266.816C149.961 267.083 150.025 267.371 150.025 267.68C150.025 267.744 150.025 267.808 150.025 267.872C150.025 267.925 150.019 267.968 150.009 268H148.633V267.824C148.633 267.611 148.574 267.408 148.457 267.216C148.35 267.013 148.158 266.853 147.881 266.736C147.614 266.608 147.241 266.544 146.761 266.544C146.451 266.544 146.185 266.571 145.961 266.624C145.737 266.667 145.55 266.741 145.401 266.848C145.251 266.944 145.139 267.061 145.065 267.2C144.99 267.328 144.953 267.477 144.953 267.648C144.953 267.925 145.043 268.139 145.225 268.288C145.406 268.437 145.646 268.56 145.945 268.656C146.254 268.752 146.585 268.859 146.937 268.976C147.31 269.083 147.689 269.195 148.073 269.312C148.467 269.419 148.825 269.557 149.145 269.728C149.475 269.899 149.737 270.133 149.929 270.432C150.131 270.72 150.233 271.104 150.233 271.584C150.233 272.032 150.147 272.421 149.977 272.752C149.806 273.083 149.561 273.355 149.241 273.568C148.931 273.781 148.563 273.936 148.137 274.032C147.721 274.139 147.262 274.192 146.761 274.192ZM153.941 274.192C153.504 274.192 153.162 274.112 152.917 273.952C152.672 273.781 152.496 273.563 152.389 273.296C152.282 273.019 152.229 272.725 152.229 272.416V266.768H151.141V265.584H152.261L152.517 263.232H153.637V265.584H155.221V266.768H153.637V272.208C153.637 272.475 153.685 272.677 153.781 272.816C153.877 272.944 154.058 273.008 154.325 273.008H155.221V273.936C155.114 273.989 154.986 274.032 154.837 274.064C154.688 274.096 154.533 274.123 154.373 274.144C154.224 274.176 154.08 274.192 153.941 274.192ZM156.723 274V265.584H157.859L157.987 266.976H158.099C158.184 266.709 158.302 266.459 158.451 266.224C158.6 265.979 158.803 265.781 159.059 265.632C159.315 265.472 159.63 265.392 160.003 265.392C160.163 265.392 160.307 265.408 160.435 265.44C160.574 265.461 160.675 265.488 160.739 265.52V266.816H160.211C159.848 266.816 159.534 266.88 159.267 267.008C159.011 267.125 158.798 267.296 158.627 267.52C158.456 267.744 158.328 268.011 158.243 268.32C158.168 268.629 158.131 268.96 158.131 269.312V274H156.723ZM163.991 274.192C163.682 274.192 163.372 274.155 163.063 274.08C162.754 274.005 162.466 273.883 162.199 273.712C161.932 273.541 161.719 273.307 161.559 273.008C161.399 272.699 161.319 272.315 161.319 271.856C161.319 271.28 161.458 270.805 161.735 270.432C162.012 270.059 162.396 269.771 162.887 269.568C163.388 269.355 163.98 269.211 164.663 269.136C165.346 269.051 166.087 269.008 166.887 269.008V268.048C166.887 267.739 166.834 267.472 166.727 267.248C166.62 267.024 166.428 266.853 166.151 266.736C165.884 266.608 165.5 266.544 164.999 266.544C164.519 266.544 164.135 266.608 163.847 266.736C163.57 266.853 163.372 267.008 163.255 267.2C163.148 267.392 163.095 267.605 163.095 267.84V268.08H161.735C161.724 268.027 161.719 267.973 161.719 267.92C161.719 267.867 161.719 267.803 161.719 267.728C161.719 267.216 161.858 266.789 162.135 266.448C162.423 266.096 162.823 265.835 163.335 265.664C163.847 265.483 164.434 265.392 165.095 265.392C165.799 265.392 166.386 265.493 166.855 265.696C167.335 265.899 167.692 266.187 167.927 266.56C168.172 266.933 168.295 267.381 168.295 267.904V272.464C168.295 272.667 168.343 272.811 168.439 272.896C168.535 272.971 168.652 273.008 168.791 273.008H169.415V273.936C169.266 274 169.1 274.053 168.919 274.096C168.738 274.149 168.53 274.176 168.295 274.176C168.018 274.176 167.788 274.117 167.607 274C167.426 273.893 167.287 273.744 167.191 273.552C167.095 273.349 167.031 273.125 166.999 272.88H166.887C166.695 273.147 166.45 273.381 166.151 273.584C165.863 273.776 165.538 273.925 165.175 274.032C164.812 274.139 164.418 274.192 163.991 274.192ZM164.343 273.008C164.684 273.008 165.004 272.955 165.303 272.848C165.612 272.741 165.884 272.592 166.119 272.4C166.354 272.197 166.54 271.957 166.679 271.68C166.818 271.403 166.887 271.099 166.887 270.768V270.064C166.023 270.064 165.287 270.112 164.679 270.208C164.071 270.304 163.602 270.475 163.271 270.72C162.951 270.965 162.791 271.312 162.791 271.76C162.791 272.048 162.855 272.283 162.983 272.464C163.111 272.645 163.292 272.784 163.527 272.88C163.762 272.965 164.034 273.008 164.343 273.008ZM173.542 274.192C172.966 274.192 172.459 274.133 172.022 274.016C171.585 273.899 171.222 273.728 170.934 273.504C170.646 273.28 170.427 273.013 170.278 272.704C170.129 272.395 170.054 272.043 170.054 271.648C170.054 271.595 170.054 271.547 170.054 271.504C170.054 271.451 170.059 271.408 170.07 271.376H171.462C171.451 271.419 171.446 271.456 171.446 271.488C171.446 271.52 171.446 271.552 171.446 271.584C171.457 271.957 171.553 272.251 171.734 272.464C171.926 272.677 172.187 272.827 172.518 272.912C172.849 272.997 173.217 273.04 173.622 273.04C173.974 273.04 174.299 272.997 174.598 272.912C174.897 272.816 175.131 272.677 175.302 272.496C175.483 272.304 175.574 272.064 175.574 271.776C175.574 271.424 175.457 271.157 175.222 270.976C174.998 270.784 174.699 270.635 174.326 270.528C173.953 270.421 173.563 270.309 173.158 270.192C172.817 270.096 172.475 269.989 172.134 269.872C171.793 269.755 171.483 269.611 171.206 269.44C170.939 269.269 170.721 269.051 170.55 268.784C170.39 268.507 170.31 268.16 170.31 267.744C170.31 267.371 170.385 267.04 170.534 266.752C170.694 266.464 170.918 266.219 171.206 266.016C171.494 265.813 171.841 265.664 172.246 265.568C172.662 265.461 173.121 265.408 173.622 265.408C174.155 265.408 174.619 265.467 175.014 265.584C175.419 265.701 175.755 265.867 176.022 266.08C176.289 266.293 176.486 266.539 176.614 266.816C176.742 267.083 176.806 267.371 176.806 267.68C176.806 267.744 176.806 267.808 176.806 267.872C176.806 267.925 176.801 267.968 176.79 268H175.414V267.824C175.414 267.611 175.355 267.408 175.238 267.216C175.131 267.013 174.939 266.853 174.662 266.736C174.395 266.608 174.022 266.544 173.542 266.544C173.233 266.544 172.966 266.571 172.742 266.624C172.518 266.667 172.331 266.741 172.182 266.848C172.033 266.944 171.921 267.061 171.846 267.2C171.771 267.328 171.734 267.477 171.734 267.648C171.734 267.925 171.825 268.139 172.006 268.288C172.187 268.437 172.427 268.56 172.726 268.656C173.035 268.752 173.366 268.859 173.718 268.976C174.091 269.083 174.47 269.195 174.854 269.312C175.249 269.419 175.606 269.557 175.926 269.728C176.257 269.899 176.518 270.133 176.71 270.432C176.913 270.72 177.014 271.104 177.014 271.584C177.014 272.032 176.929 272.421 176.758 272.752C176.587 273.083 176.342 273.355 176.022 273.568C175.713 273.781 175.345 273.936 174.918 274.032C174.502 274.139 174.043 274.192 173.542 274.192ZM181.698 274.192C181.122 274.192 180.615 274.133 180.178 274.016C179.741 273.899 179.378 273.728 179.09 273.504C178.802 273.28 178.583 273.013 178.434 272.704C178.285 272.395 178.21 272.043 178.21 271.648C178.21 271.595 178.21 271.547 178.21 271.504C178.21 271.451 178.215 271.408 178.226 271.376H179.618C179.607 271.419 179.602 271.456 179.602 271.488C179.602 271.52 179.602 271.552 179.602 271.584C179.613 271.957 179.709 272.251 179.89 272.464C180.082 272.677 180.343 272.827 180.674 272.912C181.005 272.997 181.373 273.04 181.778 273.04C182.13 273.04 182.455 272.997 182.754 272.912C183.053 272.816 183.287 272.677 183.458 272.496C183.639 272.304 183.73 272.064 183.73 271.776C183.73 271.424 183.613 271.157 183.378 270.976C183.154 270.784 182.855 270.635 182.482 270.528C182.109 270.421 181.719 270.309 181.314 270.192C180.973 270.096 180.631 269.989 180.29 269.872C179.949 269.755 179.639 269.611 179.362 269.44C179.095 269.269 178.877 269.051 178.706 268.784C178.546 268.507 178.466 268.16 178.466 267.744C178.466 267.371 178.541 267.04 178.69 266.752C178.85 266.464 179.074 266.219 179.362 266.016C179.65 265.813 179.997 265.664 180.402 265.568C180.818 265.461 181.277 265.408 181.778 265.408C182.311 265.408 182.775 265.467 183.17 265.584C183.575 265.701 183.911 265.867 184.178 266.08C184.445 266.293 184.642 266.539 184.77 266.816C184.898 267.083 184.962 267.371 184.962 267.68C184.962 267.744 184.962 267.808 184.962 267.872C184.962 267.925 184.957 267.968 184.946 268H183.57V267.824C183.57 267.611 183.511 267.408 183.394 267.216C183.287 267.013 183.095 266.853 182.818 266.736C182.551 266.608 182.178 266.544 181.698 266.544C181.389 266.544 181.122 266.571 180.898 266.624C180.674 266.667 180.487 266.741 180.338 266.848C180.189 266.944 180.077 267.061 180.002 267.2C179.927 267.328 179.89 267.477 179.89 267.648C179.89 267.925 179.981 268.139 180.162 268.288C180.343 268.437 180.583 268.56 180.882 268.656C181.191 268.752 181.522 268.859 181.874 268.976C182.247 269.083 182.626 269.195 183.01 269.312C183.405 269.419 183.762 269.557 184.082 269.728C184.413 269.899 184.674 270.133 184.866 270.432C185.069 270.72 185.17 271.104 185.17 271.584C185.17 272.032 185.085 272.421 184.914 272.752C184.743 273.083 184.498 273.355 184.178 273.568C183.869 273.781 183.501 273.936 183.074 274.032C182.658 274.139 182.199 274.192 181.698 274.192ZM190.27 274.192C189.438 274.192 188.734 274.037 188.158 273.728C187.593 273.408 187.161 272.923 186.862 272.272C186.574 271.621 186.43 270.795 186.43 269.792C186.43 268.779 186.574 267.952 186.862 267.312C187.161 266.661 187.598 266.181 188.174 265.872C188.75 265.552 189.47 265.392 190.334 265.392C191.124 265.392 191.785 265.547 192.318 265.856C192.852 266.155 193.252 266.608 193.518 267.216C193.796 267.813 193.934 268.565 193.934 269.472V270.144H187.886C187.908 270.816 188.004 271.371 188.174 271.808C188.356 272.235 188.622 272.549 188.974 272.752C189.326 272.944 189.769 273.04 190.302 273.04C190.665 273.04 190.98 272.997 191.246 272.912C191.524 272.816 191.753 272.683 191.934 272.512C192.126 272.341 192.27 272.139 192.366 271.904C192.462 271.669 192.516 271.413 192.526 271.136H193.902C193.892 271.584 193.806 272 193.646 272.384C193.486 272.757 193.252 273.077 192.942 273.344C192.633 273.611 192.254 273.819 191.806 273.968C191.358 274.117 190.846 274.192 190.27 274.192ZM187.918 269.088H192.478C192.478 268.619 192.425 268.224 192.318 267.904C192.212 267.584 192.057 267.323 191.854 267.12C191.662 266.917 191.433 266.773 191.166 266.688C190.91 266.592 190.617 266.544 190.286 266.544C189.796 266.544 189.38 266.635 189.038 266.816C188.697 266.997 188.436 267.275 188.254 267.648C188.073 268.021 187.961 268.501 187.918 269.088Z" fill="#191919"/>
<path d="M56.4278 306V305.216L63.0838 296.336H56.8438V295.024H65.3398V295.808L58.6678 304.688H65.4838V306H56.4278ZM69.784 306.192C68.9734 306.192 68.3227 305.984 67.832 305.568C67.3414 305.152 67.096 304.427 67.096 303.392V297.584H68.504V303.2C68.504 303.552 68.5467 303.84 68.632 304.064C68.7174 304.288 68.84 304.464 69 304.592C69.16 304.72 69.3467 304.811 69.56 304.864C69.784 304.917 70.024 304.944 70.28 304.944C70.6854 304.944 71.0587 304.848 71.4 304.656C71.7414 304.464 72.0187 304.187 72.232 303.824C72.456 303.451 72.568 303.019 72.568 302.528V297.584H73.976V306H72.84L72.712 304.736H72.6C72.376 305.077 72.12 305.355 71.832 305.568C71.5547 305.781 71.24 305.936 70.888 306.032C70.5467 306.139 70.1787 306.192 69.784 306.192ZM68.328 295.936V294.464H69.752V295.936H68.328ZM71.384 295.936V294.464H72.808V295.936H71.384ZM76.1604 306V297.584H77.2964L77.4244 298.976H77.5364C77.6217 298.709 77.7391 298.459 77.8884 298.224C78.0377 297.979 78.2404 297.781 78.4964 297.632C78.7524 297.472 79.0671 297.392 79.4404 297.392C79.6004 297.392 79.7444 297.408 79.8724 297.44C80.0111 297.461 80.1124 297.488 80.1764 297.52V298.816H79.6484C79.2857 298.816 78.9711 298.88 78.7044 299.008C78.4484 299.125 78.2351 299.296 78.0644 299.52C77.8937 299.744 77.7657 300.011 77.6804 300.32C77.6057 300.629 77.5684 300.96 77.5684 301.312V306H76.1604ZM81.4729 296V294.432H82.8809V296H81.4729ZM81.4729 306V297.584H82.8809V306H81.4729ZM88.2666 306.192C87.456 306.192 86.7733 306.037 86.2186 305.728C85.6746 305.408 85.2586 304.923 84.9706 304.272C84.6933 303.611 84.5546 302.784 84.5546 301.792C84.5546 300.8 84.6933 299.979 84.9706 299.328C85.2586 298.677 85.68 298.192 86.2346 297.872C86.8 297.552 87.4933 297.392 88.3146 297.392C88.8906 297.392 89.3866 297.467 89.8026 297.616C90.2293 297.765 90.5813 297.984 90.8586 298.272C91.136 298.56 91.3386 298.907 91.4666 299.312C91.6053 299.717 91.6746 300.181 91.6746 300.704H90.2506C90.2506 300.213 90.1813 299.813 90.0426 299.504C89.9146 299.184 89.7066 298.949 89.4186 298.8C89.1306 298.64 88.752 298.56 88.2826 298.56C87.8133 298.56 87.408 298.667 87.0666 298.88C86.7253 299.083 86.464 299.408 86.2826 299.856C86.1013 300.304 86.0106 300.896 86.0106 301.632V301.968C86.0106 302.661 86.096 303.237 86.2666 303.696C86.448 304.155 86.7093 304.491 87.0506 304.704C87.392 304.917 87.808 305.024 88.2986 305.024C88.7786 305.024 89.1626 304.939 89.4506 304.768C89.7493 304.597 89.9626 304.352 90.0906 304.032C90.2293 303.712 90.2986 303.328 90.2986 302.88H91.6746C91.6746 303.349 91.6053 303.787 91.4666 304.192C91.3386 304.597 91.136 304.949 90.8586 305.248C90.5813 305.547 90.2293 305.781 89.8026 305.952C89.376 306.112 88.864 306.192 88.2666 306.192ZM93.3635 306V294.432H94.7715V298.64H94.8835C95.0969 298.352 95.3369 298.117 95.6035 297.936C95.8702 297.755 96.1635 297.621 96.4835 297.536C96.8142 297.44 97.1715 297.392 97.5555 297.392C98.0889 297.392 98.5529 297.483 98.9475 297.664C99.3529 297.845 99.6675 298.139 99.8915 298.544C100.126 298.949 100.244 299.499 100.244 300.192V306H98.8355V300.384C98.8355 300.032 98.7875 299.744 98.6915 299.52C98.6062 299.296 98.4835 299.12 98.3235 298.992C98.1742 298.864 97.9875 298.773 97.7635 298.72C97.5502 298.667 97.3102 298.64 97.0435 298.64C96.6489 298.64 96.2755 298.736 95.9235 298.928C95.5715 299.109 95.2889 299.381 95.0755 299.744C94.8729 300.096 94.7715 300.533 94.7715 301.056V306H93.3635ZM102.539 308.352V307.696C102.742 307.653 102.907 307.552 103.035 307.392C103.174 307.232 103.275 307.029 103.339 306.784C103.403 306.549 103.435 306.288 103.435 306H102.699V304.32H104.251V305.824C104.251 306.443 104.16 306.923 103.979 307.264C103.808 307.616 103.59 307.872 103.323 308.032C103.067 308.192 102.806 308.299 102.539 308.352ZM110.432 306V295.024H111.952V304.672H117.408V306H110.432ZM122.099 306.192C121.267 306.192 120.563 306.037 119.987 305.728C119.421 305.408 118.989 304.923 118.691 304.272C118.403 303.621 118.259 302.795 118.259 301.792C118.259 300.779 118.403 299.952 118.691 299.312C118.989 298.661 119.427 298.181 120.003 297.872C120.579 297.552 121.299 297.392 122.163 297.392C122.952 297.392 123.613 297.547 124.147 297.856C124.68 298.155 125.08 298.608 125.347 299.216C125.624 299.813 125.763 300.565 125.763 301.472V302.144H119.715C119.736 302.816 119.832 303.371 120.003 303.808C120.184 304.235 120.451 304.549 120.803 304.752C121.155 304.944 121.597 305.04 122.131 305.04C122.493 305.04 122.808 304.997 123.075 304.912C123.352 304.816 123.581 304.683 123.763 304.512C123.955 304.341 124.099 304.139 124.195 303.904C124.291 303.669 124.344 303.413 124.355 303.136H125.731C125.72 303.584 125.635 304 125.475 304.384C125.315 304.757 125.08 305.077 124.771 305.344C124.461 305.611 124.083 305.819 123.635 305.968C123.187 306.117 122.675 306.192 122.099 306.192ZM119.747 301.088H124.307C124.307 300.619 124.253 300.224 124.147 299.904C124.04 299.584 123.885 299.323 123.683 299.12C123.491 298.917 123.261 298.773 122.995 298.688C122.739 298.592 122.445 298.544 122.115 298.544C121.624 298.544 121.208 298.635 120.867 298.816C120.525 298.997 120.264 299.275 120.083 299.648C119.901 300.021 119.789 300.501 119.747 301.088ZM129.472 306.192C129.035 306.192 128.693 306.112 128.448 305.952C128.203 305.781 128.027 305.563 127.92 305.296C127.813 305.019 127.76 304.725 127.76 304.416V298.768H126.672V297.584H127.792L128.048 295.232H129.168V297.584H130.752V298.768H129.168V304.208C129.168 304.475 129.216 304.677 129.312 304.816C129.408 304.944 129.589 305.008 129.856 305.008H130.752V305.936C130.645 305.989 130.517 306.032 130.368 306.064C130.219 306.096 130.064 306.123 129.904 306.144C129.755 306.176 129.611 306.192 129.472 306.192ZM131.646 306V305.248L136.334 298.768H131.982V297.584H138.35V298.32L133.646 304.816H138.606V306H131.646ZM140.223 296V294.432H141.631V296H140.223ZM140.223 306V297.584H141.631V306H140.223ZM143.817 308.768V297.584H144.937L145.081 298.784H145.193C145.481 298.315 145.849 297.968 146.297 297.744C146.745 297.509 147.251 297.392 147.817 297.392C148.521 297.392 149.118 297.547 149.609 297.856C150.099 298.165 150.478 298.651 150.745 299.312C151.011 299.963 151.145 300.811 151.145 301.856C151.145 302.837 151.006 303.653 150.729 304.304C150.462 304.944 150.083 305.419 149.593 305.728C149.102 306.037 148.531 306.192 147.881 306.192C147.518 306.192 147.177 306.149 146.857 306.064C146.537 305.979 146.249 305.845 145.993 305.664C145.737 305.472 145.513 305.232 145.321 304.944H145.225V308.768H143.817ZM147.433 304.96C147.955 304.96 148.382 304.859 148.713 304.656C149.043 304.443 149.289 304.117 149.449 303.68C149.609 303.232 149.689 302.661 149.689 301.968V301.632C149.689 300.896 149.603 300.309 149.433 299.872C149.262 299.424 149.011 299.104 148.681 298.912C148.361 298.72 147.961 298.624 147.481 298.624C146.958 298.624 146.526 298.741 146.185 298.976C145.854 299.2 145.609 299.541 145.449 300C145.299 300.459 145.225 301.019 145.225 301.68V301.92C145.225 302.507 145.278 302.997 145.385 303.392C145.502 303.776 145.662 304.085 145.865 304.32C146.078 304.555 146.318 304.72 146.585 304.816C146.851 304.912 147.134 304.96 147.433 304.96ZM155.007 306.192C154.697 306.192 154.388 306.155 154.079 306.08C153.769 306.005 153.481 305.883 153.215 305.712C152.948 305.541 152.735 305.307 152.575 305.008C152.415 304.699 152.335 304.315 152.335 303.856C152.335 303.28 152.473 302.805 152.751 302.432C153.028 302.059 153.412 301.771 153.903 301.568C154.404 301.355 154.996 301.211 155.679 301.136C156.361 301.051 157.103 301.008 157.903 301.008V300.048C157.903 299.739 157.849 299.472 157.743 299.248C157.636 299.024 157.444 298.853 157.167 298.736C156.9 298.608 156.516 298.544 156.015 298.544C155.535 298.544 155.151 298.608 154.863 298.736C154.585 298.853 154.388 299.008 154.271 299.2C154.164 299.392 154.111 299.605 154.111 299.84V300.08H152.751C152.74 300.027 152.735 299.973 152.735 299.92C152.735 299.867 152.735 299.803 152.735 299.728C152.735 299.216 152.873 298.789 153.151 298.448C153.439 298.096 153.839 297.835 154.351 297.664C154.863 297.483 155.449 297.392 156.111 297.392C156.815 297.392 157.401 297.493 157.871 297.696C158.351 297.899 158.708 298.187 158.943 298.56C159.188 298.933 159.311 299.381 159.311 299.904V304.464C159.311 304.667 159.359 304.811 159.455 304.896C159.551 304.971 159.668 305.008 159.807 305.008H160.431V305.936C160.281 306 160.116 306.053 159.935 306.096C159.753 306.149 159.545 306.176 159.311 306.176C159.033 306.176 158.804 306.117 158.623 306C158.441 305.893 158.303 305.744 158.207 305.552C158.111 305.349 158.047 305.125 158.015 304.88H157.903C157.711 305.147 157.465 305.381 157.167 305.584C156.879 305.776 156.553 305.925 156.191 306.032C155.828 306.139 155.433 306.192 155.007 306.192ZM155.359 305.008C155.7 305.008 156.02 304.955 156.319 304.848C156.628 304.741 156.9 304.592 157.135 304.4C157.369 304.197 157.556 303.957 157.695 303.68C157.833 303.403 157.903 303.099 157.903 302.768V302.064C157.039 302.064 156.303 302.112 155.695 302.208C155.087 302.304 154.617 302.475 154.287 302.72C153.967 302.965 153.807 303.312 153.807 303.76C153.807 304.048 153.871 304.283 153.999 304.464C154.127 304.645 154.308 304.784 154.543 304.88C154.777 304.965 155.049 305.008 155.359 305.008ZM161.614 306V297.584H162.75L162.878 298.976H162.99C163.075 298.709 163.192 298.459 163.342 298.224C163.491 297.979 163.694 297.781 163.95 297.632C164.206 297.472 164.52 297.392 164.894 297.392C165.054 297.392 165.198 297.408 165.326 297.44C165.464 297.461 165.566 297.488 165.63 297.52V298.816H165.102C164.739 298.816 164.424 298.88 164.158 299.008C163.902 299.125 163.688 299.296 163.518 299.52C163.347 299.744 163.219 300.011 163.134 300.32C163.059 300.629 163.022 300.96 163.022 301.312V306H161.614ZM166.926 306V294.432H168.334V301.664L171.902 297.584H173.566L170.686 300.848L173.726 306H172.11L169.774 301.888L168.334 303.344V306H166.926Z" fill="#191919"/>
<path d="M56.4278 338V337.216L63.0838 328.336H56.8438V327.024H65.3398V327.808L58.6678 336.688H65.4838V338H56.4278ZM69.784 338.192C68.9734 338.192 68.3227 337.984 67.832 337.568C67.3414 337.152 67.096 336.427 67.096 335.392V329.584H68.504V335.2C68.504 335.552 68.5467 335.84 68.632 336.064C68.7174 336.288 68.84 336.464 69 336.592C69.16 336.72 69.3467 336.811 69.56 336.864C69.784 336.917 70.024 336.944 70.28 336.944C70.6854 336.944 71.0587 336.848 71.4 336.656C71.7414 336.464 72.0187 336.187 72.232 335.824C72.456 335.451 72.568 335.019 72.568 334.528V329.584H73.976V338H72.84L72.712 336.736H72.6C72.376 337.077 72.12 337.355 71.832 337.568C71.5547 337.781 71.24 337.936 70.888 338.032C70.5467 338.139 70.1787 338.192 69.784 338.192ZM77.5844 340.912C77.1791 340.912 76.8057 340.827 76.4644 340.656C76.1231 340.496 75.8511 340.261 75.6484 339.952C75.4457 339.643 75.3444 339.275 75.3444 338.848C75.3444 338.379 75.4724 337.989 75.7284 337.68C75.9951 337.371 76.3097 337.141 76.6724 336.992C76.4057 336.864 76.1977 336.688 76.0484 336.464C75.8991 336.229 75.8244 335.973 75.8244 335.696C75.8244 335.323 75.9577 335.008 76.2244 334.752C76.5017 334.496 76.8377 334.325 77.2324 334.24C76.8697 334.005 76.5817 333.707 76.3684 333.344C76.1657 332.971 76.0644 332.56 76.0644 332.112C76.0644 331.579 76.1871 331.109 76.4324 330.704C76.6884 330.299 77.0724 329.979 77.5844 329.744C78.1071 329.509 78.7417 329.392 79.4884 329.392C79.8297 329.392 80.1497 329.419 80.4484 329.472C80.7471 329.515 81.0137 329.589 81.2484 329.696C81.6217 329.525 81.8991 329.307 82.0804 329.04C82.2724 328.773 82.3897 328.501 82.4324 328.224H83.8244C83.8244 328.544 83.7497 328.848 83.6004 329.136C83.4617 329.413 83.2697 329.648 83.0244 329.84C82.7791 330.021 82.4804 330.144 82.1284 330.208C82.3951 330.464 82.5924 330.752 82.7204 331.072C82.8591 331.392 82.9284 331.739 82.9284 332.112C82.9284 332.645 82.8004 333.12 82.5444 333.536C82.2991 333.941 81.9257 334.261 81.4244 334.496C80.9231 334.731 80.2937 334.848 79.5364 334.848H78.2244C77.9364 334.848 77.7017 334.907 77.5204 335.024C77.3391 335.131 77.2484 335.307 77.2484 335.552C77.2484 335.765 77.3391 335.941 77.5204 336.08C77.7017 336.208 77.9364 336.272 78.2244 336.272H81.6484C82.2671 336.272 82.7737 336.48 83.1684 336.896C83.5631 337.301 83.7604 337.824 83.7604 338.464C83.7604 338.923 83.6431 339.333 83.4084 339.696C83.1844 340.069 82.8644 340.363 82.4484 340.576C82.0431 340.8 81.5684 340.912 81.0244 340.912H77.5844ZM77.9844 339.84H81.0084C81.2537 339.84 81.4777 339.787 81.6804 339.68C81.8831 339.584 82.0431 339.445 82.1604 339.264C82.2777 339.083 82.3364 338.885 82.3364 338.672C82.3364 338.309 82.2297 338.021 82.0164 337.808C81.8031 337.595 81.5364 337.488 81.2164 337.488H77.9844C77.6431 337.488 77.3551 337.605 77.1204 337.84C76.8857 338.064 76.7684 338.341 76.7684 338.672C76.7684 339.024 76.8857 339.307 77.1204 339.52C77.3551 339.733 77.6431 339.84 77.9844 339.84ZM79.5044 333.792C80.1871 333.792 80.6937 333.643 81.0244 333.344C81.3551 333.045 81.5204 332.635 81.5204 332.112C81.5204 331.6 81.3551 331.195 81.0244 330.896C80.6937 330.597 80.1871 330.448 79.5044 330.448C78.8217 330.448 78.3097 330.597 77.9684 330.896C77.6377 331.195 77.4724 331.6 77.4724 332.112C77.4724 332.443 77.5471 332.736 77.6964 332.992C77.8457 333.248 78.0697 333.445 78.3684 333.584C78.6671 333.723 79.0457 333.792 79.5044 333.792ZM85.211 340.352V339.696C85.4137 339.653 85.579 339.552 85.707 339.392C85.8457 339.232 85.947 339.029 86.011 338.784C86.075 338.549 86.107 338.288 86.107 338H85.371V336.32H86.923V337.824C86.923 338.443 86.8324 338.923 86.651 339.264C86.4804 339.616 86.2617 339.872 85.995 340.032C85.739 340.192 85.4777 340.299 85.211 340.352ZM93.1043 338V327.024H94.6243V336.672H100.08V338H93.1043ZM104.77 338.192C103.938 338.192 103.234 338.037 102.658 337.728C102.093 337.408 101.661 336.923 101.362 336.272C101.074 335.621 100.93 334.795 100.93 333.792C100.93 332.779 101.074 331.952 101.362 331.312C101.661 330.661 102.098 330.181 102.674 329.872C103.25 329.552 103.97 329.392 104.834 329.392C105.624 329.392 106.285 329.547 106.818 329.856C107.352 330.155 107.752 330.608 108.018 331.216C108.296 331.813 108.434 332.565 108.434 333.472V334.144H102.386C102.408 334.816 102.504 335.371 102.674 335.808C102.856 336.235 103.122 336.549 103.474 336.752C103.826 336.944 104.269 337.04 104.802 337.04C105.165 337.04 105.48 336.997 105.746 336.912C106.024 336.816 106.253 336.683 106.434 336.512C106.626 336.341 106.77 336.139 106.866 335.904C106.962 335.669 107.016 335.413 107.026 335.136H108.402C108.392 335.584 108.306 336 108.146 336.384C107.986 336.757 107.752 337.077 107.442 337.344C107.133 337.611 106.754 337.819 106.306 337.968C105.858 338.117 105.346 338.192 104.77 338.192ZM102.418 333.088H106.978C106.978 332.619 106.925 332.224 106.818 331.904C106.712 331.584 106.557 331.323 106.354 331.12C106.162 330.917 105.933 330.773 105.666 330.688C105.41 330.592 105.117 330.544 104.786 330.544C104.296 330.544 103.88 330.635 103.538 330.816C103.197 330.997 102.936 331.275 102.754 331.648C102.573 332.021 102.461 332.501 102.418 333.088ZM112.144 338.192C111.707 338.192 111.365 338.112 111.12 337.952C110.875 337.781 110.699 337.563 110.592 337.296C110.485 337.019 110.432 336.725 110.432 336.416V330.768H109.344V329.584H110.464L110.72 327.232H111.84V329.584H113.424V330.768H111.84V336.208C111.84 336.475 111.888 336.677 111.984 336.816C112.08 336.944 112.261 337.008 112.528 337.008H113.424V337.936C113.317 337.989 113.189 338.032 113.04 338.064C112.891 338.096 112.736 338.123 112.576 338.144C112.427 338.176 112.283 338.192 112.144 338.192ZM114.318 338V337.248L119.006 330.768H114.654V329.584H121.022V330.32L116.318 336.816H121.278V338H114.318ZM122.895 328V326.432H124.303V328H122.895ZM122.895 338V329.584H124.303V338H122.895Z" fill="#191919"/>
<line opacity="0.2" x1="49.9546" y1="252.5" x2="341.058" y2="252.5" stroke="#5C554C"/>
<line opacity="0.2" x1="49.9546" y1="283.5" x2="341.058" y2="283.5" stroke="#5C554C"/>
<line opacity="0.2" x1="49.9546" y1="315.5" x2="341.058" y2="315.5" stroke="#5C554C"/>
<rect x="40.5" y="173.5" width="312" height="39" rx="7.5" fill="#F5EFE6" stroke="#5C554C"/>
<path d="M51.376 199V188.024H52.896V197.672H58.352V199H51.376ZM63.0421 199.192C62.2101 199.192 61.5061 199.037 60.9301 198.728C60.3648 198.408 59.9328 197.923 59.6341 197.272C59.3461 196.621 59.2021 195.795 59.2021 194.792C59.2021 193.779 59.3461 192.952 59.6341 192.312C59.9328 191.661 60.3701 191.181 60.9461 190.872C61.5221 190.552 62.2421 190.392 63.1061 190.392C63.8955 190.392 64.5568 190.547 65.0901 190.856C65.6235 191.155 66.0235 191.608 66.2901 192.216C66.5675 192.813 66.7061 193.565 66.7061 194.472V195.144H60.6581C60.6795 195.816 60.7755 196.371 60.9461 196.808C61.1275 197.235 61.3941 197.549 61.7461 197.752C62.0981 197.944 62.5408 198.04 63.0741 198.04C63.4368 198.04 63.7515 197.997 64.0181 197.912C64.2955 197.816 64.5248 197.683 64.7061 197.512C64.8981 197.341 65.0421 197.139 65.1381 196.904C65.2341 196.669 65.2875 196.413 65.2981 196.136H66.6741C66.6635 196.584 66.5781 197 66.4181 197.384C66.2581 197.757 66.0235 198.077 65.7141 198.344C65.4048 198.611 65.0261 198.819 64.5781 198.968C64.1301 199.117 63.6181 199.192 63.0421 199.192ZM60.6901 194.088H65.2501C65.2501 193.619 65.1968 193.224 65.0901 192.904C64.9835 192.584 64.8288 192.323 64.6261 192.12C64.4341 191.917 64.2048 191.773 63.9381 191.688C63.6821 191.592 63.3888 191.544 63.0581 191.544C62.5675 191.544 62.1515 191.635 61.8101 191.816C61.4688 191.997 61.2075 192.275 61.0261 192.648C60.8448 193.021 60.7328 193.501 60.6901 194.088ZM70.4158 199.192C69.9784 199.192 69.6371 199.112 69.3918 198.952C69.1464 198.781 68.9704 198.563 68.8638 198.296C68.7571 198.019 68.7038 197.725 68.7038 197.416V191.768H67.6158V190.584H68.7358L68.9918 188.232H70.1118V190.584H71.6958V191.768H70.1118V197.208C70.1118 197.475 70.1598 197.677 70.2558 197.816C70.3518 197.944 70.5331 198.008 70.7998 198.008H71.6958V198.936C71.5891 198.989 71.4611 199.032 71.3118 199.064C71.1624 199.096 71.0078 199.123 70.8478 199.144C70.6984 199.176 70.5544 199.192 70.4158 199.192ZM72.5898 199V198.248L77.2778 191.768H72.9258V190.584H79.2938V191.32L74.5898 197.816H79.5498V199H72.5898ZM81.1665 189V187.432H82.5745V189H81.1665ZM81.1665 199V190.584H82.5745V199H81.1665Z" fill="#191919"/>
<path d="M40.84 97V95.08L51.52 80.08H41.59V76.42H58.27V78.34L47.59 93.31H58.51V97H40.84ZM66.6196 97.36C65.0196 97.36 63.7496 96.92 62.8096 96.04C61.8696 95.16 61.3996 93.74 61.3996 91.78V81.22H65.5696V91.09C65.5696 91.61 65.6296 92.05 65.7496 92.41C65.8696 92.75 66.0396 93.03 66.2596 93.25C66.4996 93.47 66.7896 93.63 67.1296 93.73C67.4696 93.83 67.8496 93.88 68.2696 93.88C68.8896 93.88 69.4496 93.73 69.9496 93.43C70.4496 93.13 70.8396 92.72 71.1196 92.2C71.3996 91.66 71.5396 91.06 71.5396 90.4V81.22H75.7096V97H72.2896L71.9896 94.84H71.7796C71.3996 95.34 70.9496 95.78 70.4296 96.16C69.9296 96.54 69.3596 96.83 68.7196 97.03C68.0796 97.25 67.3796 97.36 66.6196 97.36ZM63.7396 78.82V75.31H67.2796V78.82H63.7396ZM69.9496 78.82V75.31H73.5196V78.82H69.9496ZM82.1172 102.64C81.4172 102.64 80.7572 102.49 80.1372 102.19C79.5172 101.91 79.0172 101.49 78.6372 100.93C78.2572 100.37 78.0672 99.7 78.0672 98.92C78.0672 98.04 78.3172 97.34 78.8172 96.82C79.3372 96.28 79.9172 95.88 80.5572 95.62C80.0972 95.36 79.7172 95.02 79.4172 94.6C79.1372 94.18 78.9972 93.69 78.9972 93.13C78.9972 92.35 79.2772 91.72 79.8372 91.24C80.4172 90.74 81.0772 90.42 81.8172 90.28C81.0772 89.82 80.4972 89.24 80.0772 88.54C79.6772 87.82 79.4772 87.02 79.4772 86.14C79.4772 85 79.7572 84.04 80.3172 83.26C80.8972 82.48 81.7172 81.89 82.7772 81.49C83.8572 81.07 85.1272 80.86 86.5872 80.86C87.1672 80.86 87.7072 80.89 88.2072 80.95C88.7272 81.01 89.1972 81.11 89.6172 81.25C90.3572 80.81 90.8572 80.33 91.1172 79.81C91.3972 79.27 91.5472 78.84 91.5672 78.52H95.4372C95.4372 79.26 95.2972 79.9 95.0172 80.44C94.7572 80.98 94.3772 81.43 93.8772 81.79C93.3772 82.13 92.7772 82.38 92.0772 82.54C92.5972 82.98 92.9972 83.51 93.2772 84.13C93.5572 84.75 93.6972 85.42 93.6972 86.14C93.6972 87.26 93.4272 88.22 92.8872 89.02C92.3472 89.8 91.5772 90.4 90.5772 90.82C89.5972 91.24 88.4172 91.45 87.0372 91.45H84.6372C84.1572 91.45 83.7972 91.54 83.5572 91.72C83.3172 91.88 83.1972 92.12 83.1972 92.44C83.1972 92.7 83.2972 92.93 83.4972 93.13C83.7172 93.31 84.0672 93.4 84.5472 93.4H91.1172C92.4372 93.4 93.4872 93.81 94.2672 94.63C95.0672 95.43 95.4672 96.46 95.4672 97.72C95.4672 98.68 95.2172 99.53 94.7172 100.27C94.2172 101.01 93.5272 101.59 92.6472 102.01C91.7672 102.43 90.7572 102.64 89.6172 102.64H82.1172ZM83.8572 99.85H89.4072C89.7672 99.85 90.0872 99.78 90.3672 99.64C90.6472 99.52 90.8672 99.34 91.0272 99.1C91.1872 98.88 91.2672 98.62 91.2672 98.32C91.2672 97.8 91.1072 97.41 90.7872 97.15C90.4672 96.89 90.0672 96.76 89.5872 96.76H83.8572C83.3772 96.76 82.9772 96.9 82.6572 97.18C82.3572 97.46 82.2072 97.83 82.2072 98.29C82.2072 98.75 82.3572 99.12 82.6572 99.4C82.9772 99.7 83.3772 99.85 83.8572 99.85ZM86.5872 88.75C87.5672 88.75 88.3072 88.53 88.8072 88.09C89.3272 87.63 89.5872 86.98 89.5872 86.14C89.5872 85.3 89.3272 84.66 88.8072 84.22C88.3072 83.76 87.5672 83.53 86.5872 83.53C85.6272 83.53 84.8872 83.76 84.3672 84.22C83.8672 84.66 83.6172 85.3 83.6172 86.14C83.6172 86.68 83.7272 87.15 83.9472 87.55C84.1672 87.95 84.4972 88.25 84.9372 88.45C85.3772 88.65 85.9272 88.75 86.5872 88.75ZM97.7598 97V75.31H101.93V97H97.7598ZM108.038 102.64C107.298 102.64 106.678 102.58 106.178 102.46C105.698 102.36 105.388 102.29 105.248 102.25V99.43H107.078C107.578 99.43 108.028 99.31 108.428 99.07C108.828 98.85 109.178 98.55 109.478 98.17C109.778 97.81 109.998 97.42 110.138 97L103.958 81.22H108.368L111.068 88.51C111.188 88.85 111.318 89.28 111.458 89.8C111.618 90.3 111.778 90.83 111.938 91.39C112.098 91.93 112.228 92.41 112.328 92.83H112.478C112.558 92.55 112.648 92.22 112.748 91.84C112.848 91.46 112.948 91.07 113.048 90.67C113.168 90.27 113.278 89.89 113.378 89.53C113.498 89.15 113.598 88.82 113.678 88.54L115.928 81.22H120.128L114.758 96.25C114.458 97.13 114.108 97.95 113.708 98.71C113.328 99.49 112.878 100.17 112.358 100.75C111.838 101.35 111.218 101.81 110.498 102.13C109.798 102.47 108.978 102.64 108.038 102.64Z" fill="#B87648"/>
</svg>
