<svg width="350" height="780" viewBox="0 0 350 780" fill="none" xmlns="http://www.w3.org/2000/svg">
<rect width="350" height="780" fill="white"/>
<rect x="75" y="75" width="200" height="120" rx="10" fill="#D9D9D9"/>
<path d="M92.6133 140H89.4712V129.818H92.7525C93.7402 129.818 94.5853 130.022 95.288 130.43C95.9906 130.834 96.5292 131.416 96.9038 132.175C97.2783 132.93 97.4656 133.835 97.4656 134.889C97.4656 135.95 97.2766 136.863 96.8988 137.629C96.521 138.391 95.9708 138.978 95.2482 139.388C94.5257 139.796 93.6474 140 92.6133 140ZM90.7042 138.906H92.5337C93.3756 138.906 94.0733 138.744 94.6268 138.419C95.1803 138.094 95.5929 137.632 95.8647 137.032C96.1365 136.432 96.2724 135.718 96.2724 134.889C96.2724 134.067 96.1381 133.36 95.8697 132.766C95.6012 132.17 95.2002 131.712 94.6665 131.394C94.1329 131.073 93.4684 130.912 92.6729 130.912H90.7042V138.906ZM102.576 140.159C101.841 140.159 101.206 139.997 100.672 139.672C100.142 139.344 99.7326 138.886 99.4442 138.3C99.1592 137.71 99.0167 137.024 99.0167 136.241C99.0167 135.459 99.1592 134.77 99.4442 134.173C99.7326 133.573 100.134 133.106 100.647 132.771C101.164 132.433 101.768 132.264 102.457 132.264C102.855 132.264 103.248 132.33 103.635 132.463C104.023 132.596 104.376 132.811 104.694 133.109C105.012 133.404 105.266 133.795 105.455 134.283C105.644 134.77 105.738 135.37 105.738 136.082V136.58H99.8519V135.565H104.545C104.545 135.134 104.459 134.75 104.287 134.412C104.118 134.074 103.876 133.807 103.561 133.612C103.249 133.416 102.881 133.318 102.457 133.318C101.99 133.318 101.585 133.434 101.244 133.666C100.906 133.895 100.646 134.193 100.463 134.561C100.281 134.929 100.19 135.323 100.19 135.744V136.42C100.19 136.997 100.289 137.486 100.488 137.887C100.69 138.285 100.971 138.588 101.328 138.797C101.686 139.002 102.102 139.105 102.576 139.105C102.885 139.105 103.163 139.062 103.412 138.976C103.663 138.886 103.881 138.754 104.063 138.578C104.245 138.399 104.386 138.177 104.485 137.912L105.619 138.23C105.5 138.615 105.299 138.953 105.017 139.244C104.736 139.533 104.388 139.758 103.973 139.92C103.559 140.08 103.093 140.159 102.576 140.159ZM113.535 132.364L110.711 140H109.518L106.694 132.364H107.967L110.075 138.449H110.154L112.262 132.364H113.535ZM115.084 140V132.364H116.257V140H115.084ZM115.68 131.091C115.452 131.091 115.254 131.013 115.089 130.857C114.926 130.701 114.845 130.514 114.845 130.295C114.845 130.077 114.926 129.889 115.089 129.734C115.254 129.578 115.452 129.5 115.68 129.5C115.909 129.5 116.104 129.578 116.267 129.734C116.433 129.889 116.515 130.077 116.515 130.295C116.515 130.514 116.433 130.701 116.267 130.857C116.104 131.013 115.909 131.091 115.68 131.091ZM121.508 140.159C120.792 140.159 120.176 139.99 119.659 139.652C119.142 139.314 118.744 138.848 118.466 138.255C118.187 137.662 118.048 136.984 118.048 136.222C118.048 135.446 118.19 134.762 118.475 134.168C118.764 133.572 119.165 133.106 119.679 132.771C120.196 132.433 120.799 132.264 121.488 132.264C122.025 132.264 122.509 132.364 122.94 132.562C123.371 132.761 123.724 133.04 123.999 133.398C124.274 133.756 124.445 134.173 124.511 134.651H123.338C123.248 134.303 123.049 133.994 122.741 133.726C122.436 133.454 122.025 133.318 121.508 133.318C121.051 133.318 120.65 133.437 120.305 133.676C119.964 133.911 119.697 134.245 119.505 134.675C119.316 135.103 119.221 135.605 119.221 136.182C119.221 136.772 119.314 137.286 119.5 137.723C119.689 138.161 119.954 138.5 120.295 138.742C120.64 138.984 121.044 139.105 121.508 139.105C121.813 139.105 122.09 139.052 122.338 138.946C122.587 138.84 122.797 138.688 122.97 138.489C123.142 138.29 123.265 138.051 123.338 137.773H124.511C124.445 138.223 124.281 138.629 124.019 138.991C123.76 139.349 123.417 139.634 122.99 139.846C122.565 140.055 122.072 140.159 121.508 140.159ZM129.428 140.159C128.692 140.159 128.057 139.997 127.524 139.672C126.993 139.344 126.584 138.886 126.296 138.3C126.011 137.71 125.868 137.024 125.868 136.241C125.868 135.459 126.011 134.77 126.296 134.173C126.584 133.573 126.985 133.106 127.499 132.771C128.016 132.433 128.619 132.264 129.309 132.264C129.706 132.264 130.099 132.33 130.487 132.463C130.875 132.596 131.228 132.811 131.546 133.109C131.864 133.404 132.118 133.795 132.306 134.283C132.495 134.77 132.59 135.37 132.59 136.082V136.58H126.703V135.565H131.397C131.397 135.134 131.31 134.75 131.138 134.412C130.969 134.074 130.727 133.807 130.412 133.612C130.101 133.416 129.733 133.318 129.309 133.318C128.841 133.318 128.437 133.434 128.096 133.666C127.757 133.895 127.497 134.193 127.315 134.561C127.133 134.929 127.042 135.323 127.042 135.744V136.42C127.042 136.997 127.141 137.486 127.34 137.887C127.542 138.285 127.822 138.588 128.18 138.797C128.538 139.002 128.954 139.105 129.428 139.105C129.736 139.105 130.015 139.062 130.263 138.976C130.515 138.886 130.732 138.754 130.914 138.578C131.097 138.399 131.238 138.177 131.337 137.912L132.471 138.23C132.351 138.615 132.151 138.953 131.869 139.244C131.587 139.533 131.239 139.758 130.825 139.92C130.411 140.08 129.945 140.159 129.428 140.159ZM138.312 140V132.364H139.485V140H138.312ZM138.909 131.091C138.68 131.091 138.483 131.013 138.317 130.857C138.155 130.701 138.074 130.514 138.074 130.295C138.074 130.077 138.155 129.889 138.317 129.734C138.483 129.578 138.68 129.5 138.909 129.5C139.137 129.5 139.333 129.578 139.495 129.734C139.661 129.889 139.744 130.077 139.744 130.295C139.744 130.514 139.661 130.701 139.495 130.857C139.333 131.013 139.137 131.091 138.909 131.091ZM147.044 134.074L145.99 134.372C145.923 134.196 145.825 134.026 145.696 133.86C145.57 133.691 145.398 133.552 145.179 133.442C144.96 133.333 144.68 133.278 144.339 133.278C143.872 133.278 143.482 133.386 143.171 133.602C142.862 133.814 142.708 134.084 142.708 134.412C142.708 134.704 142.814 134.934 143.026 135.103C143.239 135.272 143.57 135.413 144.021 135.526L145.154 135.804C145.837 135.97 146.346 136.223 146.681 136.565C147.015 136.903 147.183 137.339 147.183 137.872C147.183 138.31 147.057 138.701 146.805 139.045C146.556 139.39 146.208 139.662 145.761 139.861C145.313 140.06 144.793 140.159 144.2 140.159C143.421 140.159 142.776 139.99 142.266 139.652C141.755 139.314 141.432 138.82 141.296 138.17L142.41 137.892C142.516 138.303 142.717 138.611 143.012 138.817C143.31 139.022 143.699 139.125 144.18 139.125C144.727 139.125 145.161 139.009 145.482 138.777C145.807 138.542 145.97 138.26 145.97 137.932C145.97 137.667 145.877 137.445 145.691 137.266C145.506 137.083 145.221 136.947 144.836 136.858L143.563 136.56C142.864 136.394 142.35 136.137 142.022 135.789C141.697 135.438 141.535 134.999 141.535 134.472C141.535 134.041 141.656 133.66 141.898 133.328C142.143 132.997 142.476 132.737 142.897 132.548C143.321 132.359 143.802 132.264 144.339 132.264C145.095 132.264 145.688 132.43 146.119 132.761C146.553 133.093 146.861 133.53 147.044 134.074ZM152.886 140V132.364H154.02V133.517H154.099C154.239 133.139 154.491 132.833 154.855 132.597C155.22 132.362 155.631 132.244 156.088 132.244C156.174 132.244 156.282 132.246 156.411 132.249C156.54 132.253 156.638 132.258 156.705 132.264V133.457C156.665 133.447 156.574 133.433 156.431 133.413C156.292 133.389 156.144 133.378 155.989 133.378C155.617 133.378 155.286 133.456 154.994 133.612C154.706 133.764 154.477 133.976 154.308 134.248C154.143 134.516 154.06 134.823 154.06 135.168V140H152.886ZM162.908 136.878V132.364H164.081V140H162.908V138.707H162.828C162.649 139.095 162.371 139.425 161.993 139.697C161.615 139.965 161.138 140.099 160.561 140.099C160.084 140.099 159.66 139.995 159.289 139.786C158.917 139.574 158.626 139.256 158.414 138.832C158.201 138.404 158.095 137.866 158.095 137.216V132.364H159.269V137.136C159.269 137.693 159.424 138.137 159.736 138.469C160.051 138.8 160.452 138.966 160.939 138.966C161.231 138.966 161.527 138.891 161.829 138.742C162.134 138.593 162.389 138.364 162.595 138.056C162.803 137.748 162.908 137.355 162.908 136.878ZM167.403 135.406V140H166.23V132.364H167.364V133.557H167.463C167.642 133.169 167.914 132.857 168.278 132.622C168.643 132.384 169.114 132.264 169.69 132.264C170.207 132.264 170.66 132.37 171.048 132.582C171.435 132.791 171.737 133.109 171.952 133.537C172.168 133.961 172.276 134.498 172.276 135.148V140H171.102V135.227C171.102 134.627 170.946 134.16 170.635 133.825C170.323 133.487 169.896 133.318 169.352 133.318C168.978 133.318 168.643 133.399 168.348 133.562C168.056 133.724 167.826 133.961 167.657 134.273C167.488 134.584 167.403 134.962 167.403 135.406ZM175.593 135.406V140H174.42V132.364H175.553V133.557H175.653C175.831 133.169 176.103 132.857 176.468 132.622C176.832 132.384 177.303 132.264 177.88 132.264C178.397 132.264 178.849 132.37 179.237 132.582C179.625 132.791 179.926 133.109 180.142 133.537C180.357 133.961 180.465 134.498 180.465 135.148V140H179.292V135.227C179.292 134.627 179.136 134.16 178.824 133.825C178.513 133.487 178.085 133.318 177.542 133.318C177.167 133.318 176.832 133.399 176.537 133.562C176.246 133.724 176.015 133.961 175.846 134.273C175.677 134.584 175.593 134.962 175.593 135.406ZM182.609 140V132.364H183.782V140H182.609ZM183.206 131.091C182.977 131.091 182.78 131.013 182.614 130.857C182.452 130.701 182.37 130.514 182.37 130.295C182.37 130.077 182.452 129.889 182.614 129.734C182.78 129.578 182.977 129.5 183.206 129.5C183.434 129.5 183.63 129.578 183.792 129.734C183.958 129.889 184.041 130.077 184.041 130.295C184.041 130.514 183.958 130.701 183.792 130.857C183.63 131.013 183.434 131.091 183.206 131.091ZM187.105 135.406V140H185.931V132.364H187.065V133.557H187.164C187.343 133.169 187.615 132.857 187.98 132.622C188.344 132.384 188.815 132.264 189.392 132.264C189.909 132.264 190.361 132.37 190.749 132.582C191.137 132.791 191.438 133.109 191.654 133.537C191.869 133.961 191.977 134.498 191.977 135.148V140H190.803V135.227C190.803 134.627 190.648 134.16 190.336 133.825C190.025 133.487 189.597 133.318 189.053 133.318C188.679 133.318 188.344 133.399 188.049 133.562C187.758 133.724 187.527 133.961 187.358 134.273C187.189 134.584 187.105 134.962 187.105 135.406ZM197.203 143.023C196.636 143.023 196.149 142.95 195.741 142.804C195.334 142.661 194.994 142.473 194.722 142.237C194.454 142.005 194.24 141.757 194.081 141.491L195.016 140.835C195.122 140.974 195.256 141.134 195.418 141.312C195.581 141.495 195.803 141.652 196.085 141.785C196.37 141.921 196.742 141.989 197.203 141.989C197.82 141.989 198.328 141.839 198.729 141.541C199.13 141.243 199.331 140.776 199.331 140.139V138.588H199.232C199.145 138.727 199.023 138.9 198.864 139.105C198.708 139.307 198.482 139.488 198.188 139.647C197.896 139.803 197.501 139.881 197.004 139.881C196.388 139.881 195.834 139.735 195.344 139.443C194.857 139.152 194.47 138.727 194.185 138.17C193.904 137.614 193.763 136.937 193.763 136.142C193.763 135.36 193.9 134.679 194.175 134.099C194.451 133.515 194.833 133.065 195.324 132.746C195.814 132.425 196.381 132.264 197.024 132.264C197.521 132.264 197.916 132.347 198.207 132.513C198.502 132.675 198.728 132.861 198.884 133.07C199.043 133.275 199.165 133.444 199.251 133.577H199.371V132.364H200.504V140.219C200.504 140.875 200.355 141.409 200.057 141.82C199.762 142.234 199.364 142.537 198.864 142.729C198.366 142.925 197.813 143.023 197.203 143.023ZM197.163 138.827C197.634 138.827 198.032 138.719 198.357 138.504C198.681 138.288 198.928 137.978 199.097 137.574C199.266 137.17 199.351 136.686 199.351 136.122C199.351 135.572 199.268 135.086 199.102 134.665C198.937 134.245 198.691 133.915 198.366 133.676C198.042 133.437 197.641 133.318 197.163 133.318C196.666 133.318 196.252 133.444 195.92 133.696C195.592 133.948 195.345 134.286 195.18 134.71C195.017 135.134 194.936 135.605 194.936 136.122C194.936 136.652 195.019 137.121 195.185 137.529C195.354 137.933 195.602 138.252 195.93 138.484C196.262 138.712 196.673 138.827 197.163 138.827ZM207.763 135.406V140H206.589V132.364H207.723V133.557H207.822C208.001 133.169 208.273 132.857 208.638 132.622C209.002 132.384 209.473 132.264 210.05 132.264C210.567 132.264 211.019 132.37 211.407 132.582C211.795 132.791 212.096 133.109 212.312 133.537C212.527 133.961 212.635 134.498 212.635 135.148V140H211.462V135.227C211.462 134.627 211.306 134.16 210.994 133.825C210.683 133.487 210.255 133.318 209.712 133.318C209.337 133.318 209.002 133.399 208.707 133.562C208.416 133.724 208.185 133.961 208.016 134.273C207.847 134.584 207.763 134.962 207.763 135.406ZM217.881 140.159C217.192 140.159 216.587 139.995 216.067 139.667C215.55 139.339 215.145 138.88 214.854 138.29C214.565 137.7 214.421 137.01 214.421 136.222C214.421 135.426 214.565 134.732 214.854 134.138C215.145 133.545 215.55 133.085 216.067 132.756C216.587 132.428 217.192 132.264 217.881 132.264C218.571 132.264 219.174 132.428 219.691 132.756C220.211 133.085 220.616 133.545 220.904 134.138C221.196 134.732 221.341 135.426 221.341 136.222C221.341 137.01 221.196 137.7 220.904 138.29C220.616 138.88 220.211 139.339 219.691 139.667C219.174 139.995 218.571 140.159 217.881 140.159ZM217.881 139.105C218.405 139.105 218.836 138.971 219.174 138.702C219.512 138.434 219.762 138.081 219.925 137.643C220.087 137.206 220.168 136.732 220.168 136.222C220.168 135.711 220.087 135.236 219.925 134.795C219.762 134.354 219.512 133.998 219.174 133.726C218.836 133.454 218.405 133.318 217.881 133.318C217.358 133.318 216.927 133.454 216.589 133.726C216.251 133.998 216 134.354 215.838 134.795C215.675 135.236 215.594 135.711 215.594 136.222C215.594 136.732 215.675 137.206 215.838 137.643C216 138.081 216.251 138.434 216.589 138.702C216.927 138.971 217.358 139.105 217.881 139.105ZM223.132 140V132.364H224.266V133.517H224.346C224.485 133.139 224.737 132.833 225.101 132.597C225.466 132.362 225.877 132.244 226.334 132.244C226.42 132.244 226.528 132.246 226.657 132.249C226.787 132.253 226.884 132.258 226.951 132.264V133.457C226.911 133.447 226.82 133.433 226.677 133.413C226.538 133.389 226.391 133.378 226.235 133.378C225.864 133.378 225.532 133.456 225.24 133.612C224.952 133.764 224.723 133.976 224.554 134.248C224.389 134.516 224.306 134.823 224.306 135.168V140H223.132ZM228.341 140V132.364H229.475V133.557H229.574C229.733 133.149 229.99 132.833 230.345 132.607C230.7 132.379 231.126 132.264 231.623 132.264C232.126 132.264 232.546 132.379 232.881 132.607C233.219 132.833 233.482 133.149 233.671 133.557H233.751C233.946 133.162 234.239 132.849 234.631 132.617C235.022 132.382 235.491 132.264 236.037 132.264C236.72 132.264 237.279 132.478 237.713 132.906C238.147 133.33 238.364 133.991 238.364 134.889V140H237.191V134.889C237.191 134.326 237.037 133.923 236.729 133.681C236.42 133.439 236.057 133.318 235.64 133.318C235.103 133.318 234.687 133.481 234.392 133.805C234.097 134.127 233.949 134.535 233.949 135.028V140H232.756V134.77C232.756 134.336 232.615 133.986 232.334 133.721C232.052 133.452 231.689 133.318 231.245 133.318C230.94 133.318 230.655 133.399 230.39 133.562C230.128 133.724 229.916 133.95 229.753 134.238C229.594 134.523 229.515 134.853 229.515 135.227V140H228.341ZM242.757 140.179C242.273 140.179 241.834 140.088 241.439 139.906C241.045 139.72 240.731 139.453 240.499 139.105C240.267 138.754 240.151 138.33 240.151 137.832C240.151 137.395 240.238 137.04 240.41 136.768C240.582 136.493 240.813 136.278 241.101 136.122C241.389 135.966 241.708 135.85 242.056 135.774C242.407 135.695 242.76 135.632 243.115 135.585C243.579 135.526 243.955 135.481 244.243 135.451C244.535 135.418 244.747 135.363 244.879 135.287C245.015 135.211 245.083 135.078 245.083 134.889V134.849C245.083 134.359 244.949 133.978 244.681 133.706C244.415 133.434 244.013 133.298 243.472 133.298C242.912 133.298 242.473 133.421 242.155 133.666C241.837 133.911 241.613 134.173 241.484 134.452L240.37 134.054C240.569 133.59 240.834 133.229 241.166 132.97C241.5 132.708 241.865 132.526 242.259 132.423C242.657 132.317 243.048 132.264 243.433 132.264C243.678 132.264 243.96 132.294 244.278 132.354C244.599 132.41 244.909 132.528 245.208 132.707C245.509 132.886 245.759 133.156 245.958 133.517C246.157 133.878 246.257 134.362 246.257 134.969V140H245.083V138.966H245.024C244.944 139.132 244.811 139.309 244.626 139.498C244.44 139.687 244.193 139.848 243.885 139.98C243.577 140.113 243.201 140.179 242.757 140.179ZM242.936 139.125C243.4 139.125 243.791 139.034 244.109 138.852C244.43 138.669 244.672 138.434 244.835 138.146C245 137.857 245.083 137.554 245.083 137.236V136.162C245.034 136.222 244.924 136.276 244.755 136.326C244.589 136.372 244.397 136.414 244.178 136.45C243.963 136.483 243.753 136.513 243.547 136.54C243.345 136.563 243.181 136.583 243.055 136.599C242.75 136.639 242.465 136.704 242.2 136.793C241.938 136.879 241.726 137.01 241.563 137.186C241.404 137.358 241.325 137.594 241.325 137.892C241.325 138.3 241.476 138.608 241.777 138.817C242.082 139.022 242.468 139.125 242.936 139.125ZM249.571 129.818V140H248.398V129.818H249.571ZM252.894 129.818V140H251.72V129.818H252.894ZM255.798 142.864C255.599 142.864 255.422 142.847 255.266 142.814C255.111 142.784 255.003 142.754 254.943 142.724L255.241 141.69C255.527 141.763 255.778 141.79 255.997 141.77C256.216 141.75 256.41 141.652 256.579 141.477C256.751 141.304 256.909 141.024 257.051 140.636L257.27 140.04L254.446 132.364H255.719L257.827 138.449H257.906L260.014 132.364H261.287L258.045 141.114C257.9 141.508 257.719 141.835 257.504 142.093C257.288 142.355 257.038 142.549 256.753 142.675C256.471 142.801 256.153 142.864 255.798 142.864Z" fill="black"/>
<rect x="75" y="245" width="200" height="120" rx="10" fill="#D9D9D9"/>
<path d="M105.833 291.818H107.066V298.56C107.066 299.256 106.902 299.877 106.574 300.424C106.249 300.968 105.79 301.397 105.196 301.712C104.603 302.023 103.907 302.179 103.108 302.179C102.31 302.179 101.614 302.023 101.02 301.712C100.427 301.397 99.9663 300.968 99.6381 300.424C99.3133 299.877 99.1509 299.256 99.1509 298.56V291.818H100.384V298.46C100.384 298.957 100.493 299.4 100.712 299.788C100.931 300.172 101.242 300.475 101.647 300.697C102.054 300.916 102.542 301.026 103.108 301.026C103.675 301.026 104.162 300.916 104.57 300.697C104.978 300.475 105.289 300.172 105.505 299.788C105.723 299.4 105.833 298.957 105.833 298.46V291.818ZM114.778 296.074L113.724 296.372C113.658 296.196 113.56 296.026 113.431 295.86C113.305 295.691 113.132 295.552 112.914 295.442C112.695 295.333 112.415 295.278 112.073 295.278C111.606 295.278 111.217 295.386 110.905 295.602C110.597 295.814 110.443 296.084 110.443 296.412C110.443 296.704 110.549 296.934 110.761 297.103C110.973 297.272 111.304 297.413 111.755 297.526L112.889 297.804C113.571 297.97 114.08 298.223 114.415 298.565C114.75 298.903 114.917 299.339 114.917 299.872C114.917 300.31 114.791 300.701 114.539 301.045C114.291 301.39 113.943 301.662 113.495 301.861C113.048 302.06 112.527 302.159 111.934 302.159C111.155 302.159 110.511 301.99 110 301.652C109.49 301.314 109.167 300.82 109.031 300.17L110.144 299.892C110.25 300.303 110.451 300.611 110.746 300.817C111.044 301.022 111.434 301.125 111.914 301.125C112.461 301.125 112.895 301.009 113.217 300.777C113.542 300.542 113.704 300.26 113.704 299.932C113.704 299.667 113.611 299.445 113.426 299.266C113.24 299.083 112.955 298.947 112.57 298.858L111.298 298.56C110.598 298.394 110.085 298.137 109.757 297.789C109.432 297.438 109.269 296.999 109.269 296.472C109.269 296.041 109.39 295.66 109.632 295.328C109.878 294.997 110.211 294.737 110.632 294.548C111.056 294.359 111.536 294.264 112.073 294.264C112.829 294.264 113.422 294.43 113.853 294.761C114.287 295.093 114.596 295.53 114.778 296.074ZM119.885 302.159C119.149 302.159 118.514 301.997 117.981 301.672C117.451 301.344 117.041 300.886 116.753 300.3C116.468 299.71 116.325 299.024 116.325 298.241C116.325 297.459 116.468 296.77 116.753 296.173C117.041 295.573 117.442 295.106 117.956 294.771C118.473 294.433 119.076 294.264 119.766 294.264C120.163 294.264 120.556 294.33 120.944 294.463C121.332 294.596 121.685 294.811 122.003 295.109C122.321 295.404 122.575 295.795 122.763 296.283C122.952 296.77 123.047 297.37 123.047 298.082V298.58H117.161V297.565H121.854C121.854 297.134 121.768 296.75 121.595 296.412C121.426 296.074 121.184 295.807 120.869 295.612C120.558 295.416 120.19 295.318 119.766 295.318C119.298 295.318 118.894 295.434 118.553 295.666C118.214 295.895 117.954 296.193 117.772 296.561C117.59 296.929 117.499 297.323 117.499 297.744V298.42C117.499 298.997 117.598 299.486 117.797 299.887C117.999 300.285 118.279 300.588 118.637 300.797C118.995 301.002 119.411 301.105 119.885 301.105C120.193 301.105 120.472 301.062 120.72 300.976C120.972 300.886 121.189 300.754 121.371 300.578C121.554 300.399 121.695 300.177 121.794 299.912L122.928 300.23C122.808 300.615 122.608 300.953 122.326 301.244C122.044 301.533 121.696 301.758 121.282 301.92C120.868 302.08 120.402 302.159 119.885 302.159ZM124.832 302V294.364H125.965V295.517H126.045C126.184 295.139 126.436 294.833 126.8 294.597C127.165 294.362 127.576 294.244 128.033 294.244C128.12 294.244 128.227 294.246 128.357 294.249C128.486 294.253 128.584 294.258 128.65 294.264V295.457C128.61 295.447 128.519 295.433 128.376 295.413C128.237 295.389 128.09 295.378 127.934 295.378C127.563 295.378 127.231 295.456 126.94 295.612C126.651 295.764 126.423 295.976 126.254 296.248C126.088 296.516 126.005 296.823 126.005 297.168V302H124.832ZM135.151 297.406V302H133.978V291.818H135.151V295.557H135.251C135.43 295.162 135.698 294.849 136.056 294.617C136.418 294.382 136.898 294.264 137.498 294.264C138.018 294.264 138.474 294.369 138.865 294.577C139.256 294.783 139.56 295.099 139.775 295.527C139.994 295.951 140.103 296.491 140.103 297.148V302H138.93V297.227C138.93 296.621 138.772 296.152 138.458 295.82C138.146 295.486 137.713 295.318 137.16 295.318C136.776 295.318 136.431 295.399 136.126 295.562C135.824 295.724 135.586 295.961 135.41 296.273C135.238 296.584 135.151 296.962 135.151 297.406ZM145.352 302.159C144.663 302.159 144.058 301.995 143.537 301.667C143.02 301.339 142.616 300.88 142.324 300.29C142.036 299.7 141.892 299.01 141.892 298.222C141.892 297.426 142.036 296.732 142.324 296.138C142.616 295.545 143.02 295.085 143.537 294.756C144.058 294.428 144.663 294.264 145.352 294.264C146.041 294.264 146.645 294.428 147.162 294.756C147.682 295.085 148.086 295.545 148.375 296.138C148.666 296.732 148.812 297.426 148.812 298.222C148.812 299.01 148.666 299.7 148.375 300.29C148.086 300.88 147.682 301.339 147.162 301.667C146.645 301.995 146.041 302.159 145.352 302.159ZM145.352 301.105C145.876 301.105 146.306 300.971 146.645 300.702C146.983 300.434 147.233 300.081 147.395 299.643C147.558 299.206 147.639 298.732 147.639 298.222C147.639 297.711 147.558 297.236 147.395 296.795C147.233 296.354 146.983 295.998 146.645 295.726C146.306 295.454 145.876 295.318 145.352 295.318C144.828 295.318 144.397 295.454 144.059 295.726C143.721 295.998 143.471 296.354 143.309 296.795C143.146 297.236 143.065 297.711 143.065 298.222C143.065 298.732 143.146 299.206 143.309 299.643C143.471 300.081 143.721 300.434 144.059 300.702C144.397 300.971 144.828 301.105 145.352 301.105ZM151.776 291.818V302H150.603V291.818H151.776ZM156.809 302.159C156.173 302.159 155.611 301.998 155.124 301.677C154.636 301.352 154.255 300.895 153.98 300.305C153.705 299.711 153.567 299.01 153.567 298.202C153.567 297.4 153.705 296.704 153.98 296.114C154.255 295.524 154.638 295.068 155.129 294.746C155.619 294.425 156.186 294.264 156.829 294.264C157.326 294.264 157.719 294.347 158.007 294.513C158.299 294.675 158.521 294.861 158.673 295.07C158.829 295.275 158.95 295.444 159.036 295.577H159.136V291.818H160.309V302H159.175V300.827H159.036C158.95 300.966 158.827 301.142 158.668 301.354C158.509 301.562 158.282 301.75 157.987 301.915C157.692 302.078 157.299 302.159 156.809 302.159ZM156.968 301.105C157.439 301.105 157.836 300.982 158.161 300.737C158.486 300.489 158.733 300.146 158.902 299.708C159.071 299.267 159.156 298.759 159.156 298.182C159.156 297.612 159.073 297.113 158.907 296.685C158.741 296.254 158.496 295.92 158.171 295.681C157.846 295.439 157.445 295.318 156.968 295.318C156.471 295.318 156.057 295.446 155.725 295.701C155.397 295.953 155.15 296.296 154.984 296.73C154.822 297.161 154.741 297.645 154.741 298.182C154.741 298.725 154.824 299.219 154.989 299.663C155.158 300.104 155.407 300.455 155.735 300.717C156.067 300.976 156.478 301.105 156.968 301.105ZM168.03 296.074L166.976 296.372C166.91 296.196 166.812 296.026 166.683 295.86C166.557 295.691 166.384 295.552 166.165 295.442C165.947 295.333 165.667 295.278 165.325 295.278C164.858 295.278 164.469 295.386 164.157 295.602C163.849 295.814 163.695 296.084 163.695 296.412C163.695 296.704 163.801 296.934 164.013 297.103C164.225 297.272 164.556 297.413 165.007 297.526L166.141 297.804C166.823 297.97 167.332 298.223 167.667 298.565C168.002 298.903 168.169 299.339 168.169 299.872C168.169 300.31 168.043 300.701 167.791 301.045C167.543 301.39 167.195 301.662 166.747 301.861C166.3 302.06 165.779 302.159 165.186 302.159C164.407 302.159 163.763 301.99 163.252 301.652C162.742 301.314 162.419 300.82 162.283 300.17L163.396 299.892C163.502 300.303 163.703 300.611 163.998 300.817C164.296 301.022 164.686 301.125 165.166 301.125C165.713 301.125 166.147 301.009 166.469 300.777C166.794 300.542 166.956 300.26 166.956 299.932C166.956 299.667 166.863 299.445 166.678 299.266C166.492 299.083 166.207 298.947 165.822 298.858L164.55 298.56C163.85 298.394 163.337 298.137 163.009 297.789C162.684 297.438 162.521 296.999 162.521 296.472C162.521 296.041 162.642 295.66 162.884 295.328C163.129 294.997 163.463 294.737 163.884 294.548C164.308 294.359 164.788 294.264 165.325 294.264C166.081 294.264 166.674 294.43 167.105 294.761C167.539 295.093 167.848 295.53 168.03 296.074ZM176.756 302.159C176.12 302.159 175.558 301.998 175.071 301.677C174.584 301.352 174.202 300.895 173.927 300.305C173.652 299.711 173.515 299.01 173.515 298.202C173.515 297.4 173.652 296.704 173.927 296.114C174.202 295.524 174.585 295.068 175.076 294.746C175.566 294.425 176.133 294.264 176.776 294.264C177.273 294.264 177.666 294.347 177.954 294.513C178.246 294.675 178.468 294.861 178.621 295.07C178.776 295.275 178.897 295.444 178.983 295.577H179.083V291.818H180.256V302H179.123V300.827H178.983C178.897 300.966 178.775 301.142 178.616 301.354C178.456 301.562 178.229 301.75 177.934 301.915C177.64 302.078 177.247 302.159 176.756 302.159ZM176.915 301.105C177.386 301.105 177.784 300.982 178.108 300.737C178.433 300.489 178.68 300.146 178.849 299.708C179.018 299.267 179.103 298.759 179.103 298.182C179.103 297.612 179.02 297.113 178.854 296.685C178.689 296.254 178.443 295.92 178.118 295.681C177.794 295.439 177.393 295.318 176.915 295.318C176.418 295.318 176.004 295.446 175.672 295.701C175.344 295.953 175.097 296.296 174.932 296.73C174.769 297.161 174.688 297.645 174.688 298.182C174.688 298.725 174.771 299.219 174.937 299.663C175.106 300.104 175.354 300.455 175.682 300.717C176.014 300.976 176.425 301.105 176.915 301.105ZM185.67 302.159C184.981 302.159 184.376 301.995 183.856 301.667C183.339 301.339 182.934 300.88 182.643 300.29C182.354 299.7 182.21 299.01 182.21 298.222C182.21 297.426 182.354 296.732 182.643 296.138C182.934 295.545 183.339 295.085 183.856 294.756C184.376 294.428 184.981 294.264 185.67 294.264C186.36 294.264 186.963 294.428 187.48 294.756C188 295.085 188.405 295.545 188.693 296.138C188.985 296.732 189.131 297.426 189.131 298.222C189.131 299.01 188.985 299.7 188.693 300.29C188.405 300.88 188 301.339 187.48 301.667C186.963 301.995 186.36 302.159 185.67 302.159ZM185.67 301.105C186.194 301.105 186.625 300.971 186.963 300.702C187.301 300.434 187.551 300.081 187.714 299.643C187.876 299.206 187.957 298.732 187.957 298.222C187.957 297.711 187.876 297.236 187.714 296.795C187.551 296.354 187.301 295.998 186.963 295.726C186.625 295.454 186.194 295.318 185.67 295.318C185.147 295.318 184.716 295.454 184.378 295.726C184.04 295.998 183.789 296.354 183.627 296.795C183.465 297.236 183.383 297.711 183.383 298.222C183.383 298.732 183.465 299.206 183.627 299.643C183.789 300.081 184.04 300.434 184.378 300.702C184.716 300.971 185.147 301.105 185.67 301.105ZM192.392 302L190.065 294.364H191.298L192.949 300.21H193.028L194.659 294.364H195.912L197.523 300.19H197.602L199.253 294.364H200.486L198.159 302H197.006L195.335 296.134H195.216L193.545 302H192.392ZM203.21 297.406V302H202.037V294.364H203.17V295.557H203.27C203.449 295.169 203.72 294.857 204.085 294.622C204.45 294.384 204.92 294.264 205.497 294.264C206.014 294.264 206.466 294.37 206.854 294.582C207.242 294.791 207.544 295.109 207.759 295.537C207.974 295.961 208.082 296.498 208.082 297.148V302H206.909V297.227C206.909 296.627 206.753 296.16 206.442 295.825C206.13 295.487 205.702 295.318 205.159 295.318C204.784 295.318 204.45 295.399 204.155 295.562C203.863 295.724 203.633 295.961 203.464 296.273C203.295 296.584 203.21 296.962 203.21 297.406ZM214.323 302V291.818H217.882C218.592 291.818 219.177 291.941 219.637 292.186C220.098 292.428 220.441 292.754 220.667 293.165C220.892 293.573 221.005 294.026 221.005 294.523C221.005 294.96 220.927 295.321 220.771 295.607C220.618 295.892 220.416 296.117 220.164 296.283C219.916 296.448 219.646 296.571 219.354 296.651V296.75C219.666 296.77 219.979 296.879 220.294 297.078C220.609 297.277 220.872 297.562 221.084 297.933C221.296 298.304 221.402 298.759 221.402 299.295C221.402 299.806 221.286 300.265 221.054 300.673C220.822 301.08 220.456 301.403 219.956 301.642C219.455 301.881 218.804 302 218.002 302H214.323ZM215.556 300.906H218.002C218.807 300.906 219.379 300.75 219.717 300.439C220.058 300.124 220.229 299.743 220.229 299.295C220.229 298.951 220.141 298.633 219.966 298.341C219.79 298.046 219.54 297.811 219.215 297.635C218.89 297.456 218.506 297.366 218.061 297.366H215.556V300.906ZM215.556 296.293H217.843C218.214 296.293 218.549 296.22 218.847 296.074C219.149 295.928 219.387 295.723 219.563 295.457C219.742 295.192 219.831 294.881 219.831 294.523C219.831 294.075 219.676 293.696 219.364 293.384C219.052 293.069 218.559 292.912 217.882 292.912H215.556V296.293ZM232.019 296.909C232.019 297.983 231.825 298.911 231.438 299.693C231.05 300.475 230.518 301.079 229.842 301.503C229.165 301.927 228.393 302.139 227.525 302.139C226.656 302.139 225.884 301.927 225.208 301.503C224.532 301.079 224 300.475 223.612 299.693C223.224 298.911 223.031 297.983 223.031 296.909C223.031 295.835 223.224 294.907 223.612 294.125C224 293.343 224.532 292.74 225.208 292.315C225.884 291.891 226.656 291.679 227.525 291.679C228.393 291.679 229.165 291.891 229.842 292.315C230.518 292.74 231.05 293.343 231.438 294.125C231.825 294.907 232.019 295.835 232.019 296.909ZM230.826 296.909C230.826 296.027 230.679 295.283 230.384 294.677C230.092 294.07 229.696 293.611 229.195 293.3C228.698 292.988 228.141 292.832 227.525 292.832C226.908 292.832 226.35 292.988 225.849 293.3C225.352 293.611 224.956 294.07 224.661 294.677C224.37 295.283 224.224 296.027 224.224 296.909C224.224 297.791 224.37 298.535 224.661 299.141C224.956 299.748 225.352 300.207 225.849 300.518C226.35 300.83 226.908 300.986 227.525 300.986C228.141 300.986 228.698 300.83 229.195 300.518C229.696 300.207 230.092 299.748 230.384 299.141C230.679 298.535 230.826 297.791 230.826 296.909ZM242.683 296.909C242.683 297.983 242.489 298.911 242.102 299.693C241.714 300.475 241.182 301.079 240.506 301.503C239.83 301.927 239.057 302.139 238.189 302.139C237.321 302.139 236.548 301.927 235.872 301.503C235.196 301.079 234.664 300.475 234.276 299.693C233.888 298.911 233.695 297.983 233.695 296.909C233.695 295.835 233.888 294.907 234.276 294.125C234.664 293.343 235.196 292.74 235.872 292.315C236.548 291.891 237.321 291.679 238.189 291.679C239.057 291.679 239.83 291.891 240.506 292.315C241.182 292.74 241.714 293.343 242.102 294.125C242.489 294.907 242.683 295.835 242.683 296.909ZM241.49 296.909C241.49 296.027 241.343 295.283 241.048 294.677C240.756 294.07 240.36 293.611 239.859 293.3C239.362 292.988 238.805 292.832 238.189 292.832C237.572 292.832 237.014 292.988 236.513 293.3C236.016 293.611 235.62 294.07 235.325 294.677C235.034 295.283 234.888 296.027 234.888 296.909C234.888 297.791 235.034 298.535 235.325 299.141C235.62 299.748 236.016 300.207 236.513 300.518C237.014 300.83 237.572 300.986 238.189 300.986C238.805 300.986 239.362 300.83 239.859 300.518C240.36 300.207 240.756 299.748 241.048 299.141C241.343 298.535 241.49 297.791 241.49 296.909ZM243.776 292.912V291.818H251.412V292.912H248.21V302H246.977V292.912H243.776ZM113.575 319V308.818H114.748V312.577H114.847C114.934 312.444 115.053 312.275 115.205 312.07C115.361 311.861 115.583 311.675 115.872 311.513C116.163 311.347 116.558 311.264 117.055 311.264C117.698 311.264 118.265 311.425 118.755 311.746C119.246 312.068 119.628 312.524 119.904 313.114C120.179 313.704 120.316 314.4 120.316 315.202C120.316 316.01 120.179 316.711 119.904 317.305C119.628 317.895 119.247 318.352 118.76 318.677C118.273 318.998 117.711 319.159 117.075 319.159C116.584 319.159 116.191 319.078 115.896 318.915C115.602 318.75 115.374 318.562 115.215 318.354C115.056 318.142 114.934 317.966 114.847 317.827H114.708V319H113.575ZM114.728 315.182C114.728 315.759 114.813 316.267 114.982 316.708C115.151 317.146 115.398 317.489 115.722 317.737C116.047 317.982 116.445 318.105 116.916 318.105C117.406 318.105 117.816 317.976 118.144 317.717C118.475 317.455 118.724 317.104 118.889 316.663C119.058 316.219 119.143 315.725 119.143 315.182C119.143 314.645 119.06 314.161 118.894 313.73C118.732 313.296 118.485 312.953 118.154 312.701C117.825 312.446 117.413 312.318 116.916 312.318C116.438 312.318 116.037 312.439 115.713 312.681C115.388 312.92 115.142 313.254 114.977 313.685C114.811 314.113 114.728 314.612 114.728 315.182ZM126.923 315.878V311.364H128.097V319H126.923V317.707H126.844C126.665 318.095 126.387 318.425 126.009 318.697C125.631 318.965 125.154 319.099 124.577 319.099C124.1 319.099 123.675 318.995 123.304 318.786C122.933 318.574 122.641 318.256 122.429 317.832C122.217 317.404 122.111 316.866 122.111 316.216V311.364H123.284V316.136C123.284 316.693 123.44 317.137 123.752 317.469C124.066 317.8 124.468 317.966 124.955 317.966C125.246 317.966 125.543 317.891 125.845 317.742C126.15 317.593 126.405 317.364 126.61 317.056C126.819 316.748 126.923 316.355 126.923 315.878ZM133.567 311.364V312.358H129.609V311.364H133.567ZM130.763 309.534H131.936V316.812C131.936 317.144 131.984 317.393 132.08 317.558C132.18 317.721 132.306 317.83 132.458 317.886C132.614 317.939 132.778 317.966 132.95 317.966C133.08 317.966 133.186 317.959 133.268 317.946C133.351 317.929 133.418 317.916 133.467 317.906L133.706 318.96C133.626 318.99 133.515 319.02 133.373 319.05C133.23 319.083 133.05 319.099 132.831 319.099C132.5 319.099 132.175 319.028 131.857 318.886C131.542 318.743 131.28 318.526 131.071 318.234C130.866 317.943 130.763 317.575 130.763 317.131V309.534ZM138.653 311.364V312.358H134.695V311.364H138.653ZM135.849 309.534H137.022V316.812C137.022 317.144 137.07 317.393 137.166 317.558C137.266 317.721 137.392 317.83 137.544 317.886C137.7 317.939 137.864 317.966 138.036 317.966C138.165 317.966 138.272 317.959 138.354 317.946C138.437 317.929 138.504 317.916 138.553 317.906L138.792 318.96C138.712 318.99 138.601 319.02 138.459 319.05C138.316 319.083 138.136 319.099 137.917 319.099C137.585 319.099 137.261 319.028 136.942 318.886C136.628 318.743 136.366 318.526 136.157 318.234C135.951 317.943 135.849 317.575 135.849 317.131V309.534ZM143.438 319.159C142.748 319.159 142.144 318.995 141.623 318.667C141.106 318.339 140.702 317.88 140.41 317.29C140.122 316.7 139.978 316.01 139.978 315.222C139.978 314.426 140.122 313.732 140.41 313.138C140.702 312.545 141.106 312.085 141.623 311.756C142.144 311.428 142.748 311.264 143.438 311.264C144.127 311.264 144.73 311.428 145.248 311.756C145.768 312.085 146.172 312.545 146.461 313.138C146.752 313.732 146.898 314.426 146.898 315.222C146.898 316.01 146.752 316.7 146.461 317.29C146.172 317.88 145.768 318.339 145.248 318.667C144.73 318.995 144.127 319.159 143.438 319.159ZM143.438 318.105C143.962 318.105 144.392 317.971 144.73 317.702C145.069 317.434 145.319 317.081 145.481 316.643C145.644 316.206 145.725 315.732 145.725 315.222C145.725 314.711 145.644 314.236 145.481 313.795C145.319 313.354 145.069 312.998 144.73 312.726C144.392 312.454 143.962 312.318 143.438 312.318C142.914 312.318 142.483 312.454 142.145 312.726C141.807 312.998 141.557 313.354 141.395 313.795C141.232 314.236 141.151 314.711 141.151 315.222C141.151 315.732 141.232 316.206 141.395 316.643C141.557 317.081 141.807 317.434 142.145 317.702C142.483 317.971 142.914 318.105 143.438 318.105ZM149.862 314.406V319H148.689V311.364H149.823V312.557H149.922C150.101 312.169 150.373 311.857 150.737 311.622C151.102 311.384 151.573 311.264 152.149 311.264C152.666 311.264 153.119 311.37 153.507 311.582C153.894 311.791 154.196 312.109 154.411 312.537C154.627 312.961 154.735 313.498 154.735 314.148V319H153.561V314.227C153.561 313.627 153.405 313.16 153.094 312.825C152.782 312.487 152.355 312.318 151.811 312.318C151.437 312.318 151.102 312.399 150.807 312.562C150.515 312.724 150.285 312.961 150.116 313.273C149.947 313.584 149.862 313.962 149.862 314.406ZM164.237 319.139C163.58 319.139 162.995 319.027 162.482 318.801C161.971 318.576 161.565 318.263 161.263 317.862C160.965 317.457 160.803 316.988 160.776 316.455H162.029C162.056 316.783 162.168 317.066 162.367 317.305C162.566 317.54 162.826 317.722 163.148 317.852C163.469 317.981 163.826 318.045 164.217 318.045C164.654 318.045 165.042 317.969 165.38 317.817C165.718 317.664 165.983 317.452 166.175 317.18C166.368 316.909 166.464 316.594 166.464 316.236C166.464 315.861 166.371 315.531 166.185 315.246C166 314.958 165.728 314.733 165.37 314.57C165.012 314.408 164.575 314.327 164.058 314.327H163.242V313.233H164.058C164.462 313.233 164.817 313.16 165.121 313.014C165.43 312.868 165.67 312.663 165.842 312.398C166.018 312.133 166.106 311.821 166.106 311.463C166.106 311.118 166.03 310.818 165.877 310.563C165.725 310.308 165.509 310.109 165.231 309.967C164.956 309.824 164.631 309.753 164.256 309.753C163.905 309.753 163.574 309.817 163.262 309.947C162.954 310.073 162.702 310.257 162.506 310.499C162.311 310.737 162.205 311.026 162.188 311.364H160.995C161.015 310.83 161.176 310.363 161.477 309.962C161.779 309.557 162.173 309.242 162.661 309.017C163.151 308.792 163.69 308.679 164.276 308.679C164.906 308.679 165.446 308.807 165.897 309.062C166.348 309.314 166.694 309.647 166.936 310.061C167.178 310.475 167.299 310.923 167.299 311.403C167.299 311.977 167.148 312.466 166.847 312.87C166.548 313.274 166.142 313.554 165.629 313.71V313.79C166.272 313.896 166.774 314.169 167.135 314.61C167.496 315.048 167.677 315.589 167.677 316.236C167.677 316.789 167.526 317.286 167.224 317.727C166.926 318.165 166.518 318.509 166.001 318.761C165.484 319.013 164.896 319.139 164.237 319.139ZM172.713 317.21V310.648H173.827V317.21H172.713ZM169.989 314.486V313.372H176.551V314.486H169.989ZM188.305 313.074L187.251 313.372C187.185 313.196 187.087 313.026 186.958 312.86C186.832 312.691 186.66 312.552 186.441 312.442C186.222 312.333 185.942 312.278 185.601 312.278C185.133 312.278 184.744 312.386 184.432 312.602C184.124 312.814 183.97 313.084 183.97 313.412C183.97 313.704 184.076 313.934 184.288 314.103C184.5 314.272 184.832 314.413 185.282 314.526L186.416 314.804C187.099 314.97 187.608 315.223 187.942 315.565C188.277 315.903 188.444 316.339 188.444 316.872C188.444 317.31 188.318 317.701 188.067 318.045C187.818 318.39 187.47 318.662 187.023 318.861C186.575 319.06 186.055 319.159 185.461 319.159C184.683 319.159 184.038 318.99 183.528 318.652C183.017 318.314 182.694 317.82 182.558 317.17L183.672 316.892C183.778 317.303 183.978 317.611 184.273 317.817C184.572 318.022 184.961 318.125 185.442 318.125C185.988 318.125 186.423 318.009 186.744 317.777C187.069 317.542 187.231 317.26 187.231 316.932C187.231 316.667 187.139 316.445 186.953 316.266C186.767 316.083 186.482 315.947 186.098 315.858L184.825 315.56C184.126 315.394 183.612 315.137 183.284 314.789C182.959 314.438 182.797 313.999 182.797 313.472C182.797 313.041 182.918 312.66 183.16 312.328C183.405 311.997 183.738 311.737 184.159 311.548C184.583 311.359 185.064 311.264 185.601 311.264C186.356 311.264 186.95 311.43 187.381 311.761C187.815 312.093 188.123 312.53 188.305 313.074ZM193.412 319.159C192.676 319.159 192.042 318.997 191.508 318.672C190.978 318.344 190.569 317.886 190.28 317.3C189.995 316.71 189.853 316.024 189.853 315.241C189.853 314.459 189.995 313.77 190.28 313.173C190.569 312.573 190.97 312.106 191.483 311.771C192 311.433 192.604 311.264 193.293 311.264C193.691 311.264 194.083 311.33 194.471 311.463C194.859 311.596 195.212 311.811 195.53 312.109C195.848 312.404 196.102 312.795 196.291 313.283C196.48 313.77 196.574 314.37 196.574 315.082V315.58H190.688V314.565H195.381C195.381 314.134 195.295 313.75 195.123 313.412C194.953 313.074 194.712 312.807 194.397 312.612C194.085 312.416 193.717 312.318 193.293 312.318C192.826 312.318 192.421 312.434 192.08 312.666C191.742 312.895 191.482 313.193 191.299 313.561C191.117 313.929 191.026 314.323 191.026 314.744V315.42C191.026 315.997 191.125 316.486 191.324 316.887C191.526 317.285 191.806 317.588 192.164 317.797C192.522 318.002 192.938 318.105 193.412 318.105C193.721 318.105 193.999 318.062 194.248 317.976C194.499 317.886 194.717 317.754 194.899 317.578C195.081 317.399 195.222 317.177 195.321 316.912L196.455 317.23C196.336 317.615 196.135 317.953 195.853 318.244C195.572 318.533 195.224 318.758 194.809 318.92C194.395 319.08 193.929 319.159 193.412 319.159ZM201.461 319.159C200.745 319.159 200.129 318.99 199.612 318.652C199.095 318.314 198.697 317.848 198.419 317.255C198.14 316.662 198.001 315.984 198.001 315.222C198.001 314.446 198.144 313.762 198.429 313.168C198.717 312.572 199.118 312.106 199.632 311.771C200.149 311.433 200.752 311.264 201.441 311.264C201.978 311.264 202.462 311.364 202.893 311.562C203.324 311.761 203.677 312.04 203.952 312.398C204.227 312.756 204.398 313.173 204.464 313.651H203.291C203.201 313.303 203.002 312.994 202.694 312.726C202.389 312.454 201.978 312.318 201.461 312.318C201.004 312.318 200.603 312.437 200.258 312.676C199.917 312.911 199.65 313.245 199.458 313.675C199.269 314.103 199.174 314.605 199.174 315.182C199.174 315.772 199.267 316.286 199.453 316.723C199.642 317.161 199.907 317.5 200.248 317.742C200.593 317.984 200.997 318.105 201.461 318.105C201.766 318.105 202.043 318.052 202.292 317.946C202.54 317.84 202.751 317.688 202.923 317.489C203.095 317.29 203.218 317.051 203.291 316.773H204.464C204.398 317.223 204.234 317.629 203.972 317.991C203.713 318.349 203.37 318.634 202.943 318.846C202.519 319.055 202.025 319.159 201.461 319.159ZM209.282 319.159C208.592 319.159 207.987 318.995 207.467 318.667C206.95 318.339 206.546 317.88 206.254 317.29C205.966 316.7 205.821 316.01 205.821 315.222C205.821 314.426 205.966 313.732 206.254 313.138C206.546 312.545 206.95 312.085 207.467 311.756C207.987 311.428 208.592 311.264 209.282 311.264C209.971 311.264 210.574 311.428 211.091 311.756C211.612 312.085 212.016 312.545 212.304 313.138C212.596 313.732 212.742 314.426 212.742 315.222C212.742 316.01 212.596 316.7 212.304 317.29C212.016 317.88 211.612 318.339 211.091 318.667C210.574 318.995 209.971 319.159 209.282 319.159ZM209.282 318.105C209.805 318.105 210.236 317.971 210.574 317.702C210.912 317.434 211.163 317.081 211.325 316.643C211.487 316.206 211.569 315.732 211.569 315.222C211.569 314.711 211.487 314.236 211.325 313.795C211.163 313.354 210.912 312.998 210.574 312.726C210.236 312.454 209.805 312.318 209.282 312.318C208.758 312.318 208.327 312.454 207.989 312.726C207.651 312.998 207.401 313.354 207.238 313.795C207.076 314.236 206.995 314.711 206.995 315.222C206.995 315.732 207.076 316.206 207.238 316.643C207.401 317.081 207.651 317.434 207.989 317.702C208.327 317.971 208.758 318.105 209.282 318.105ZM215.706 314.406V319H214.533V311.364H215.666V312.557H215.766C215.945 312.169 216.217 311.857 216.581 311.622C216.946 311.384 217.416 311.264 217.993 311.264C218.51 311.264 218.963 311.37 219.35 311.582C219.738 311.791 220.04 312.109 220.255 312.537C220.471 312.961 220.578 313.498 220.578 314.148V319H219.405V314.227C219.405 313.627 219.249 313.16 218.938 312.825C218.626 312.487 218.199 312.318 217.655 312.318C217.28 312.318 216.946 312.399 216.651 312.562C216.359 312.724 216.129 312.961 215.96 313.273C215.791 313.584 215.706 313.962 215.706 314.406ZM225.606 319.159C224.969 319.159 224.408 318.998 223.92 318.677C223.433 318.352 223.052 317.895 222.777 317.305C222.502 316.711 222.364 316.01 222.364 315.202C222.364 314.4 222.502 313.704 222.777 313.114C223.052 312.524 223.435 312.068 223.925 311.746C224.416 311.425 224.983 311.264 225.626 311.264C226.123 311.264 226.516 311.347 226.804 311.513C227.096 311.675 227.318 311.861 227.47 312.07C227.626 312.275 227.747 312.444 227.833 312.577H227.933V308.818H229.106V319H227.972V317.827H227.833C227.747 317.966 227.624 318.142 227.465 318.354C227.306 318.562 227.079 318.75 226.784 318.915C226.489 319.078 226.096 319.159 225.606 319.159ZM225.765 318.105C226.236 318.105 226.633 317.982 226.958 317.737C227.283 317.489 227.53 317.146 227.699 316.708C227.868 316.267 227.952 315.759 227.952 315.182C227.952 314.612 227.87 314.113 227.704 313.685C227.538 313.254 227.293 312.92 226.968 312.681C226.643 312.439 226.242 312.318 225.765 312.318C225.268 312.318 224.853 312.446 224.522 312.701C224.194 312.953 223.947 313.296 223.781 313.73C223.619 314.161 223.538 314.645 223.538 315.182C223.538 315.725 223.621 316.219 223.786 316.663C223.955 317.104 224.204 317.455 224.532 317.717C224.863 317.976 225.274 318.105 225.765 318.105ZM236.827 313.074L235.773 313.372C235.706 313.196 235.609 313.026 235.479 312.86C235.353 312.691 235.181 312.552 234.962 312.442C234.744 312.333 234.464 312.278 234.122 312.278C233.655 312.278 233.265 312.386 232.954 312.602C232.646 312.814 232.491 313.084 232.491 313.412C232.491 313.704 232.598 313.934 232.81 314.103C233.022 314.272 233.353 314.413 233.804 314.526L234.938 314.804C235.62 314.97 236.129 315.223 236.464 315.565C236.799 315.903 236.966 316.339 236.966 316.872C236.966 317.31 236.84 317.701 236.588 318.045C236.339 318.39 235.991 318.662 235.544 318.861C235.097 319.06 234.576 319.159 233.983 319.159C233.204 319.159 232.559 318.99 232.049 318.652C231.539 318.314 231.215 317.82 231.08 317.17L232.193 316.892C232.299 317.303 232.5 317.611 232.795 317.817C233.093 318.022 233.482 318.125 233.963 318.125C234.51 318.125 234.944 318.009 235.266 317.777C235.59 317.542 235.753 317.26 235.753 316.932C235.753 316.667 235.66 316.445 235.474 316.266C235.289 316.083 235.004 315.947 234.619 315.858L233.347 315.56C232.647 315.394 232.134 315.137 231.805 314.789C231.481 314.438 231.318 313.999 231.318 313.472C231.318 313.041 231.439 312.66 231.681 312.328C231.926 311.997 232.259 311.737 232.68 311.548C233.105 311.359 233.585 311.264 234.122 311.264C234.878 311.264 235.471 311.43 235.902 311.761C236.336 312.093 236.644 312.53 236.827 313.074Z" fill="black"/>
<rect x="75" y="415" width="200" height="120" rx="10" fill="#D9D9D9"/>
<path d="M97.3643 472H94.2222V461.818H97.5035C98.4912 461.818 99.3363 462.022 100.039 462.43C100.742 462.834 101.28 463.416 101.655 464.175C102.029 464.93 102.217 465.835 102.217 466.889C102.217 467.95 102.028 468.863 101.65 469.629C101.272 470.391 100.722 470.978 99.9992 471.388C99.2767 471.796 98.3983 472 97.3643 472ZM95.4552 470.906H97.2847C98.1266 470.906 98.8242 470.744 99.3778 470.419C99.9313 470.094 100.344 469.632 100.616 469.032C100.887 468.432 101.023 467.718 101.023 466.889C101.023 466.067 100.889 465.36 100.621 464.766C100.352 464.17 99.9511 463.712 99.4175 463.394C98.8839 463.073 98.2194 462.912 97.4239 462.912H95.4552V470.906ZM107.327 472.159C106.592 472.159 105.957 471.997 105.423 471.672C104.893 471.344 104.484 470.886 104.195 470.3C103.91 469.71 103.768 469.024 103.768 468.241C103.768 467.459 103.91 466.77 104.195 466.173C104.484 465.573 104.885 465.106 105.398 464.771C105.915 464.433 106.519 464.264 107.208 464.264C107.606 464.264 107.998 464.33 108.386 464.463C108.774 464.596 109.127 464.811 109.445 465.109C109.763 465.404 110.017 465.795 110.206 466.283C110.395 466.77 110.489 467.37 110.489 468.082V468.58H104.603V467.565H109.296C109.296 467.134 109.21 466.75 109.038 466.412C108.869 466.074 108.627 465.807 108.312 465.612C108 465.416 107.632 465.318 107.208 465.318C106.741 465.318 106.336 465.434 105.995 465.666C105.657 465.895 105.397 466.193 105.214 466.561C105.032 466.929 104.941 467.323 104.941 467.744V468.42C104.941 468.997 105.04 469.486 105.239 469.887C105.441 470.285 105.722 470.588 106.079 470.797C106.437 471.002 106.853 471.105 107.327 471.105C107.636 471.105 107.914 471.062 108.163 470.976C108.414 470.886 108.632 470.754 108.814 470.578C108.996 470.399 109.137 470.177 109.236 469.912L110.37 470.23C110.251 470.615 110.05 470.953 109.768 471.244C109.487 471.533 109.139 471.758 108.724 471.92C108.31 472.08 107.844 472.159 107.327 472.159ZM118.286 464.364L115.462 472H114.269L111.445 464.364H112.718L114.826 470.449H114.905L117.013 464.364H118.286ZM119.835 472V464.364H121.008V472H119.835ZM120.431 463.091C120.203 463.091 120.005 463.013 119.84 462.857C119.677 462.701 119.596 462.514 119.596 462.295C119.596 462.077 119.677 461.889 119.84 461.734C120.005 461.578 120.203 461.5 120.431 461.5C120.66 461.5 120.855 461.578 121.018 461.734C121.184 461.889 121.266 462.077 121.266 462.295C121.266 462.514 121.184 462.701 121.018 462.857C120.855 463.013 120.66 463.091 120.431 463.091ZM126.259 472.159C125.543 472.159 124.927 471.99 124.41 471.652C123.893 471.314 123.495 470.848 123.217 470.255C122.938 469.662 122.799 468.984 122.799 468.222C122.799 467.446 122.941 466.762 123.226 466.168C123.515 465.572 123.916 465.106 124.43 464.771C124.947 464.433 125.55 464.264 126.239 464.264C126.776 464.264 127.26 464.364 127.691 464.562C128.122 464.761 128.475 465.04 128.75 465.398C129.025 465.756 129.196 466.173 129.262 466.651H128.089C127.999 466.303 127.8 465.994 127.492 465.726C127.187 465.454 126.776 465.318 126.259 465.318C125.802 465.318 125.401 465.437 125.056 465.676C124.715 465.911 124.448 466.245 124.256 466.675C124.067 467.103 123.972 467.605 123.972 468.182C123.972 468.772 124.065 469.286 124.251 469.723C124.44 470.161 124.705 470.5 125.046 470.742C125.391 470.984 125.795 471.105 126.259 471.105C126.564 471.105 126.841 471.052 127.089 470.946C127.338 470.84 127.548 470.688 127.721 470.489C127.893 470.29 128.016 470.051 128.089 469.773H129.262C129.196 470.223 129.032 470.629 128.77 470.991C128.511 471.349 128.168 471.634 127.741 471.846C127.316 472.055 126.823 472.159 126.259 472.159ZM134.179 472.159C133.443 472.159 132.808 471.997 132.275 471.672C131.744 471.344 131.335 470.886 131.047 470.3C130.762 469.71 130.619 469.024 130.619 468.241C130.619 467.459 130.762 466.77 131.047 466.173C131.335 465.573 131.736 465.106 132.25 464.771C132.767 464.433 133.37 464.264 134.06 464.264C134.457 464.264 134.85 464.33 135.238 464.463C135.626 464.596 135.979 464.811 136.297 465.109C136.615 465.404 136.869 465.795 137.057 466.283C137.246 466.77 137.341 467.37 137.341 468.082V468.58H131.454V467.565H136.148C136.148 467.134 136.061 466.75 135.889 466.412C135.72 466.074 135.478 465.807 135.163 465.612C134.852 465.416 134.484 465.318 134.06 465.318C133.592 465.318 133.188 465.434 132.847 465.666C132.508 465.895 132.248 466.193 132.066 466.561C131.884 466.929 131.793 467.323 131.793 467.744V468.42C131.793 468.997 131.892 469.486 132.091 469.887C132.293 470.285 132.573 470.588 132.931 470.797C133.289 471.002 133.705 471.105 134.179 471.105C134.487 471.105 134.766 471.062 135.014 470.976C135.266 470.886 135.483 470.754 135.665 470.578C135.848 470.399 135.989 470.177 136.088 469.912L137.222 470.23C137.102 470.615 136.902 470.953 136.62 471.244C136.338 471.533 135.99 471.758 135.576 471.92C135.162 472.08 134.696 472.159 134.179 472.159ZM146.165 472.159C145.449 472.159 144.833 471.99 144.316 471.652C143.799 471.314 143.401 470.848 143.123 470.255C142.844 469.662 142.705 468.984 142.705 468.222C142.705 467.446 142.848 466.762 143.133 466.168C143.421 465.572 143.822 465.106 144.336 464.771C144.853 464.433 145.456 464.264 146.146 464.264C146.682 464.264 147.166 464.364 147.597 464.562C148.028 464.761 148.381 465.04 148.656 465.398C148.931 465.756 149.102 466.173 149.168 466.651H147.995C147.905 466.303 147.707 465.994 147.398 465.726C147.093 465.454 146.682 465.318 146.165 465.318C145.708 465.318 145.307 465.437 144.962 465.676C144.621 465.911 144.354 466.245 144.162 466.675C143.973 467.103 143.878 467.605 143.878 468.182C143.878 468.772 143.971 469.286 144.157 469.723C144.346 470.161 144.611 470.5 144.952 470.742C145.297 470.984 145.701 471.105 146.165 471.105C146.47 471.105 146.747 471.052 146.996 470.946C147.244 470.84 147.455 470.688 147.627 470.489C147.799 470.29 147.922 470.051 147.995 469.773H149.168C149.102 470.223 148.938 470.629 148.676 470.991C148.418 471.349 148.074 471.634 147.647 471.846C147.223 472.055 146.729 472.159 146.165 472.159ZM152.057 461.818V472H150.883V461.818H152.057ZM157.407 472.159C156.672 472.159 156.037 471.997 155.503 471.672C154.973 471.344 154.564 470.886 154.275 470.3C153.99 469.71 153.848 469.024 153.848 468.241C153.848 467.459 153.99 466.77 154.275 466.173C154.564 465.573 154.965 465.106 155.478 464.771C155.995 464.433 156.599 464.264 157.288 464.264C157.686 464.264 158.079 464.33 158.466 464.463C158.854 464.596 159.207 464.811 159.525 465.109C159.843 465.404 160.097 465.795 160.286 466.283C160.475 466.77 160.569 467.37 160.569 468.082V468.58H154.683V467.565H159.376C159.376 467.134 159.29 466.75 159.118 466.412C158.949 466.074 158.707 465.807 158.392 465.612C158.08 465.416 157.712 465.318 157.288 465.318C156.821 465.318 156.416 465.434 156.075 465.666C155.737 465.895 155.477 466.193 155.294 466.561C155.112 466.929 155.021 467.323 155.021 467.744V468.42C155.021 468.997 155.12 469.486 155.319 469.887C155.522 470.285 155.802 470.588 156.16 470.797C156.517 471.002 156.933 471.105 157.407 471.105C157.716 471.105 157.994 471.062 158.243 470.976C158.495 470.886 158.712 470.754 158.894 470.578C159.076 470.399 159.217 470.177 159.316 469.912L160.45 470.23C160.331 470.615 160.13 470.953 159.848 471.244C159.567 471.533 159.219 471.758 158.804 471.92C158.39 472.08 157.924 472.159 157.407 472.159ZM164.601 472.179C164.117 472.179 163.678 472.088 163.284 471.906C162.889 471.72 162.576 471.453 162.344 471.105C162.112 470.754 161.996 470.33 161.996 469.832C161.996 469.395 162.082 469.04 162.255 468.768C162.427 468.493 162.657 468.278 162.946 468.122C163.234 467.966 163.552 467.85 163.9 467.774C164.252 467.695 164.605 467.632 164.959 467.585C165.423 467.526 165.799 467.481 166.088 467.451C166.379 467.418 166.592 467.363 166.724 467.287C166.86 467.211 166.928 467.078 166.928 466.889V466.849C166.928 466.359 166.794 465.978 166.525 465.706C166.26 465.434 165.857 465.298 165.317 465.298C164.757 465.298 164.318 465.421 164 465.666C163.682 465.911 163.458 466.173 163.329 466.452L162.215 466.054C162.414 465.59 162.679 465.229 163.01 464.97C163.345 464.708 163.71 464.526 164.104 464.423C164.502 464.317 164.893 464.264 165.277 464.264C165.523 464.264 165.804 464.294 166.123 464.354C166.444 464.41 166.754 464.528 167.052 464.707C167.354 464.886 167.604 465.156 167.803 465.517C168.002 465.878 168.101 466.362 168.101 466.969V472H166.928V470.966H166.868C166.789 471.132 166.656 471.309 166.471 471.498C166.285 471.687 166.038 471.848 165.73 471.98C165.422 472.113 165.045 472.179 164.601 472.179ZM164.78 471.125C165.244 471.125 165.635 471.034 165.954 470.852C166.275 470.669 166.517 470.434 166.679 470.146C166.845 469.857 166.928 469.554 166.928 469.236V468.162C166.878 468.222 166.769 468.276 166.6 468.326C166.434 468.372 166.242 468.414 166.023 468.45C165.808 468.483 165.597 468.513 165.392 468.54C165.19 468.563 165.026 468.583 164.9 468.599C164.595 468.639 164.31 468.704 164.044 468.793C163.783 468.879 163.571 469.01 163.408 469.186C163.249 469.358 163.169 469.594 163.169 469.892C163.169 470.3 163.32 470.608 163.622 470.817C163.927 471.022 164.313 471.125 164.78 471.125ZM170.243 472V464.364H171.376V465.517H171.456C171.595 465.139 171.847 464.833 172.212 464.597C172.576 464.362 172.987 464.244 173.445 464.244C173.531 464.244 173.638 464.246 173.768 464.249C173.897 464.253 173.995 464.258 174.061 464.264V465.457C174.021 465.447 173.93 465.433 173.788 465.413C173.648 465.389 173.501 465.378 173.345 465.378C172.974 465.378 172.642 465.456 172.351 465.612C172.062 465.764 171.834 465.976 171.665 466.248C171.499 466.516 171.416 466.823 171.416 467.168V472H170.243ZM180.861 466.074L179.807 466.372C179.741 466.196 179.643 466.026 179.514 465.86C179.388 465.691 179.215 465.552 178.997 465.442C178.778 465.333 178.498 465.278 178.156 465.278C177.689 465.278 177.3 465.386 176.988 465.602C176.68 465.814 176.526 466.084 176.526 466.412C176.526 466.704 176.632 466.934 176.844 467.103C177.056 467.272 177.387 467.413 177.838 467.526L178.972 467.804C179.654 467.97 180.163 468.223 180.498 468.565C180.833 468.903 181 469.339 181 469.872C181 470.31 180.874 470.701 180.622 471.045C180.374 471.39 180.026 471.662 179.578 471.861C179.131 472.06 178.61 472.159 178.017 472.159C177.238 472.159 176.594 471.99 176.083 471.652C175.573 471.314 175.25 470.82 175.114 470.17L176.227 469.892C176.333 470.303 176.534 470.611 176.829 470.817C177.127 471.022 177.517 471.125 177.997 471.125C178.544 471.125 178.978 471.009 179.3 470.777C179.625 470.542 179.787 470.26 179.787 469.932C179.787 469.667 179.694 469.445 179.509 469.266C179.323 469.083 179.038 468.947 178.653 468.858L177.381 468.56C176.681 468.394 176.168 468.137 175.84 467.789C175.515 467.438 175.352 466.999 175.352 466.472C175.352 466.041 175.473 465.66 175.715 465.328C175.961 464.997 176.294 464.737 176.715 464.548C177.139 464.359 177.619 464.264 178.156 464.264C178.912 464.264 179.505 464.43 179.936 464.761C180.37 465.093 180.679 465.53 180.861 466.074ZM192.113 466.074L191.059 466.372C190.993 466.196 190.895 466.026 190.766 465.86C190.64 465.691 190.467 465.552 190.248 465.442C190.03 465.333 189.75 465.278 189.408 465.278C188.941 465.278 188.552 465.386 188.24 465.602C187.932 465.814 187.778 466.084 187.778 466.412C187.778 466.704 187.884 466.934 188.096 467.103C188.308 467.272 188.639 467.413 189.09 467.526L190.224 467.804C190.906 467.97 191.415 468.223 191.75 468.565C192.085 468.903 192.252 469.339 192.252 469.872C192.252 470.31 192.126 470.701 191.874 471.045C191.626 471.39 191.278 471.662 190.83 471.861C190.383 472.06 189.862 472.159 189.269 472.159C188.49 472.159 187.846 471.99 187.335 471.652C186.825 471.314 186.502 470.82 186.366 470.17L187.479 469.892C187.585 470.303 187.786 470.611 188.081 470.817C188.379 471.022 188.769 471.125 189.249 471.125C189.796 471.125 190.23 471.009 190.552 470.777C190.877 470.542 191.039 470.26 191.039 469.932C191.039 469.667 190.946 469.445 190.761 469.266C190.575 469.083 190.29 468.947 189.905 468.858L188.633 468.56C187.933 468.394 187.42 468.137 187.092 467.789C186.767 467.438 186.604 466.999 186.604 466.472C186.604 466.041 186.725 465.66 186.967 465.328C187.213 464.997 187.546 464.737 187.967 464.548C188.391 464.359 188.871 464.264 189.408 464.264C190.164 464.264 190.757 464.43 191.188 464.761C191.622 465.093 191.931 465.53 192.113 466.074ZM196.265 472.179C195.781 472.179 195.342 472.088 194.948 471.906C194.553 471.72 194.24 471.453 194.008 471.105C193.776 470.754 193.66 470.33 193.66 469.832C193.66 469.395 193.746 469.04 193.919 468.768C194.091 468.493 194.321 468.278 194.61 468.122C194.898 467.966 195.216 467.85 195.564 467.774C195.916 467.695 196.269 467.632 196.623 467.585C197.087 467.526 197.464 467.481 197.752 467.451C198.044 467.418 198.256 467.363 198.388 467.287C198.524 467.211 198.592 467.078 198.592 466.889V466.849C198.592 466.359 198.458 465.978 198.189 465.706C197.924 465.434 197.522 465.298 196.981 465.298C196.421 465.298 195.982 465.421 195.664 465.666C195.346 465.911 195.122 466.173 194.993 466.452L193.879 466.054C194.078 465.59 194.343 465.229 194.674 464.97C195.009 464.708 195.374 464.526 195.768 464.423C196.166 464.317 196.557 464.264 196.941 464.264C197.187 464.264 197.468 464.294 197.787 464.354C198.108 464.41 198.418 464.528 198.716 464.707C199.018 464.886 199.268 465.156 199.467 465.517C199.666 465.878 199.765 466.362 199.765 466.969V472H198.592V470.966H198.532C198.453 471.132 198.32 471.309 198.135 471.498C197.949 471.687 197.702 471.848 197.394 471.98C197.086 472.113 196.709 472.179 196.265 472.179ZM196.444 471.125C196.908 471.125 197.299 471.034 197.618 470.852C197.939 470.669 198.181 470.434 198.343 470.146C198.509 469.857 198.592 469.554 198.592 469.236V468.162C198.542 468.222 198.433 468.276 198.264 468.326C198.098 468.372 197.906 468.414 197.687 468.45C197.472 468.483 197.261 468.513 197.056 468.54C196.854 468.563 196.69 468.583 196.564 468.599C196.259 468.639 195.974 468.704 195.709 468.793C195.447 468.879 195.235 469.01 195.072 469.186C194.913 469.358 194.834 469.594 194.834 469.892C194.834 470.3 194.984 470.608 195.286 470.817C195.591 471.022 195.977 471.125 196.444 471.125ZM207.878 464.364L205.054 472H203.861L201.037 464.364H202.31L204.418 470.449H204.497L206.605 464.364H207.878ZM212.355 472.159C211.619 472.159 210.984 471.997 210.451 471.672C209.92 471.344 209.511 470.886 209.223 470.3C208.938 469.71 208.795 469.024 208.795 468.241C208.795 467.459 208.938 466.77 209.223 466.173C209.511 465.573 209.912 465.106 210.426 464.771C210.943 464.433 211.546 464.264 212.235 464.264C212.633 464.264 213.026 464.33 213.414 464.463C213.801 464.596 214.154 464.811 214.473 465.109C214.791 465.404 215.044 465.795 215.233 466.283C215.422 466.77 215.517 467.37 215.517 468.082V468.58H209.63V467.565H214.323C214.323 467.134 214.237 466.75 214.065 466.412C213.896 466.074 213.654 465.807 213.339 465.612C213.027 465.416 212.66 465.318 212.235 465.318C211.768 465.318 211.364 465.434 211.022 465.666C210.684 465.895 210.424 466.193 210.242 466.561C210.059 466.929 209.968 467.323 209.968 467.744V468.42C209.968 468.997 210.068 469.486 210.267 469.887C210.469 470.285 210.749 470.588 211.107 470.797C211.465 471.002 211.881 471.105 212.355 471.105C212.663 471.105 212.941 471.062 213.19 470.976C213.442 470.886 213.659 470.754 213.841 470.578C214.023 470.399 214.164 470.177 214.264 469.912L215.397 470.23C215.278 470.615 215.077 470.953 214.796 471.244C214.514 471.533 214.166 471.758 213.752 471.92C213.337 472.08 212.872 472.159 212.355 472.159ZM220.185 472.159C219.549 472.159 218.987 471.998 218.5 471.677C218.012 471.352 217.631 470.895 217.356 470.305C217.081 469.711 216.943 469.01 216.943 468.202C216.943 467.4 217.081 466.704 217.356 466.114C217.631 465.524 218.014 465.068 218.505 464.746C218.995 464.425 219.562 464.264 220.205 464.264C220.702 464.264 221.095 464.347 221.383 464.513C221.675 464.675 221.897 464.861 222.049 465.07C222.205 465.275 222.326 465.444 222.412 465.577H222.512V461.818H223.685V472H222.551V470.827H222.412C222.326 470.966 222.203 471.142 222.044 471.354C221.885 471.562 221.658 471.75 221.363 471.915C221.068 472.078 220.675 472.159 220.185 472.159ZM220.344 471.105C220.815 471.105 221.212 470.982 221.537 470.737C221.862 470.489 222.109 470.146 222.278 469.708C222.447 469.267 222.532 468.759 222.532 468.182C222.532 467.612 222.449 467.113 222.283 466.685C222.117 466.254 221.872 465.92 221.547 465.681C221.222 465.439 220.821 465.318 220.344 465.318C219.847 465.318 219.433 465.446 219.101 465.701C218.773 465.953 218.526 466.296 218.36 466.73C218.198 467.161 218.117 467.645 218.117 468.182C218.117 468.725 218.2 469.219 218.365 469.663C218.534 470.104 218.783 470.455 219.111 470.717C219.443 470.976 219.853 471.105 220.344 471.105ZM231.943 472L229.159 461.818H230.411L232.539 470.111H232.639L234.806 461.818H236.198L238.366 470.111H238.465L240.593 461.818H241.846L239.062 472H237.789L235.542 463.886H235.463L233.215 472H231.943ZM243.223 472V464.364H244.397V472H243.223ZM243.82 463.091C243.591 463.091 243.394 463.013 243.228 462.857C243.066 462.701 242.985 462.514 242.985 462.295C242.985 462.077 243.066 461.889 243.228 461.734C243.394 461.578 243.591 461.5 243.82 461.5C244.049 461.5 244.244 461.578 244.407 461.734C244.572 461.889 244.655 462.077 244.655 462.295C244.655 462.514 244.572 462.701 244.407 462.857C244.244 463.013 244.049 463.091 243.82 463.091ZM246.705 472V461.818H252.81V462.912H247.938V466.352H252.352V467.446H247.938V472H246.705ZM254.762 472V464.364H255.936V472H254.762ZM255.359 463.091C255.13 463.091 254.933 463.013 254.767 462.857C254.605 462.701 254.524 462.514 254.524 462.295C254.524 462.077 254.605 461.889 254.767 461.734C254.933 461.578 255.13 461.5 255.359 461.5C255.588 461.5 255.783 461.578 255.946 461.734C256.111 461.889 256.194 462.077 256.194 462.295C256.194 462.514 256.111 462.701 255.946 462.857C255.783 463.013 255.588 463.091 255.359 463.091ZM101 489.159C100.284 489.159 99.668 488.99 99.1509 488.652C98.6339 488.314 98.2362 487.848 97.9577 487.255C97.6793 486.662 97.5401 485.984 97.5401 485.222C97.5401 484.446 97.6826 483.762 97.9677 483.168C98.256 482.572 98.6571 482.106 99.1708 481.771C99.6879 481.433 100.291 481.264 100.98 481.264C101.517 481.264 102.001 481.364 102.432 481.562C102.863 481.761 103.216 482.04 103.491 482.398C103.766 482.756 103.937 483.173 104.003 483.651H102.83C102.74 483.303 102.542 482.994 102.233 482.726C101.928 482.454 101.517 482.318 101 482.318C100.543 482.318 100.142 482.437 99.7972 482.676C99.4558 482.911 99.189 483.245 98.9968 483.675C98.8079 484.103 98.7134 484.605 98.7134 485.182C98.7134 485.772 98.8062 486.286 98.9918 486.723C99.1808 487.161 99.4459 487.5 99.7873 487.742C100.132 487.984 100.536 488.105 101 488.105C101.305 488.105 101.582 488.052 101.831 487.946C102.079 487.84 102.29 487.688 102.462 487.489C102.634 487.29 102.757 487.051 102.83 486.773H104.003C103.937 487.223 103.773 487.629 103.511 487.991C103.252 488.349 102.909 488.634 102.482 488.846C102.058 489.055 101.564 489.159 101 489.159ZM105.718 489V481.364H106.852V482.517H106.931C107.071 482.139 107.323 481.833 107.687 481.597C108.052 481.362 108.463 481.244 108.92 481.244C109.006 481.244 109.114 481.246 109.243 481.249C109.373 481.253 109.47 481.258 109.537 481.264V482.457C109.497 482.447 109.406 482.433 109.263 482.413C109.124 482.389 108.976 482.378 108.821 482.378C108.449 482.378 108.118 482.456 107.826 482.612C107.538 482.764 107.309 482.976 107.14 483.248C106.975 483.516 106.892 483.823 106.892 484.168V489H105.718ZM113.897 489.159C113.161 489.159 112.526 488.997 111.993 488.672C111.462 488.344 111.053 487.886 110.765 487.3C110.48 486.71 110.337 486.024 110.337 485.241C110.337 484.459 110.48 483.77 110.765 483.173C111.053 482.573 111.454 482.106 111.968 481.771C112.485 481.433 113.088 481.264 113.777 481.264C114.175 481.264 114.568 481.33 114.956 481.463C115.343 481.596 115.696 481.811 116.015 482.109C116.333 482.404 116.586 482.795 116.775 483.283C116.964 483.77 117.059 484.37 117.059 485.082V485.58H111.172V484.565H115.865C115.865 484.134 115.779 483.75 115.607 483.412C115.438 483.074 115.196 482.807 114.881 482.612C114.569 482.416 114.202 482.318 113.777 482.318C113.31 482.318 112.906 482.434 112.564 482.666C112.226 482.895 111.966 483.193 111.784 483.561C111.601 483.929 111.51 484.323 111.51 484.744V485.42C111.51 485.997 111.61 486.486 111.809 486.887C112.011 487.285 112.291 487.588 112.649 487.797C113.007 488.002 113.423 488.105 113.897 488.105C114.205 488.105 114.483 488.062 114.732 487.976C114.984 487.886 115.201 487.754 115.383 487.578C115.565 487.399 115.706 487.177 115.806 486.912L116.939 487.23C116.82 487.615 116.619 487.953 116.338 488.244C116.056 488.533 115.708 488.758 115.294 488.92C114.879 489.08 114.414 489.159 113.897 489.159ZM121.727 489.159C121.091 489.159 120.529 488.998 120.042 488.677C119.554 488.352 119.173 487.895 118.898 487.305C118.623 486.711 118.485 486.01 118.485 485.202C118.485 484.4 118.623 483.704 118.898 483.114C119.173 482.524 119.556 482.068 120.047 481.746C120.537 481.425 121.104 481.264 121.747 481.264C122.244 481.264 122.637 481.347 122.925 481.513C123.217 481.675 123.439 481.861 123.591 482.07C123.747 482.275 123.868 482.444 123.954 482.577H124.054V478.818H125.227V489H124.093V487.827H123.954C123.868 487.966 123.745 488.142 123.586 488.354C123.427 488.562 123.2 488.75 122.905 488.915C122.61 489.078 122.217 489.159 121.727 489.159ZM121.886 488.105C122.357 488.105 122.754 487.982 123.079 487.737C123.404 487.489 123.651 487.146 123.82 486.708C123.989 486.267 124.074 485.759 124.074 485.182C124.074 484.612 123.991 484.113 123.825 483.685C123.659 483.254 123.414 482.92 123.089 482.681C122.764 482.439 122.363 482.318 121.886 482.318C121.389 482.318 120.975 482.446 120.643 482.701C120.315 482.953 120.068 483.296 119.902 483.73C119.74 484.161 119.659 484.645 119.659 485.182C119.659 485.725 119.742 486.219 119.907 486.663C120.076 487.104 120.325 487.455 120.653 487.717C120.984 487.976 121.395 488.105 121.886 488.105ZM130.74 489.159C130.005 489.159 129.37 488.997 128.836 488.672C128.306 488.344 127.897 487.886 127.608 487.3C127.323 486.71 127.181 486.024 127.181 485.241C127.181 484.459 127.323 483.77 127.608 483.173C127.897 482.573 128.298 482.106 128.811 481.771C129.328 481.433 129.932 481.264 130.621 481.264C131.019 481.264 131.412 481.33 131.799 481.463C132.187 481.596 132.54 481.811 132.858 482.109C133.176 482.404 133.43 482.795 133.619 483.283C133.808 483.77 133.902 484.37 133.902 485.082V485.58H128.016V484.565H132.709C132.709 484.134 132.623 483.75 132.451 483.412C132.282 483.074 132.04 482.807 131.725 482.612C131.413 482.416 131.045 482.318 130.621 482.318C130.154 482.318 129.749 482.434 129.408 482.666C129.07 482.895 128.81 483.193 128.627 483.561C128.445 483.929 128.354 484.323 128.354 484.744V485.42C128.354 485.997 128.453 486.486 128.652 486.887C128.855 487.285 129.135 487.588 129.493 487.797C129.85 488.002 130.266 488.105 130.74 488.105C131.049 488.105 131.327 488.062 131.576 487.976C131.828 487.886 132.045 487.754 132.227 487.578C132.409 487.399 132.55 487.177 132.65 486.912L133.783 487.23C133.664 487.615 133.463 487.953 133.181 488.244C132.9 488.533 132.552 488.758 132.137 488.92C131.723 489.08 131.257 489.159 130.74 489.159ZM136.86 484.406V489H135.687V481.364H136.821V482.557H136.92C137.099 482.169 137.371 481.857 137.735 481.622C138.1 481.384 138.571 481.264 139.147 481.264C139.664 481.264 140.117 481.37 140.505 481.582C140.892 481.791 141.194 482.109 141.409 482.537C141.625 482.961 141.733 483.498 141.733 484.148V489H140.559V484.227C140.559 483.627 140.404 483.16 140.092 482.825C139.78 482.487 139.353 482.318 138.809 482.318C138.435 482.318 138.1 482.399 137.805 482.562C137.513 482.724 137.283 482.961 137.114 483.273C136.945 483.584 136.86 483.962 136.86 484.406ZM147.198 481.364V482.358H143.24V481.364H147.198ZM144.394 479.534H145.567V486.812C145.567 487.144 145.615 487.393 145.711 487.558C145.811 487.721 145.936 487.83 146.089 487.886C146.245 487.939 146.409 487.966 146.581 487.966C146.71 487.966 146.816 487.959 146.899 487.946C146.982 487.929 147.048 487.916 147.098 487.906L147.337 488.96C147.257 488.99 147.146 489.02 147.004 489.05C146.861 489.083 146.681 489.099 146.462 489.099C146.13 489.099 145.806 489.028 145.487 488.886C145.173 488.743 144.911 488.526 144.702 488.234C144.496 487.943 144.394 487.575 144.394 487.131V479.534ZM148.963 489V481.364H150.136V489H148.963ZM149.559 480.091C149.33 480.091 149.133 480.013 148.968 479.857C148.805 479.701 148.724 479.514 148.724 479.295C148.724 479.077 148.805 478.889 148.968 478.734C149.133 478.578 149.33 478.5 149.559 478.5C149.788 478.5 149.983 478.578 150.146 478.734C150.311 478.889 150.394 479.077 150.394 479.295C150.394 479.514 150.311 479.701 150.146 479.857C149.983 480.013 149.788 480.091 149.559 480.091ZM154.532 489.179C154.048 489.179 153.609 489.088 153.214 488.906C152.82 488.72 152.507 488.453 152.275 488.105C152.043 487.754 151.927 487.33 151.927 486.832C151.927 486.395 152.013 486.04 152.185 485.768C152.358 485.493 152.588 485.278 152.876 485.122C153.165 484.966 153.483 484.85 153.831 484.774C154.182 484.695 154.535 484.632 154.89 484.585C155.354 484.526 155.73 484.481 156.018 484.451C156.31 484.418 156.522 484.363 156.655 484.287C156.791 484.211 156.859 484.078 156.859 483.889V483.849C156.859 483.359 156.724 482.978 156.456 482.706C156.191 482.434 155.788 482.298 155.248 482.298C154.688 482.298 154.249 482.421 153.93 482.666C153.612 482.911 153.388 483.173 153.259 483.452L152.146 483.054C152.344 482.59 152.61 482.229 152.941 481.97C153.276 481.708 153.64 481.526 154.035 481.423C154.433 481.317 154.824 481.264 155.208 481.264C155.453 481.264 155.735 481.294 156.053 481.354C156.375 481.41 156.685 481.528 156.983 481.707C157.285 481.886 157.535 482.156 157.734 482.517C157.933 482.878 158.032 483.362 158.032 483.969V489H156.859V487.966H156.799C156.719 488.132 156.587 488.309 156.401 488.498C156.216 488.687 155.969 488.848 155.661 488.98C155.352 489.113 154.976 489.179 154.532 489.179ZM154.711 488.125C155.175 488.125 155.566 488.034 155.884 487.852C156.206 487.669 156.448 487.434 156.61 487.146C156.776 486.857 156.859 486.554 156.859 486.236V485.162C156.809 485.222 156.7 485.276 156.531 485.326C156.365 485.372 156.173 485.414 155.954 485.45C155.738 485.483 155.528 485.513 155.322 485.54C155.12 485.563 154.956 485.583 154.83 485.599C154.525 485.639 154.24 485.704 153.975 485.793C153.713 485.879 153.501 486.01 153.339 486.186C153.18 486.358 153.1 486.594 153.1 486.892C153.1 487.3 153.251 487.608 153.553 487.817C153.857 488.022 154.244 488.125 154.711 488.125ZM161.347 478.818V489H160.173V478.818H161.347ZM168.905 483.074L167.851 483.372C167.785 483.196 167.687 483.026 167.558 482.86C167.432 482.691 167.259 482.552 167.04 482.442C166.822 482.333 166.542 482.278 166.2 482.278C165.733 482.278 165.344 482.386 165.032 482.602C164.724 482.814 164.57 483.084 164.57 483.412C164.57 483.704 164.676 483.934 164.888 484.103C165.1 484.272 165.431 484.413 165.882 484.526L167.016 484.804C167.698 484.97 168.207 485.223 168.542 485.565C168.877 485.903 169.044 486.339 169.044 486.872C169.044 487.31 168.918 487.701 168.666 488.045C168.418 488.39 168.07 488.662 167.622 488.861C167.175 489.06 166.654 489.159 166.061 489.159C165.282 489.159 164.638 488.99 164.127 488.652C163.617 488.314 163.294 487.82 163.158 487.17L164.271 486.892C164.377 487.303 164.578 487.611 164.873 487.817C165.171 488.022 165.561 488.125 166.041 488.125C166.588 488.125 167.022 488.009 167.344 487.777C167.669 487.542 167.831 487.26 167.831 486.932C167.831 486.667 167.738 486.445 167.553 486.266C167.367 486.083 167.082 485.947 166.697 485.858L165.425 485.56C164.725 485.394 164.212 485.137 163.884 484.789C163.559 484.438 163.396 483.999 163.396 483.472C163.396 483.041 163.517 482.66 163.759 482.328C164.004 481.997 164.338 481.737 164.759 481.548C165.183 481.359 165.663 481.264 166.2 481.264C166.956 481.264 167.549 481.43 167.98 481.761C168.414 482.093 168.723 482.53 168.905 483.074ZM176.995 489.179C176.511 489.179 176.072 489.088 175.677 488.906C175.283 488.72 174.97 488.453 174.738 488.105C174.506 487.754 174.39 487.33 174.39 486.832C174.39 486.395 174.476 486.04 174.648 485.768C174.821 485.493 175.051 485.278 175.339 485.122C175.628 484.966 175.946 484.85 176.294 484.774C176.645 484.695 176.998 484.632 177.353 484.585C177.817 484.526 178.193 484.481 178.481 484.451C178.773 484.418 178.985 484.363 179.118 484.287C179.254 484.211 179.322 484.078 179.322 483.889V483.849C179.322 483.359 179.187 482.978 178.919 482.706C178.654 482.434 178.251 482.298 177.711 482.298C177.151 482.298 176.711 482.421 176.393 482.666C176.075 482.911 175.851 483.173 175.722 483.452L174.608 483.054C174.807 482.59 175.073 482.229 175.404 481.97C175.739 481.708 176.103 481.526 176.498 481.423C176.895 481.317 177.287 481.264 177.671 481.264C177.916 481.264 178.198 481.294 178.516 481.354C178.838 481.41 179.148 481.528 179.446 481.707C179.747 481.886 179.998 482.156 180.197 482.517C180.395 482.878 180.495 483.362 180.495 483.969V489H179.322V487.966H179.262C179.182 488.132 179.05 488.309 178.864 488.498C178.679 488.687 178.432 488.848 178.123 488.98C177.815 489.113 177.439 489.179 176.995 489.179ZM177.174 488.125C177.638 488.125 178.029 488.034 178.347 487.852C178.669 487.669 178.911 487.434 179.073 487.146C179.239 486.857 179.322 486.554 179.322 486.236V485.162C179.272 485.222 179.162 485.276 178.993 485.326C178.828 485.372 178.635 485.414 178.417 485.45C178.201 485.483 177.991 485.513 177.785 485.54C177.583 485.563 177.419 485.583 177.293 485.599C176.988 485.639 176.703 485.704 176.438 485.793C176.176 485.879 175.964 486.01 175.802 486.186C175.643 486.358 175.563 486.594 175.563 486.892C175.563 487.3 175.714 487.608 176.015 487.817C176.32 488.022 176.706 488.125 177.174 488.125ZM183.81 484.406V489H182.636V481.364H183.77V482.557H183.869C184.048 482.169 184.32 481.857 184.685 481.622C185.049 481.384 185.52 481.264 186.097 481.264C186.614 481.264 187.066 481.37 187.454 481.582C187.842 481.791 188.143 482.109 188.359 482.537C188.574 482.961 188.682 483.498 188.682 484.148V489H187.509V484.227C187.509 483.627 187.353 483.16 187.041 482.825C186.73 482.487 186.302 482.318 185.759 482.318C185.384 482.318 185.049 482.399 184.754 482.562C184.463 482.724 184.232 482.961 184.063 483.273C183.894 483.584 183.81 483.962 183.81 484.406ZM193.709 489.159C193.073 489.159 192.511 488.998 192.024 488.677C191.537 488.352 191.156 487.895 190.881 487.305C190.605 486.711 190.468 486.01 190.468 485.202C190.468 484.4 190.605 483.704 190.881 483.114C191.156 482.524 191.538 482.068 192.029 481.746C192.519 481.425 193.086 481.264 193.729 481.264C194.226 481.264 194.619 481.347 194.907 481.513C195.199 481.675 195.421 481.861 195.574 482.07C195.729 482.275 195.85 482.444 195.937 482.577H196.036V478.818H197.209V489H196.076V487.827H195.937C195.85 487.966 195.728 488.142 195.569 488.354C195.41 488.562 195.183 488.75 194.888 488.915C194.593 489.078 194.2 489.159 193.709 489.159ZM193.868 488.105C194.339 488.105 194.737 487.982 195.062 487.737C195.386 487.489 195.633 487.146 195.802 486.708C195.971 486.267 196.056 485.759 196.056 485.182C196.056 484.612 195.973 484.113 195.807 483.685C195.642 483.254 195.396 482.92 195.072 482.681C194.747 482.439 194.346 482.318 193.868 482.318C193.371 482.318 192.957 482.446 192.626 482.701C192.297 482.953 192.05 483.296 191.885 483.73C191.722 484.161 191.641 484.645 191.641 485.182C191.641 485.725 191.724 486.219 191.89 486.663C192.059 487.104 192.307 487.455 192.635 487.717C192.967 487.976 193.378 488.105 193.868 488.105ZM203.459 489V481.364H204.592V482.517H204.672C204.811 482.139 205.063 481.833 205.427 481.597C205.792 481.362 206.203 481.244 206.66 481.244C206.747 481.244 206.854 481.246 206.983 481.249C207.113 481.253 207.211 481.258 207.277 481.264V482.457C207.237 482.447 207.146 482.433 207.003 482.413C206.864 482.389 206.717 482.378 206.561 482.378C206.19 482.378 205.858 482.456 205.567 482.612C205.278 482.764 205.05 482.976 204.881 483.248C204.715 483.516 204.632 483.823 204.632 484.168V489H203.459ZM211.637 489.159C210.901 489.159 210.266 488.997 209.733 488.672C209.202 488.344 208.793 487.886 208.505 487.3C208.22 486.71 208.077 486.024 208.077 485.241C208.077 484.459 208.22 483.77 208.505 483.173C208.793 482.573 209.194 482.106 209.708 481.771C210.225 481.433 210.828 481.264 211.518 481.264C211.915 481.264 212.308 481.33 212.696 481.463C213.084 481.596 213.437 481.811 213.755 482.109C214.073 482.404 214.327 482.795 214.515 483.283C214.704 483.77 214.799 484.37 214.799 485.082V485.58H208.912V484.565H213.606C213.606 484.134 213.519 483.75 213.347 483.412C213.178 483.074 212.936 482.807 212.621 482.612C212.31 482.416 211.942 482.318 211.518 482.318C211.05 482.318 210.646 482.434 210.305 482.666C209.966 482.895 209.706 483.193 209.524 483.561C209.342 483.929 209.251 484.323 209.251 484.744V485.42C209.251 485.997 209.35 486.486 209.549 486.887C209.751 487.285 210.031 487.588 210.389 487.797C210.747 488.002 211.163 488.105 211.637 488.105C211.945 488.105 212.224 488.062 212.472 487.976C212.724 487.886 212.941 487.754 213.123 487.578C213.306 487.399 213.447 487.177 213.546 486.912L214.68 487.23C214.56 487.615 214.36 487.953 214.078 488.244C213.796 488.533 213.448 488.758 213.034 488.92C212.62 489.08 212.154 489.159 211.637 489.159ZM216.743 489V478.818H217.916V482.577H218.015C218.102 482.444 218.221 482.275 218.373 482.07C218.529 481.861 218.751 481.675 219.04 481.513C219.331 481.347 219.726 481.264 220.223 481.264C220.866 481.264 221.433 481.425 221.923 481.746C222.414 482.068 222.796 482.524 223.072 483.114C223.347 483.704 223.484 484.4 223.484 485.202C223.484 486.01 223.347 486.711 223.072 487.305C222.796 487.895 222.415 488.352 221.928 488.677C221.441 488.998 220.879 489.159 220.243 489.159C219.752 489.159 219.359 489.078 219.064 488.915C218.769 488.75 218.542 488.562 218.383 488.354C218.224 488.142 218.102 487.966 218.015 487.827H217.876V489H216.743ZM217.896 485.182C217.896 485.759 217.981 486.267 218.15 486.708C218.319 487.146 218.566 487.489 218.89 487.737C219.215 487.982 219.613 488.105 220.084 488.105C220.574 488.105 220.983 487.976 221.312 487.717C221.643 487.455 221.892 487.104 222.057 486.663C222.226 486.219 222.311 485.725 222.311 485.182C222.311 484.645 222.228 484.161 222.062 483.73C221.9 483.296 221.653 482.953 221.322 482.701C220.993 482.446 220.581 482.318 220.084 482.318C219.606 482.318 219.205 482.439 218.881 482.681C218.556 482.92 218.31 483.254 218.145 483.685C217.979 484.113 217.896 484.612 217.896 485.182ZM228.381 489.159C227.692 489.159 227.087 488.995 226.567 488.667C226.05 488.339 225.645 487.88 225.354 487.29C225.065 486.7 224.921 486.01 224.921 485.222C224.921 484.426 225.065 483.732 225.354 483.138C225.645 482.545 226.05 482.085 226.567 481.756C227.087 481.428 227.692 481.264 228.381 481.264C229.071 481.264 229.674 481.428 230.191 481.756C230.711 482.085 231.116 482.545 231.404 483.138C231.696 483.732 231.841 484.426 231.841 485.222C231.841 486.01 231.696 486.7 231.404 487.29C231.116 487.88 230.711 488.339 230.191 488.667C229.674 488.995 229.071 489.159 228.381 489.159ZM228.381 488.105C228.905 488.105 229.336 487.971 229.674 487.702C230.012 487.434 230.262 487.081 230.425 486.643C230.587 486.206 230.668 485.732 230.668 485.222C230.668 484.711 230.587 484.236 230.425 483.795C230.262 483.354 230.012 482.998 229.674 482.726C229.336 482.454 228.905 482.318 228.381 482.318C227.858 482.318 227.427 482.454 227.089 482.726C226.751 482.998 226.5 483.354 226.338 483.795C226.175 484.236 226.094 484.711 226.094 485.222C226.094 485.732 226.175 486.206 226.338 486.643C226.5 487.081 226.751 487.434 227.089 487.702C227.427 487.971 227.858 488.105 228.381 488.105ZM236.735 489.159C236.045 489.159 235.44 488.995 234.92 488.667C234.403 488.339 233.999 487.88 233.707 487.29C233.419 486.7 233.275 486.01 233.275 485.222C233.275 484.426 233.419 483.732 233.707 483.138C233.999 482.545 234.403 482.085 234.92 481.756C235.44 481.428 236.045 481.264 236.735 481.264C237.424 481.264 238.027 481.428 238.544 481.756C239.065 482.085 239.469 482.545 239.757 483.138C240.049 483.732 240.195 484.426 240.195 485.222C240.195 486.01 240.049 486.7 239.757 487.29C239.469 487.88 239.065 488.339 238.544 488.667C238.027 488.995 237.424 489.159 236.735 489.159ZM236.735 488.105C237.258 488.105 237.689 487.971 238.027 487.702C238.365 487.434 238.616 487.081 238.778 486.643C238.94 486.206 239.022 485.732 239.022 485.222C239.022 484.711 238.94 484.236 238.778 483.795C238.616 483.354 238.365 482.998 238.027 482.726C237.689 482.454 237.258 482.318 236.735 482.318C236.211 482.318 235.78 482.454 235.442 482.726C235.104 482.998 234.854 483.354 234.691 483.795C234.529 484.236 234.448 484.711 234.448 485.222C234.448 485.732 234.529 486.206 234.691 486.643C234.854 487.081 235.104 487.434 235.442 487.702C235.78 487.971 236.211 488.105 236.735 488.105ZM245.307 481.364V482.358H241.35V481.364H245.307ZM242.503 479.534H243.676V486.812C243.676 487.144 243.724 487.393 243.82 487.558C243.92 487.721 244.046 487.83 244.198 487.886C244.354 487.939 244.518 487.966 244.691 487.966C244.82 487.966 244.926 487.959 245.009 487.946C245.092 487.929 245.158 487.916 245.208 487.906L245.446 488.96C245.367 488.99 245.256 489.02 245.113 489.05C244.971 489.083 244.79 489.099 244.571 489.099C244.24 489.099 243.915 489.028 243.597 488.886C243.282 488.743 243.02 488.526 242.811 488.234C242.606 487.943 242.503 487.575 242.503 487.131V479.534ZM252.344 483.074L251.29 483.372C251.224 483.196 251.126 483.026 250.997 482.86C250.871 482.691 250.699 482.552 250.48 482.442C250.261 482.333 249.981 482.278 249.64 482.278C249.172 482.278 248.783 482.386 248.471 482.602C248.163 482.814 248.009 483.084 248.009 483.412C248.009 483.704 248.115 483.934 248.327 484.103C248.539 484.272 248.871 484.413 249.322 484.526L250.455 484.804C251.138 484.97 251.647 485.223 251.981 485.565C252.316 485.903 252.483 486.339 252.483 486.872C252.483 487.31 252.358 487.701 252.106 488.045C251.857 488.39 251.509 488.662 251.062 488.861C250.614 489.06 250.094 489.159 249.501 489.159C248.722 489.159 248.077 488.99 247.567 488.652C247.056 488.314 246.733 487.82 246.597 487.17L247.711 486.892C247.817 487.303 248.017 487.611 248.312 487.817C248.611 488.022 249 488.125 249.481 488.125C250.028 488.125 250.462 488.009 250.783 487.777C251.108 487.542 251.27 487.26 251.27 486.932C251.27 486.667 251.178 486.445 250.992 486.266C250.806 486.083 250.521 485.947 250.137 485.858L248.864 485.56C248.165 485.394 247.651 485.137 247.323 484.789C246.998 484.438 246.836 483.999 246.836 483.472C246.836 483.041 246.957 482.66 247.199 482.328C247.444 481.997 247.777 481.737 248.198 481.548C248.622 481.359 249.103 481.264 249.64 481.264C250.395 481.264 250.989 481.43 251.42 481.761C251.854 482.093 252.162 482.53 252.344 483.074Z" fill="black"/>
<rect x="75" y="585" width="200" height="120" rx="10" fill="#D9D9D9"/>
<path d="M135.867 650V639.818H139.426C140.136 639.818 140.721 639.941 141.181 640.186C141.642 640.428 141.985 640.754 142.21 641.165C142.436 641.573 142.549 642.026 142.549 642.523C142.549 642.96 142.471 643.321 142.315 643.607C142.162 643.892 141.96 644.117 141.708 644.283C141.46 644.448 141.19 644.571 140.898 644.651V644.75C141.21 644.77 141.523 644.879 141.838 645.078C142.152 645.277 142.416 645.562 142.628 645.933C142.84 646.304 142.946 646.759 142.946 647.295C142.946 647.806 142.83 648.265 142.598 648.673C142.366 649.08 142 649.403 141.5 649.642C140.999 649.881 140.348 650 139.546 650H135.867ZM137.1 648.906H139.546C140.351 648.906 140.923 648.75 141.261 648.439C141.602 648.124 141.773 647.743 141.773 647.295C141.773 646.951 141.685 646.633 141.509 646.341C141.334 646.046 141.084 645.811 140.759 645.635C140.434 645.456 140.05 645.366 139.605 645.366H137.1V648.906ZM137.1 644.293H139.387C139.758 644.293 140.093 644.22 140.391 644.074C140.693 643.928 140.931 643.723 141.107 643.457C141.286 643.192 141.375 642.881 141.375 642.523C141.375 642.075 141.219 641.696 140.908 641.384C140.596 641.069 140.103 640.912 139.426 640.912H137.1V644.293ZM147.06 650.179C146.576 650.179 146.137 650.088 145.743 649.906C145.348 649.72 145.035 649.453 144.803 649.105C144.571 648.754 144.455 648.33 144.455 647.832C144.455 647.395 144.541 647.04 144.714 646.768C144.886 646.493 145.116 646.278 145.405 646.122C145.693 645.966 146.011 645.85 146.359 645.774C146.711 645.695 147.064 645.632 147.418 645.585C147.882 645.526 148.258 645.481 148.547 645.451C148.838 645.418 149.051 645.363 149.183 645.287C149.319 645.211 149.387 645.078 149.387 644.889V644.849C149.387 644.359 149.253 643.978 148.984 643.706C148.719 643.434 148.316 643.298 147.776 643.298C147.216 643.298 146.777 643.421 146.459 643.666C146.141 643.911 145.917 644.173 145.788 644.452L144.674 644.054C144.873 643.59 145.138 643.229 145.469 642.97C145.804 642.708 146.169 642.526 146.563 642.423C146.961 642.317 147.352 642.264 147.736 642.264C147.982 642.264 148.263 642.294 148.582 642.354C148.903 642.41 149.213 642.528 149.511 642.707C149.813 642.886 150.063 643.156 150.262 643.517C150.461 643.878 150.56 644.362 150.56 644.969V650H149.387V648.966H149.327C149.248 649.132 149.115 649.309 148.93 649.498C148.744 649.687 148.497 649.848 148.189 649.98C147.881 650.113 147.504 650.179 147.06 650.179ZM147.239 649.125C147.703 649.125 148.094 649.034 148.413 648.852C148.734 648.669 148.976 648.434 149.138 648.146C149.304 647.857 149.387 647.554 149.387 647.236V646.162C149.337 646.222 149.228 646.276 149.059 646.326C148.893 646.372 148.701 646.414 148.482 646.45C148.267 646.483 148.056 646.513 147.851 646.54C147.649 646.563 147.485 646.583 147.359 646.599C147.054 646.639 146.769 646.704 146.503 646.793C146.242 646.879 146.03 647.01 145.867 647.186C145.708 647.358 145.628 647.594 145.628 647.892C145.628 648.3 145.779 648.608 146.081 648.817C146.386 649.022 146.772 649.125 147.239 649.125ZM155.804 650.159C155.088 650.159 154.472 649.99 153.955 649.652C153.438 649.314 153.04 648.848 152.761 648.255C152.483 647.662 152.344 646.984 152.344 646.222C152.344 645.446 152.486 644.762 152.771 644.168C153.06 643.572 153.461 643.106 153.975 642.771C154.492 642.433 155.095 642.264 155.784 642.264C156.321 642.264 156.805 642.364 157.236 642.562C157.667 642.761 158.02 643.04 158.295 643.398C158.57 643.756 158.741 644.173 158.807 644.651H157.634C157.544 644.303 157.345 643.994 157.037 643.726C156.732 643.454 156.321 643.318 155.804 643.318C155.347 643.318 154.946 643.437 154.601 643.676C154.26 643.911 153.993 644.245 153.801 644.675C153.612 645.103 153.517 645.605 153.517 646.182C153.517 646.772 153.61 647.286 153.796 647.723C153.984 648.161 154.25 648.5 154.591 648.742C154.936 648.984 155.34 649.105 155.804 649.105C156.109 649.105 156.386 649.052 156.634 648.946C156.883 648.84 157.093 648.688 157.266 648.489C157.438 648.29 157.561 648.051 157.634 647.773H158.807C158.741 648.223 158.577 648.629 158.315 648.991C158.056 649.349 157.713 649.634 157.286 649.846C156.861 650.055 156.368 650.159 155.804 650.159ZM161.616 647.216L161.596 645.764H161.835L165.176 642.364H166.627L163.068 645.963H162.968L161.616 647.216ZM160.522 650V639.818H161.695V650H160.522ZM165.374 650L162.391 646.222L163.227 645.406L166.866 650H165.374ZM175.396 642.364V643.358H171.438V642.364H175.396ZM172.592 640.534H173.765V647.812C173.765 648.144 173.813 648.393 173.909 648.558C174.009 648.721 174.135 648.83 174.287 648.886C174.443 648.939 174.607 648.966 174.779 648.966C174.909 648.966 175.015 648.959 175.098 648.946C175.18 648.929 175.247 648.916 175.296 648.906L175.535 649.96C175.456 649.99 175.344 650.02 175.202 650.05C175.059 650.083 174.879 650.099 174.66 650.099C174.329 650.099 174.004 650.028 173.686 649.886C173.371 649.743 173.109 649.526 172.9 649.234C172.695 648.943 172.592 648.575 172.592 648.131V640.534ZM180.181 650.159C179.492 650.159 178.887 649.995 178.366 649.667C177.849 649.339 177.445 648.88 177.153 648.29C176.865 647.7 176.721 647.01 176.721 646.222C176.721 645.426 176.865 644.732 177.153 644.138C177.445 643.545 177.849 643.085 178.366 642.756C178.887 642.428 179.492 642.264 180.181 642.264C180.87 642.264 181.474 642.428 181.991 642.756C182.511 643.085 182.915 643.545 183.204 644.138C183.495 644.732 183.641 645.426 183.641 646.222C183.641 647.01 183.495 647.7 183.204 648.29C182.915 648.88 182.511 649.339 181.991 649.667C181.474 649.995 180.87 650.159 180.181 650.159ZM180.181 649.105C180.705 649.105 181.136 648.971 181.474 648.702C181.812 648.434 182.062 648.081 182.224 647.643C182.387 647.206 182.468 646.732 182.468 646.222C182.468 645.711 182.387 645.236 182.224 644.795C182.062 644.354 181.812 643.998 181.474 643.726C181.136 643.454 180.705 643.318 180.181 643.318C179.657 643.318 179.226 643.454 178.888 643.726C178.55 643.998 178.3 644.354 178.138 644.795C177.975 645.236 177.894 645.711 177.894 646.222C177.894 646.732 177.975 647.206 178.138 647.643C178.3 648.081 178.55 648.434 178.888 648.702C179.226 648.971 179.657 649.105 180.181 649.105ZM196.211 639.818H197.444V646.56C197.444 647.256 197.28 647.877 196.951 648.424C196.627 648.968 196.168 649.397 195.574 649.712C194.981 650.023 194.285 650.179 193.486 650.179C192.687 650.179 191.991 650.023 191.398 649.712C190.805 649.397 190.344 648.968 190.016 648.424C189.691 647.877 189.529 647.256 189.529 646.56V639.818H190.762V646.46C190.762 646.957 190.871 647.4 191.09 647.788C191.309 648.172 191.62 648.475 192.025 648.697C192.432 648.916 192.919 649.026 193.486 649.026C194.053 649.026 194.54 648.916 194.948 648.697C195.356 648.475 195.667 648.172 195.883 647.788C196.101 647.4 196.211 646.957 196.211 646.46V639.818ZM208.099 643H206.866C206.793 642.645 206.666 642.334 206.483 642.065C206.304 641.797 206.085 641.571 205.827 641.389C205.572 641.204 205.288 641.064 204.977 640.972C204.665 640.879 204.34 640.832 204.002 640.832C203.386 640.832 202.827 640.988 202.327 641.3C201.83 641.611 201.434 642.07 201.139 642.677C200.847 643.283 200.701 644.027 200.701 644.909C200.701 645.791 200.847 646.535 201.139 647.141C201.434 647.748 201.83 648.207 202.327 648.518C202.827 648.83 203.386 648.986 204.002 648.986C204.34 648.986 204.665 648.939 204.977 648.847C205.288 648.754 205.572 648.616 205.827 648.434C206.085 648.248 206.304 648.021 206.483 647.753C206.666 647.481 206.793 647.17 206.866 646.818H208.099C208.006 647.339 207.837 647.804 207.592 648.215C207.347 648.626 207.042 648.976 206.677 649.264C206.313 649.549 205.903 649.766 205.449 649.915C204.998 650.065 204.516 650.139 204.002 650.139C203.134 650.139 202.362 649.927 201.686 649.503C201.009 649.079 200.478 648.475 200.09 647.693C199.702 646.911 199.508 645.983 199.508 644.909C199.508 643.835 199.702 642.907 200.09 642.125C200.478 641.343 201.009 640.74 201.686 640.315C202.362 639.891 203.134 639.679 204.002 639.679C204.516 639.679 204.998 639.754 205.449 639.903C205.903 640.052 206.313 640.271 206.677 640.559C207.042 640.844 207.347 641.192 207.592 641.603C207.837 642.011 208.006 642.476 208.099 643ZM213.492 639.818V650H212.259V641.111H212.199L209.714 642.761V641.509L212.259 639.818H213.492Z" fill="black"/>
<path d="M175.293 245.707C175.683 246.098 176.317 246.098 176.707 245.707L183.071 239.343C183.462 238.953 183.462 238.319 183.071 237.929C182.681 237.538 182.047 237.538 181.657 237.929L176 243.586L170.343 237.929C169.953 237.538 169.319 237.538 168.929 237.929C168.538 238.319 168.538 238.953 168.929 239.343L175.293 245.707ZM176 195L175 195L175 245L176 245L177 245L177 195L176 195Z" fill="black"/>
<path d="M175.293 415.707C175.683 416.098 176.317 416.098 176.707 415.707L183.071 409.343C183.462 408.953 183.462 408.319 183.071 407.929C182.681 407.538 182.047 407.538 181.657 407.929L176 413.586L170.343 407.929C169.953 407.538 169.319 407.538 168.929 407.929C168.538 408.319 168.538 408.953 168.929 409.343L175.293 415.707ZM176 365L175 365L175 415L176 415L177 415L177 365L176 365Z" fill="black"/>
<path d="M175.293 585.707C175.683 586.098 176.317 586.098 176.707 585.707L183.071 579.343C183.462 578.953 183.462 578.319 183.071 577.929C182.681 577.538 182.047 577.538 181.657 577.929L176 583.586L170.343 577.929C169.953 577.538 169.319 577.538 168.929 577.929C168.538 578.319 168.538 578.953 168.929 579.343L175.293 585.707ZM176 535L175 535L175 585L176 585L177 585L177 535L176 535Z" fill="black"/>
</svg>
